<?xml version="1.0" encoding="UTF-8"?>
<!DOCTYPE svg PUBLIC "-//W3C//DTD SVG 1.1//EN" "http://www.w3.org/Graphics/SVG/1.1/DTD/svg11.dtd">
<svg xmlns="http://www.w3.org/2000/svg" version="1.1" width="800px" height="200px" style="shape-rendering:geometricPrecision; text-rendering:geometricPrecision; image-rendering:optimizeQuality; fill-rule:evenodd; clip-rule:evenodd" xmlns:xlink="http://www.w3.org/1999/xlink">
<g><path style="opacity:1" fill="#383838" d="M -0.5,-0.5 C 1.16667,-0.5 2.83333,-0.5 4.5,-0.5C 3.42065,1.54297 1.75398,2.8763 -0.5,3.5C -0.5,2.16667 -0.5,0.833333 -0.5,-0.5 Z"/></g>
<g><path style="opacity:1" fill="#f4f4f4" d="M 4.5,-0.5 C 5.16667,-0.5 5.83333,-0.5 6.5,-0.5C 7.11665,5.59821 6.44998,11.2649 4.5,16.5C 4.82557,12.1161 4.49224,7.7828 3.5,3.5C 2.89333,3.62358 2.55999,3.95691 2.5,4.5C 1.60895,5.10978 0.608953,5.44312 -0.5,5.5C -0.5,4.83333 -0.5,4.16667 -0.5,3.5C 1.75398,2.8763 3.42065,1.54297 4.5,-0.5 Z"/></g>
<g><path style="opacity:1" fill="#313131" d="M 6.5,-0.5 C 9.83333,-0.5 13.1667,-0.5 16.5,-0.5C 12.2816,3.84949 11.4483,8.84949 14,14.5C 18.4814,17.4201 22.4814,16.7535 26,12.5C 26.6667,9.5 26.6667,6.5 26,3.5C 25.0934,1.39092 23.5934,0.0575852 21.5,-0.5C 28.5,-0.5 35.5,-0.5 42.5,-0.5C 38.2816,3.84949 37.4483,8.84949 40,14.5C 44.4814,17.4201 48.4814,16.7535 52,12.5C 52.6667,9.5 52.6667,6.5 52,3.5C 51.0934,1.39092 49.5934,0.0575852 47.5,-0.5C 52.1667,-0.5 56.8333,-0.5 61.5,-0.5C 60.0603,1.38794 58.3936,3.05461 56.5,4.5C 57.4246,5.56236 58.4246,5.56236 59.5,4.5C 60.1667,8.5 60.8333,12.5 61.5,16.5C 63.45,11.2649 64.1167,5.59821 63.5,-0.5C 68.1667,-0.5 72.8333,-0.5 77.5,-0.5C 86.517,3.02292 86.8503,7.68958 78.5,13.5C 77.6143,14.325 77.281,15.325 77.5,16.5C 81.226,16.8226 84.8927,16.4892 88.5,15.5C 85.8929,14.6816 83.2263,14.1816 80.5,14C 86.252,11.6067 88.4187,7.44007 87,1.5C 85.6976,0.915201 84.531,0.248534 83.5,-0.5C 87.8333,-0.5 92.1667,-0.5 96.5,-0.5C 92.2816,3.84949 91.4483,8.84949 94,14.5C 98.4814,17.4201 102.481,16.7535 106,12.5C 106.667,9.5 106.667,6.5 106,3.5C 105.093,1.39092 103.593,0.0575852 101.5,-0.5C 104.5,-0.5 107.5,-0.5 110.5,-0.5C 119.517,3.02292 119.85,7.68958 111.5,13.5C 110.614,14.325 110.281,15.325 110.5,16.5C 114.226,16.8226 117.893,16.4892 121.5,15.5C 118.893,14.6816 116.226,14.1816 113.5,14C 119.252,11.6067 121.419,7.44007 120,1.5C 118.698,0.915201 117.531,0.248534 116.5,-0.5C 119.833,-0.5 123.167,-0.5 126.5,-0.5C 135.517,3.02292 135.85,7.68958 127.5,13.5C 126.614,14.325 126.281,15.325 126.5,16.5C 130.226,16.8226 133.893,16.4892 137.5,15.5C 134.893,14.6816 132.226,14.1816 129.5,14C 135.252,11.6067 137.419,7.44007 136,1.5C 134.698,0.915201 133.531,0.248534 132.5,-0.5C 354.833,-0.5 577.167,-0.5 799.5,-0.5C 799.5,32.8333 799.5,66.1667 799.5,99.5C 793.167,99.5 786.833,99.5 780.5,99.5C 780.5,107.833 780.5,116.167 780.5,124.5C 775.967,125.568 771.634,127.234 767.5,129.5C 761.515,124.015 755.681,118.348 750,112.5C 740.951,121.047 732.451,130.047 724.5,139.5C 729.28,145.783 734.613,151.616 740.5,157C 738.117,161.26 736.451,165.76 735.5,170.5C 727.5,170.5 719.5,170.5 711.5,170.5C 711.5,180.167 711.5,189.833 711.5,199.5C 474.167,199.5 236.833,199.5 -0.5,199.5C -0.5,134.833 -0.5,70.1667 -0.5,5.5C 0.608953,5.44312 1.60895,5.10978 2.5,4.5C 3.16667,8.5 3.83333,12.5 4.5,16.5C 6.44998,11.2649 7.11665,5.59821 6.5,-0.5 Z"/></g>
<g><path style="opacity:1" fill="#e7e7e7" d="M 16.5,-0.5 C 18.1667,-0.5 19.8333,-0.5 21.5,-0.5C 23.5934,0.0575852 25.0934,1.39092 26,3.5C 26.6667,6.5 26.6667,9.5 26,12.5C 22.4814,16.7535 18.4814,17.4201 14,14.5C 11.4483,8.84949 12.2816,3.84949 16.5,-0.5 Z"/></g>
<g><path style="opacity:1" fill="#e7e7e7" d="M 42.5,-0.5 C 44.1667,-0.5 45.8333,-0.5 47.5,-0.5C 49.5934,0.0575852 51.0934,1.39092 52,3.5C 52.6667,6.5 52.6667,9.5 52,12.5C 48.4814,16.7535 44.4814,17.4201 40,14.5C 37.4483,8.84949 38.2816,3.84949 42.5,-0.5 Z"/></g>
<g><path style="opacity:1" fill="#f4f4f4" d="M 61.5,-0.5 C 62.1667,-0.5 62.8333,-0.5 63.5,-0.5C 64.1167,5.59821 63.45,11.2649 61.5,16.5C 61.8256,12.1161 61.4922,7.7828 60.5,3.5C 59.8933,3.62358 59.56,3.95691 59.5,4.5C 58.4246,5.56236 57.4246,5.56236 56.5,4.5C 58.3936,3.05461 60.0603,1.38794 61.5,-0.5 Z"/></g>
<g><path style="opacity:1" fill="#ededed" d="M 77.5,-0.5 C 79.5,-0.5 81.5,-0.5 83.5,-0.5C 84.531,0.248534 85.6976,0.915201 87,1.5C 88.4187,7.44007 86.252,11.6067 80.5,14C 83.2263,14.1816 85.8929,14.6816 88.5,15.5C 84.8927,16.4892 81.226,16.8226 77.5,16.5C 77.281,15.325 77.6143,14.325 78.5,13.5C 86.8503,7.68958 86.517,3.02292 77.5,-0.5 Z"/></g>
<g><path style="opacity:1" fill="#e7e7e7" d="M 96.5,-0.5 C 98.1667,-0.5 99.8333,-0.5 101.5,-0.5C 103.593,0.0575852 105.093,1.39092 106,3.5C 106.667,6.5 106.667,9.5 106,12.5C 102.481,16.7535 98.4814,17.4201 94,14.5C 91.4483,8.84949 92.2816,3.84949 96.5,-0.5 Z"/></g>
<g><path style="opacity:1" fill="#ededed" d="M 110.5,-0.5 C 112.5,-0.5 114.5,-0.5 116.5,-0.5C 117.531,0.248534 118.698,0.915201 120,1.5C 121.419,7.44007 119.252,11.6067 113.5,14C 116.226,14.1816 118.893,14.6816 121.5,15.5C 117.893,16.4892 114.226,16.8226 110.5,16.5C 110.281,15.325 110.614,14.325 111.5,13.5C 119.85,7.68958 119.517,3.02292 110.5,-0.5 Z"/></g>
<g><path style="opacity:1" fill="#ededed" d="M 126.5,-0.5 C 128.5,-0.5 130.5,-0.5 132.5,-0.5C 133.531,0.248534 134.698,0.915201 136,1.5C 137.419,7.44007 135.252,11.6067 129.5,14C 132.226,14.1816 134.893,14.6816 137.5,15.5C 133.893,16.4892 130.226,16.8226 126.5,16.5C 126.281,15.325 126.614,14.325 127.5,13.5C 135.85,7.68958 135.517,3.02292 126.5,-0.5 Z"/></g>
<g><path style="opacity:1" fill="#363636" d="M 17.5,1.5 C 19.7224,1.17798 21.5557,1.84464 23,3.5C 23.6667,6.5 23.6667,9.5 23,12.5C 20.1598,15.3707 17.8265,15.0374 16,11.5C 15.037,7.85132 15.537,4.51798 17.5,1.5 Z"/></g>
<g><path style="opacity:1" fill="#363636" d="M 43.5,1.5 C 45.7224,1.17798 47.5557,1.84464 49,3.5C 49.6667,6.5 49.6667,9.5 49,12.5C 46.1598,15.3707 43.8265,15.0374 42,11.5C 41.037,7.85132 41.537,4.51798 43.5,1.5 Z"/></g>
<g><path style="opacity:1" fill="#363636" d="M 97.5,1.5 C 99.7224,1.17798 101.556,1.84464 103,3.5C 103.667,6.5 103.667,9.5 103,12.5C 100.16,15.3707 97.8265,15.0374 96,11.5C 95.037,7.85132 95.537,4.51798 97.5,1.5 Z"/></g>
<g><path style="opacity:1" fill="#737373" d="M 2.5,4.5 C 2.55999,3.95691 2.89333,3.62358 3.5,3.5C 4.49224,7.7828 4.82557,12.1161 4.5,16.5C 3.83333,12.5 3.16667,8.5 2.5,4.5 Z"/></g>
<g><path style="opacity:1" fill="#737373" d="M 59.5,4.5 C 59.56,3.95691 59.8933,3.62358 60.5,3.5C 61.4922,7.7828 61.8256,12.1161 61.5,16.5C 60.8333,12.5 60.1667,8.5 59.5,4.5 Z"/></g>
<g><path style="opacity:1" fill="#ebebeb" d="M 31.5,12.5 C 32.5,12.5 33.5,12.5 34.5,12.5C 34.5,13.8333 34.5,15.1667 34.5,16.5C 33.1667,16.5 31.8333,16.5 30.5,16.5C 30.4326,15.0413 30.7659,13.7079 31.5,12.5 Z"/></g>
<g><path style="opacity:1" fill="#ebebeb" d="M 69.5,12.5 C 70.5,12.5 71.5,12.5 72.5,12.5C 72.5,13.8333 72.5,15.1667 72.5,16.5C 71.1667,16.5 69.8333,16.5 68.5,16.5C 68.4326,15.0413 68.7659,13.7079 69.5,12.5 Z"/></g>
<g><path style="opacity:1" fill="#f2f2f2" d="M 317.5,87.5 C 323.29,87.0962 328.956,87.5962 334.5,89C 338.919,93.8191 338.252,97.8191 332.5,101C 340.626,104.859 341.626,110.192 335.5,117C 329.678,119.06 323.678,119.893 317.5,119.5C 317.5,108.833 317.5,98.1667 317.5,87.5 Z"/></g>
<g><path style="opacity:1" fill="#fafafa" d="M 346.5,87.5 C 347.833,87.5 349.167,87.5 350.5,87.5C 350.5,97.1667 350.5,106.833 350.5,116.5C 355.5,116.5 360.5,116.5 365.5,116.5C 365.5,117.5 365.5,118.5 365.5,119.5C 359.167,119.5 352.833,119.5 346.5,119.5C 346.5,108.833 346.5,98.1667 346.5,87.5 Z"/></g>
<g><path style="opacity:1" fill="#f8f8f8" d="M 365.5,87.5 C 373.5,87.5 381.5,87.5 389.5,87.5C 389.5,88.5 389.5,89.5 389.5,90.5C 386.167,90.5 382.833,90.5 379.5,90.5C 379.5,100.167 379.5,109.833 379.5,119.5C 378.167,119.5 376.833,119.5 375.5,119.5C 375.5,109.833 375.5,100.167 375.5,90.5C 372.167,90.5 368.833,90.5 365.5,90.5C 365.5,89.5 365.5,88.5 365.5,87.5 Z"/></g>
<g><path style="opacity:1" fill="#eaeaea" d="M 416.5,87.5 C 419.518,87.3354 422.518,87.502 425.5,88C 426.337,89.0113 426.67,90.1779 426.5,91.5C 411.734,89.7768 406.568,96.1102 411,110.5C 415.689,115.966 421.522,117.632 428.5,115.5C 428.5,116.833 428.5,118.167 428.5,119.5C 417.717,121.856 409.884,118.19 405,108.5C 403.647,98.5309 407.481,91.5309 416.5,87.5 Z"/></g>
<g><path style="opacity:1" fill="#f8f8f8" d="M 435.5,87.5 C 441.5,87.5 447.5,87.5 453.5,87.5C 453.5,88.5 453.5,89.5 453.5,90.5C 448.833,90.5 444.167,90.5 439.5,90.5C 439.5,94.5 439.5,98.5 439.5,102.5C 443.167,102.5 446.833,102.5 450.5,102.5C 450.5,103.5 450.5,104.5 450.5,105.5C 446.833,105.5 443.167,105.5 439.5,105.5C 439.5,110.167 439.5,114.833 439.5,119.5C 438.167,119.5 436.833,119.5 435.5,119.5C 435.5,108.833 435.5,98.1667 435.5,87.5 Z"/></g>
<g><path style="opacity:1" fill="#ebebeb" d="M 468.5,87.5 C 472.5,87.5 476.5,87.5 480.5,87.5C 480.5,89.1667 480.5,90.8333 480.5,92.5C 465.284,89.548 459.451,95.548 463,110.5C 467.102,115.147 472.269,117.147 478.5,116.5C 478.5,112.833 478.5,109.167 478.5,105.5C 479.833,105.5 481.167,105.5 482.5,105.5C 483.065,110.322 482.399,114.822 480.5,119C 467.484,122.007 459.484,117.174 456.5,104.5C 457.389,96.6146 461.389,90.9479 468.5,87.5 Z"/></g>
<g><path style="opacity:1" fill="#353535" d="M 321.5,90.5 C 324.187,90.3359 326.854,90.5026 329.5,91C 334.833,94 334.833,97 329.5,100C 326.854,100.497 324.187,100.664 321.5,100.5C 321.5,97.1667 321.5,93.8333 321.5,90.5 Z"/></g>
<g><path style="opacity:1" fill="#f8f8f8" d="M 799.5,99.5 C 799.5,101.833 799.5,104.167 799.5,106.5C 795.5,106.5 791.5,106.5 787.5,106.5C 787.666,113.508 787.5,120.508 787,127.5C 786.167,128.333 785.333,129.167 784.5,130C 778.493,132.087 772.659,134.587 767,137.5C 760.751,133.257 755.085,128.257 750,122.5C 745,127.5 740,132.5 735,137.5C 734.333,138.5 734.333,139.5 735,140.5C 739,144.5 743,148.5 747,152.5C 748.373,154.695 748.706,157.029 748,159.5C 744.91,163.682 742.91,168.349 742,173.5C 740.833,174.667 739.667,175.833 738.5,177C 731.842,177.5 725.175,177.666 718.5,177.5C 718.5,184.833 718.5,192.167 718.5,199.5C 716.167,199.5 713.833,199.5 711.5,199.5C 711.5,189.833 711.5,180.167 711.5,170.5C 719.5,170.5 727.5,170.5 735.5,170.5C 736.451,165.76 738.117,161.26 740.5,157C 734.613,151.616 729.28,145.783 724.5,139.5C 732.451,130.047 740.951,121.047 750,112.5C 755.681,118.348 761.515,124.015 767.5,129.5C 771.634,127.234 775.967,125.568 780.5,124.5C 780.5,116.167 780.5,107.833 780.5,99.5C 786.833,99.5 793.167,99.5 799.5,99.5 Z"/></g>
<g><path style="opacity:1" fill="#333333" d="M 321.5,103.5 C 325.247,103.392 328.914,103.892 332.5,105C 336.5,108.333 336.5,111.667 332.5,115C 328.914,116.108 325.247,116.608 321.5,116.5C 321.5,112.167 321.5,107.833 321.5,103.5 Z"/></g>
<g><path style="opacity:1" fill="#323232" d="M 799.5,106.5 C 799.5,126.167 799.5,145.833 799.5,165.5C 785.224,166.942 777.557,174.776 776.5,189C 776.382,192.695 777.049,196.195 778.5,199.5C 758.5,199.5 738.5,199.5 718.5,199.5C 718.5,192.167 718.5,184.833 718.5,177.5C 725.175,177.666 731.842,177.5 738.5,177C 739.667,175.833 740.833,174.667 742,173.5C 742.91,168.349 744.91,163.682 748,159.5C 748.706,157.029 748.373,154.695 747,152.5C 743,148.5 739,144.5 735,140.5C 734.333,139.5 734.333,138.5 735,137.5C 740,132.5 745,127.5 750,122.5C 755.085,128.257 760.751,133.257 767,137.5C 772.659,134.587 778.493,132.087 784.5,130C 785.333,129.167 786.167,128.333 787,127.5C 787.5,120.508 787.666,113.508 787.5,106.5C 791.5,106.5 795.5,106.5 799.5,106.5 Z"/></g>
<g><path style="opacity:1" fill="#eeeeee" d="M 395.5,112.5 C 400.493,112.997 401.493,115.164 398.5,119C 395.433,120.164 393.767,119.164 393.5,116C 393.862,114.566 394.528,113.399 395.5,112.5 Z"/></g>
<g><path style="opacity:1" fill="#e8e8e8" d="M 289.5,122.5 C 290.5,122.5 291.5,122.5 292.5,122.5C 292.336,125.187 292.503,127.854 293,130.5C 301.418,128.584 305.084,131.917 304,140.5C 303.215,142.286 302.049,143.786 300.5,145C 296.681,145.069 293.014,145.236 289.5,145.5C 289.5,137.833 289.5,130.167 289.5,122.5 Z"/></g>
<g><path style="opacity:1" fill="#f1f1f1" d="M 368.5,122.5 C 369.5,122.5 370.5,122.5 371.5,122.5C 371.5,130.167 371.5,137.833 371.5,145.5C 370.5,145.5 369.5,145.5 368.5,145.5C 368.5,137.833 368.5,130.167 368.5,122.5 Z"/></g>
<g><path style="opacity:1" fill="#e8e8e8" d="M 454.5,122.5 C 455.5,122.5 456.5,122.5 457.5,122.5C 457.336,125.187 457.503,127.854 458,130.5C 466.418,128.584 470.084,131.917 469,140.5C 468.215,142.286 467.049,143.786 465.5,145C 461.681,145.069 458.014,145.236 454.5,145.5C 454.5,137.833 454.5,130.167 454.5,122.5 Z"/></g>
<g><path style="opacity:1" fill="#ececec" d="M 505.5,122.5 C 506.995,122.415 507.995,123.081 508.5,124.5C 507.68,126.111 506.346,126.778 504.5,126.5C 504.433,125.041 504.766,123.708 505.5,122.5 Z"/></g>
<g><path style="opacity:1" fill="#e8e8e8" d="M 331.5,124.5 C 335.182,124.335 338.848,124.501 342.5,125C 346.5,128 346.5,131 342.5,134C 347.975,138.007 347.642,141.674 341.5,145C 338.183,145.498 334.85,145.665 331.5,145.5C 331.5,138.5 331.5,131.5 331.5,124.5 Z"/></g>
<g><path style="opacity:1" fill="#e5e5e5" d="M 394.5,124.5 C 395.5,124.5 396.5,124.5 397.5,124.5C 397.5,126.167 397.5,127.833 397.5,129.5C 404.167,130.167 404.167,130.833 397.5,131.5C 397.335,134.85 397.502,138.183 398,141.5C 399.307,142.772 400.807,143.772 402.5,144.5C 399.23,146.214 396.73,145.548 395,142.5C 395.003,138.258 394.17,134.258 392.5,130.5C 394.104,128.821 394.771,126.821 394.5,124.5 Z"/></g>
<g><path style="opacity:1" fill="#313131" d="M 334.5,126.5 C 339.542,125.505 341.875,127.505 341.5,132.5C 339.194,132.993 336.861,133.326 334.5,133.5C 334.5,131.167 334.5,128.833 334.5,126.5 Z"/></g>
<g><path style="opacity:1" fill="#e4e4e4" d="M 411.5,124.5 C 414.167,124.5 416.833,124.5 419.5,124.5C 419.529,127.773 418.196,128.44 415.5,126.5C 408.956,128.031 406.789,132.031 409,138.5C 411.4,142.689 414.9,144.023 419.5,142.5C 420.386,143.325 420.719,144.325 420.5,145.5C 410.16,146.977 404.993,142.644 405,132.5C 406.305,129.039 408.471,126.372 411.5,124.5 Z"/></g>
<g><path style="opacity:1" fill="#dfdfdf" d="M 307.5,129.5 C 308.833,129.5 310.167,129.5 311.5,129.5C 313.943,142.629 315.943,142.629 317.5,129.5C 318.978,129.238 320.311,129.571 321.5,130.5C 318.184,137.277 315.35,144.277 313,151.5C 311.506,152.747 310.006,152.747 308.5,151.5C 312.314,148.813 313.48,145.147 312,140.5C 309.934,137.039 308.434,133.373 307.5,129.5 Z"/></g>
<g><path style="opacity:1" fill="#e4e4e4" d="M 350.5,129.5 C 351.5,129.5 352.5,129.5 353.5,129.5C 353.335,133.182 353.501,136.848 354,140.5C 355.36,143.551 357.527,144.218 360.5,142.5C 361.492,138.217 361.826,133.884 361.5,129.5C 362.5,129.5 363.5,129.5 364.5,129.5C 364.5,134.833 364.5,140.167 364.5,145.5C 360.318,145.227 356.151,144.894 352,144.5C 350.612,139.628 350.112,134.628 350.5,129.5 Z"/></g>
<g><path style="opacity:1" fill="#e4e4e4" d="M 375.5,129.5 C 376.5,129.5 377.5,129.5 378.5,129.5C 378.335,133.182 378.501,136.848 379,140.5C 380.36,143.551 382.527,144.218 385.5,142.5C 386.492,138.217 386.826,133.884 386.5,129.5C 387.5,129.5 388.5,129.5 389.5,129.5C 389.5,134.833 389.5,140.167 389.5,145.5C 385.318,145.227 381.151,144.894 377,144.5C 375.612,139.628 375.112,134.628 375.5,129.5 Z"/></g>
<g><path style="opacity:1" fill="#e5e5e5" d="M 427.5,129.5 C 438.566,129.729 441.233,134.562 435.5,144C 426.942,147.429 422.776,144.596 423,135.5C 424.332,133.34 425.832,131.34 427.5,129.5 Z"/></g>
<g><path style="opacity:1" fill="#ebebeb" d="M 442.5,129.5 C 444.124,129.36 445.29,130.027 446,131.5C 447.789,129.771 449.956,129.104 452.5,129.5C 452.891,132.838 451.724,133.838 449,132.5C 447.739,132.759 446.739,133.426 446,134.5C 445.501,138.152 445.335,141.818 445.5,145.5C 444.5,145.5 443.5,145.5 442.5,145.5C 442.5,140.167 442.5,134.833 442.5,129.5 Z"/></g>
<g><path style="opacity:1" fill="#e4e4e4" d="M 472.5,129.5 C 475.85,129.335 479.183,129.502 482.5,130C 483,130.5 483.5,131 484,131.5C 484.499,136.155 484.666,140.821 484.5,145.5C 480.986,145.236 477.319,145.069 473.5,145C 470.9,142.541 470.9,140.041 473.5,137.5C 475.851,135.771 478.518,135.104 481.5,135.5C 481.64,133.876 480.973,132.71 479.5,132C 477.153,131.666 474.819,131.833 472.5,132.5C 472.5,131.5 472.5,130.5 472.5,129.5 Z"/></g>
<g><path style="opacity:1" fill="#ededed" d="M 504.5,129.5 C 505.5,129.5 506.5,129.5 507.5,129.5C 507.5,134.833 507.5,140.167 507.5,145.5C 506.5,145.5 505.5,145.5 504.5,145.5C 504.5,140.167 504.5,134.833 504.5,129.5 Z"/></g>
<g><path style="opacity:1" fill="#373737" d="M 294.5,131.5 C 301.225,132.07 303.058,135.403 300,141.5C 295.085,144.792 292.585,143.459 292.5,137.5C 292.676,135.215 293.343,133.215 294.5,131.5 Z"/></g>
<g><path style="opacity:1" fill="#363636" d="M 428.5,131.5 C 436.103,132.956 437.436,136.789 432.5,143C 430.299,143.825 428.466,143.325 427,141.5C 426.037,137.851 426.537,134.518 428.5,131.5 Z"/></g>
<g><path style="opacity:1" fill="#373737" d="M 459.5,131.5 C 466.225,132.07 468.058,135.403 465,141.5C 460.085,144.792 457.585,143.459 457.5,137.5C 457.676,135.215 458.343,133.215 459.5,131.5 Z"/></g>
<g><path style="opacity:1" fill="#e3e3e3" d="M 493.5,129.5 C 495.833,129.5 498.167,129.5 500.5,129.5C 500.578,132.487 499.411,133.153 497,131.5C 493.645,131.852 492.145,133.686 492.5,137C 492.654,142.573 495.32,144.406 500.5,142.5C 501.386,143.325 501.719,144.325 501.5,145.5C 494.581,146.899 490.248,144.232 488.5,137.5C 489.366,134.308 491.032,131.641 493.5,129.5 Z"/></g>
<g><path style="opacity:1" fill="#343434" d="M 334.5,135.5 C 337.271,135.421 339.937,135.921 342.5,137C 343.833,138.667 343.833,140.333 342.5,142C 339.937,143.079 337.271,143.579 334.5,143.5C 334.5,140.833 334.5,138.167 334.5,135.5 Z"/></g>
<g><path style="opacity:1" fill="#363636" d="M 478.5,137.5 C 479.5,137.5 480.5,137.5 481.5,137.5C 482.036,140.865 480.703,142.865 477.5,143.5C 475.734,143.566 474.734,142.732 474.5,141C 475.347,139.229 476.68,138.063 478.5,137.5 Z"/></g>
<g><path style="opacity:1" fill="#f7f7f7" d="M 799.5,165.5 C 799.5,168.167 799.5,170.833 799.5,173.5C 789.43,173.737 784.096,178.903 783.5,189C 783.597,192.788 784.597,196.288 786.5,199.5C 783.833,199.5 781.167,199.5 778.5,199.5C 777.049,196.195 776.382,192.695 776.5,189C 777.557,174.776 785.224,166.942 799.5,165.5 Z"/></g>
<g><path style="opacity:1" fill="#323232" d="M 799.5,173.5 C 799.5,182.167 799.5,190.833 799.5,199.5C 795.167,199.5 790.833,199.5 786.5,199.5C 784.597,196.288 783.597,192.788 783.5,189C 784.096,178.903 789.43,173.737 799.5,173.5 Z"/></g>
</svg>
