<?xml version="1.0" encoding="UTF-8"?>
<!DOCTYPE svg PUBLIC "-//W3C//DTD SVG 1.1//EN" "http://www.w3.org/Graphics/SVG/1.1/DTD/svg11.dtd">
<svg xmlns="http://www.w3.org/2000/svg" version="1.1" width="800px" height="200px" style="shape-rendering:geometricPrecision; text-rendering:geometricPrecision; image-rendering:optimizeQuality; fill-rule:evenodd; clip-rule:evenodd" xmlns:xlink="http://www.w3.org/1999/xlink">
<g><path style="opacity:1" fill="#313131" d="M -0.5,-0.5 C 8.5,-0.5 17.5,-0.5 26.5,-0.5C 19.8853,3.70753 17.7186,9.70753 20,17.5C 23.3562,21.9483 27.3562,22.6149 32,19.5C 34.661,14.7231 33.8277,10.8897 29.5,8C 26.9032,7.719 24.5699,7.55234 22.5,7.5C 23.7304,3.60477 26.3971,1.60477 30.5,1.5C 31.2975,1.04311 31.6309,0.376442 31.5,-0.5C 287.5,-0.5 543.5,-0.5 799.5,-0.5C 799.5,32.8333 799.5,66.1667 799.5,99.5C 793.167,99.5 786.833,99.5 780.5,99.5C 780.5,107.833 780.5,116.167 780.5,124.5C 775.967,125.568 771.634,127.234 767.5,129.5C 761.515,124.015 755.681,118.348 750,112.5C 740.951,121.047 732.451,130.047 724.5,139.5C 729.28,145.783 734.613,151.616 740.5,157C 738.117,161.26 736.451,165.76 735.5,170.5C 727.5,170.5 719.5,170.5 711.5,170.5C 711.5,180.167 711.5,189.833 711.5,199.5C 474.167,199.5 236.833,199.5 -0.5,199.5C -0.5,132.833 -0.5,66.1667 -0.5,-0.5 Z"/></g>
<g><path style="opacity:1" fill="#eaeaea" d="M 26.5,-0.5 C 28.1667,-0.5 29.8333,-0.5 31.5,-0.5C 31.6309,0.376442 31.2975,1.04311 30.5,1.5C 26.3971,1.60477 23.7304,3.60477 22.5,7.5C 24.5699,7.55234 26.9032,7.719 29.5,8C 33.8277,10.8897 34.661,14.7231 32,19.5C 27.3562,22.6149 23.3562,21.9483 20,17.5C 17.7186,9.70753 19.8853,3.70753 26.5,-0.5 Z"/></g>
<g><path style="opacity:1" fill="#e8e8e8" d="M 5.5,4.5 C 7.85684,4.33669 10.1902,4.50335 12.5,5C 16.7925,10.6824 16.4592,16.0158 11.5,21C 7.21938,22.4582 4.05271,21.2916 2,17.5C 0.539442,12.3265 1.70611,7.99316 5.5,4.5 Z"/></g>
<g><path style="opacity:1" fill="#e8e8e8" d="M 50.5,4.5 C 52.8568,4.33669 55.1902,4.50335 57.5,5C 61.7925,10.6824 61.4592,16.0158 56.5,21C 52.2194,22.4582 49.0527,21.2916 47,17.5C 45.5394,12.3265 46.7061,7.99316 50.5,4.5 Z"/></g>
<g><path style="opacity:1" fill="#f6f6f6" d="M 68.5,21.5 C 68.8256,17.1161 68.4922,12.7828 67.5,8.5C 66.8933,8.62358 66.56,8.95691 66.5,9.5C 64.6262,11.0948 63.7929,10.7615 64,8.5C 65.9734,7.36008 67.8067,6.02675 69.5,4.5C 69.8333,7.33333 70.1667,10.1667 70.5,13C 70.4809,16.2515 69.8142,19.0849 68.5,21.5 Z"/></g>
<g><path style="opacity:1" fill="#e8e8e8" d="M 104.5,4.5 C 106.857,4.33669 109.19,4.50335 111.5,5C 115.793,10.6824 115.459,16.0158 110.5,21C 106.219,22.4582 103.053,21.2916 101,17.5C 99.5394,12.3265 100.706,7.99316 104.5,4.5 Z"/></g>
<g><path style="opacity:1" fill="#363636" d="M 6.5,6.5 C 8.58236,6.47199 10.4157,7.13865 12,8.5C 12.6667,11.5 12.6667,14.5 12,17.5C 9.32123,20.1715 6.9879,19.8382 5,16.5C 4.03704,12.8513 4.53704,9.51798 6.5,6.5 Z"/></g>
<g><path style="opacity:1" fill="#363636" d="M 51.5,6.5 C 53.5824,6.47199 55.4157,7.13865 57,8.5C 57.6667,11.5 57.6667,14.5 57,17.5C 54.3212,20.1715 51.9879,19.8382 50,16.5C 49.037,12.8513 49.537,9.51798 51.5,6.5 Z"/></g>
<g><path style="opacity:1" fill="#363636" d="M 105.5,6.5 C 107.582,6.47199 109.416,7.13865 111,8.5C 111.667,11.5 111.667,14.5 111,17.5C 108.321,20.1715 105.988,19.8382 104,16.5C 103.037,12.8513 103.537,9.51798 105.5,6.5 Z"/></g>
<g><path style="opacity:1" fill="#343434" d="M 24.5,9.5 C 30.7577,10.4774 32.0911,13.6441 28.5,19C 24.4634,19.3267 22.4634,17.3267 22.5,13C 22.8618,11.5657 23.5285,10.3991 24.5,9.5 Z"/></g>
<g><path style="opacity:1" fill="#878787" d="M 66.5,9.5 C 66.56,8.95691 66.8933,8.62358 67.5,8.5C 68.4922,12.7828 68.8256,17.1161 68.5,21.5C 67.8333,17.5 67.1667,13.5 66.5,9.5 Z"/></g>
<g><path style="opacity:1" fill="#efefef" d="M 39.5,17.5 C 40.5,17.5 41.5,17.5 42.5,17.5C 42.5,18.8333 42.5,20.1667 42.5,21.5C 41.1667,21.5 39.8333,21.5 38.5,21.5C 38.4326,20.0413 38.7659,18.7079 39.5,17.5 Z"/></g>
<g><path style="opacity:1" fill="#efefef" d="M 77.5,17.5 C 78.5,17.5 79.5,17.5 80.5,17.5C 80.5,18.8333 80.5,20.1667 80.5,21.5C 79.1667,21.5 77.8333,21.5 76.5,21.5C 76.4326,20.0413 76.7659,18.7079 77.5,17.5 Z"/></g>
<g><path style="opacity:1" fill="#f2f2f2" d="M 84.5,4.5 C 87.8826,4.25721 91.0492,4.92388 94,6.5C 95.4187,12.4401 93.252,16.6067 87.5,19C 90.5535,19.1786 93.5535,19.6786 96.5,20.5C 92.5546,21.4909 88.5546,21.8242 84.5,21.5C 86.003,18.4765 88.1697,15.8098 91,13.5C 91.8077,11.4213 91.641,9.42131 90.5,7.5C 87.9527,7.22904 85.9527,6.22904 84.5,4.5 Z"/></g>
<g><path style="opacity:1" fill="#f2f2f2" d="M 118.5,4.5 C 121.883,4.25721 125.049,4.92388 128,6.5C 129.419,12.4401 127.252,16.6067 121.5,19C 124.553,19.1786 127.553,19.6786 130.5,20.5C 126.555,21.4909 122.555,21.8242 118.5,21.5C 120.003,18.4765 122.17,15.8098 125,13.5C 125.808,11.4213 125.641,9.42131 124.5,7.5C 121.953,7.22904 119.953,6.22904 118.5,4.5 Z"/></g>
<g><path style="opacity:1" fill="#f2f2f2" d="M 134.5,4.5 C 137.883,4.25721 141.049,4.92388 144,6.5C 145.419,12.4401 143.252,16.6067 137.5,19C 140.553,19.1786 143.553,19.6786 146.5,20.5C 142.555,21.4909 138.555,21.8242 134.5,21.5C 136.003,18.4765 138.17,15.8098 141,13.5C 141.808,11.4213 141.641,9.42131 140.5,7.5C 137.953,7.22904 135.953,6.22904 134.5,4.5 Z"/></g>
<g><path style="opacity:1" fill="#f0f0f0" d="M 444.5,81.5 C 445.833,81.5 447.167,81.5 448.5,81.5C 448.5,93.1667 448.5,104.833 448.5,116.5C 446.549,116.773 445.049,116.107 444,114.5C 436,118.726 430.333,116.726 427,108.5C 425.654,101.875 427.82,96.7088 433.5,93C 437.203,92.4213 440.869,92.588 444.5,93.5C 444.5,89.5 444.5,85.5 444.5,81.5 Z"/></g>
<g><path style="opacity:1" fill="#ebebeb" d="M 456.5,82.5 C 460.909,81.899 462.242,83.5657 460.5,87.5C 455.732,88.8893 454.398,87.2226 456.5,82.5 Z"/></g>
<g><path style="opacity:1" fill="#f2f2f2" d="M 272.5,84.5 C 273.833,84.5 275.167,84.5 276.5,84.5C 276.5,89.1667 276.5,93.8333 276.5,98.5C 281.167,98.5 285.833,98.5 290.5,98.5C 290.5,93.8333 290.5,89.1667 290.5,84.5C 292.167,84.5 293.833,84.5 295.5,84.5C 295.5,95.1667 295.5,105.833 295.5,116.5C 293.833,116.5 292.167,116.5 290.5,116.5C 290.5,111.5 290.5,106.5 290.5,101.5C 285.833,101.5 281.167,101.5 276.5,101.5C 276.5,106.5 276.5,111.5 276.5,116.5C 275.167,116.5 273.833,116.5 272.5,116.5C 272.5,105.833 272.5,95.1667 272.5,84.5 Z"/></g>
<g><path style="opacity:1" fill="#fbfbfb" d="M 420.5,113.5 C 422.048,113.821 422.715,114.821 422.5,116.5C 416.167,116.5 409.833,116.5 403.5,116.5C 403.5,105.833 403.5,95.1667 403.5,84.5C 409.5,84.5 415.5,84.5 421.5,84.5C 421.657,85.8734 421.49,87.2068 421,88.5C 416.599,87.5333 412.099,87.2 407.5,87.5C 407.5,91.1667 407.5,94.8333 407.5,98.5C 411.167,98.5 414.833,98.5 418.5,98.5C 418.5,99.5 418.5,100.5 418.5,101.5C 414.833,101.5 411.167,101.5 407.5,101.5C 407.5,105.5 407.5,109.5 407.5,113.5C 411.833,113.5 416.167,113.5 420.5,113.5 Z"/></g>
<g><path style="opacity:1" fill="#f2f2f2" d="M 355.5,85.5 C 357.344,87.2789 358.01,89.6122 357.5,92.5C 359.833,92.5 362.167,92.5 364.5,92.5C 364.5,93.5 364.5,94.5 364.5,95.5C 362.167,95.5 359.833,95.5 357.5,95.5C 357.242,100.717 357.575,105.884 358.5,111C 360.287,113.134 362.62,113.967 365.5,113.5C 365.5,114.5 365.5,115.5 365.5,116.5C 362.482,116.665 359.482,116.498 356.5,116C 356,115.5 355.5,115 355,114.5C 353.584,108.285 353.084,101.952 353.5,95.5C 352.167,95.5 350.833,95.5 349.5,95.5C 349.5,94.5 349.5,93.5 349.5,92.5C 350.833,92.5 352.167,92.5 353.5,92.5C 354.268,90.2854 354.935,87.9521 355.5,85.5 Z"/></g>
<g><path style="opacity:1" fill="#f2f2f2" d="M 470.5,85.5 C 472.344,87.2789 473.01,89.6122 472.5,92.5C 474.833,92.5 477.167,92.5 479.5,92.5C 479.5,93.5 479.5,94.5 479.5,95.5C 477.167,95.5 474.833,95.5 472.5,95.5C 472.242,100.717 472.575,105.884 473.5,111C 475.287,113.134 477.62,113.967 480.5,113.5C 480.5,114.5 480.5,115.5 480.5,116.5C 477.482,116.665 474.482,116.498 471.5,116C 471,115.5 470.5,115 470,114.5C 468.584,108.285 468.084,101.952 468.5,95.5C 467.167,95.5 465.833,95.5 464.5,95.5C 464.5,94.5 464.5,93.5 464.5,92.5C 465.833,92.5 467.167,92.5 468.5,92.5C 469.268,90.2854 469.935,87.9521 470.5,85.5 Z"/></g>
<g><path style="opacity:1" fill="#a6a6a6" d="M 355.5,85.5 C 354.935,87.9521 354.268,90.2854 353.5,92.5C 352.99,89.6122 353.656,87.2789 355.5,85.5 Z"/></g>
<g><path style="opacity:1" fill="#a6a6a6" d="M 470.5,85.5 C 469.935,87.9521 469.268,90.2854 468.5,92.5C 467.99,89.6122 468.656,87.2789 470.5,85.5 Z"/></g>
<g><path style="opacity:1" fill="#ebebeb" d="M 310.5,92.5 C 324.604,92.0957 329.104,98.4291 324,111.5C 317.953,117.728 311.62,118.062 305,112.5C 300.642,104.079 302.476,97.4122 310.5,92.5 Z"/></g>
<g><path style="opacity:1" fill="#e9e9e9" d="M 334.5,92.5 C 338.5,92.5 342.5,92.5 346.5,92.5C 346.5,93.8333 346.5,95.1667 346.5,96.5C 343.183,95.7791 339.849,95.6124 336.5,96C 335.167,97.6667 335.167,99.3333 336.5,101C 340.097,102.365 343.43,104.198 346.5,106.5C 348.326,110.526 347.326,113.693 343.5,116C 339.179,116.499 334.846,116.666 330.5,116.5C 330.5,115.167 330.5,113.833 330.5,112.5C 333.817,113.221 337.151,113.388 340.5,113C 343.346,112.121 344.013,110.454 342.5,108C 338.637,106.819 335.137,104.986 332,102.5C 330.11,98.5795 330.943,95.2462 334.5,92.5 Z"/></g>
<g><path style="opacity:1" fill="#e9e9e9" d="M 372.5,92.5 C 376.5,92.5 380.5,92.5 384.5,92.5C 384.5,93.8333 384.5,95.1667 384.5,96.5C 381.183,95.7791 377.849,95.6124 374.5,96C 373.167,97.6667 373.167,99.3333 374.5,101C 378.097,102.365 381.43,104.198 384.5,106.5C 386.326,110.526 385.326,113.693 381.5,116C 377.179,116.499 372.846,116.666 368.5,116.5C 368.5,115.167 368.5,113.833 368.5,112.5C 371.817,113.221 375.151,113.388 378.5,113C 381.346,112.121 382.013,110.454 380.5,108C 376.637,106.819 373.137,104.986 370,102.5C 368.11,98.5795 368.943,95.2462 372.5,92.5 Z"/></g>
<g><path style="opacity:1" fill="#e0e0e0" d="M 458.5,92.5 C 460.467,100.097 461.134,108.097 460.5,116.5C 458.833,116.5 457.167,116.5 455.5,116.5C 455.5,108.833 455.5,101.167 455.5,93.5C 456.791,93.7373 457.791,93.404 458.5,92.5 Z"/></g>
<g><path style="opacity:1" fill="#ebebeb" d="M 491.5,92.5 C 505.604,92.0957 510.104,98.4291 505,111.5C 498.953,117.728 492.62,118.062 486,112.5C 481.642,104.079 483.476,97.4122 491.5,92.5 Z"/></g>
<g><path style="opacity:1" fill="#e2e2e2" d="M 511.5,92.5 C 513.167,92.5 514.833,92.5 516.5,92.5C 516.351,93.552 516.517,94.552 517,95.5C 519.984,92.8999 523.484,91.8999 527.5,92.5C 528.101,96.909 526.434,98.2424 522.5,96.5C 520.813,96.7605 519.313,97.4272 518,98.5C 517.501,104.491 517.334,110.491 517.5,116.5C 515.833,116.5 514.167,116.5 512.5,116.5C 512.736,108.458 512.403,100.458 511.5,92.5 Z"/></g>
<g><path style="opacity:1" fill="#323232" d="M 312.5,95.5 C 318.713,95.5478 321.713,98.7144 321.5,105C 320.039,113.317 315.873,115.151 309,110.5C 306.206,104.408 307.373,99.4076 312.5,95.5 Z"/></g>
<g><path style="opacity:1" fill="#323232" d="M 437.5,95.5 C 439.936,95.317 442.103,95.9837 444,97.5C 444.667,102.167 444.667,106.833 444,111.5C 436.322,115.073 432.155,112.573 431.5,104C 431.451,99.5715 433.451,96.7382 437.5,95.5 Z"/></g>
<g><path style="opacity:1" fill="#323232" d="M 493.5,95.5 C 499.713,95.5478 502.713,98.7144 502.5,105C 501.039,113.317 496.873,115.151 490,110.5C 487.206,104.408 488.373,99.4076 493.5,95.5 Z"/></g>
<g><path style="opacity:1" fill="#f8f8f8" d="M 799.5,99.5 C 799.5,101.833 799.5,104.167 799.5,106.5C 795.5,106.5 791.5,106.5 787.5,106.5C 787.666,113.508 787.5,120.508 787,127.5C 786.167,128.333 785.333,129.167 784.5,130C 778.493,132.087 772.659,134.587 767,137.5C 760.751,133.257 755.085,128.257 750,122.5C 745,127.5 740,132.5 735,137.5C 734.333,138.5 734.333,139.5 735,140.5C 739,144.5 743,148.5 747,152.5C 748.373,154.695 748.706,157.029 748,159.5C 744.91,163.682 742.91,168.349 742,173.5C 740.833,174.667 739.667,175.833 738.5,177C 731.842,177.5 725.175,177.666 718.5,177.5C 718.5,184.833 718.5,192.167 718.5,199.5C 716.167,199.5 713.833,199.5 711.5,199.5C 711.5,189.833 711.5,180.167 711.5,170.5C 719.5,170.5 727.5,170.5 735.5,170.5C 736.451,165.76 738.117,161.26 740.5,157C 734.613,151.616 729.28,145.783 724.5,139.5C 732.451,130.047 740.951,121.047 750,112.5C 755.681,118.348 761.515,124.015 767.5,129.5C 771.634,127.234 775.967,125.568 780.5,124.5C 780.5,116.167 780.5,107.833 780.5,99.5C 786.833,99.5 793.167,99.5 799.5,99.5 Z"/></g>
<g><path style="opacity:1" fill="#323232" d="M 799.5,106.5 C 799.5,126.167 799.5,145.833 799.5,165.5C 785.224,166.942 777.557,174.776 776.5,189C 776.382,192.695 777.049,196.195 778.5,199.5C 758.5,199.5 738.5,199.5 718.5,199.5C 718.5,192.167 718.5,184.833 718.5,177.5C 725.175,177.666 731.842,177.5 738.5,177C 739.667,175.833 740.833,174.667 742,173.5C 742.91,168.349 744.91,163.682 748,159.5C 748.706,157.029 748.373,154.695 747,152.5C 743,148.5 739,144.5 735,140.5C 734.333,139.5 734.333,138.5 735,137.5C 740,132.5 745,127.5 750,122.5C 755.085,128.257 760.751,133.257 767,137.5C 772.659,134.587 778.493,132.087 784.5,130C 785.333,129.167 786.167,128.333 787,127.5C 787.5,120.508 787.666,113.508 787.5,106.5C 791.5,106.5 795.5,106.5 799.5,106.5 Z"/></g>
<g><path style="opacity:1" fill="#919191" d="M 420.5,113.5 C 421.209,112.596 422.209,112.263 423.5,112.5C 423.768,114.099 423.434,115.432 422.5,116.5C 422.715,114.821 422.048,113.821 420.5,113.5 Z"/></g>
<g><path style="opacity:1" fill="#e8e8e8" d="M 289.5,122.5 C 290.5,122.5 291.5,122.5 292.5,122.5C 292.336,125.187 292.503,127.854 293,130.5C 301.418,128.584 305.084,131.917 304,140.5C 303.215,142.286 302.049,143.786 300.5,145C 296.681,145.069 293.014,145.236 289.5,145.5C 289.5,137.833 289.5,130.167 289.5,122.5 Z"/></g>
<g><path style="opacity:1" fill="#f1f1f1" d="M 368.5,122.5 C 369.5,122.5 370.5,122.5 371.5,122.5C 371.5,130.167 371.5,137.833 371.5,145.5C 370.5,145.5 369.5,145.5 368.5,145.5C 368.5,137.833 368.5,130.167 368.5,122.5 Z"/></g>
<g><path style="opacity:1" fill="#e8e8e8" d="M 454.5,122.5 C 455.5,122.5 456.5,122.5 457.5,122.5C 457.336,125.187 457.503,127.854 458,130.5C 466.418,128.584 470.084,131.917 469,140.5C 468.215,142.286 467.049,143.786 465.5,145C 461.681,145.069 458.014,145.236 454.5,145.5C 454.5,137.833 454.5,130.167 454.5,122.5 Z"/></g>
<g><path style="opacity:1" fill="#ececec" d="M 505.5,122.5 C 506.995,122.415 507.995,123.081 508.5,124.5C 507.68,126.111 506.346,126.778 504.5,126.5C 504.433,125.041 504.766,123.708 505.5,122.5 Z"/></g>
<g><path style="opacity:1" fill="#e8e8e8" d="M 331.5,124.5 C 335.182,124.335 338.848,124.501 342.5,125C 346.5,128 346.5,131 342.5,134C 347.975,138.007 347.642,141.674 341.5,145C 338.183,145.498 334.85,145.665 331.5,145.5C 331.5,138.5 331.5,131.5 331.5,124.5 Z"/></g>
<g><path style="opacity:1" fill="#e5e5e5" d="M 394.5,124.5 C 395.5,124.5 396.5,124.5 397.5,124.5C 397.5,126.167 397.5,127.833 397.5,129.5C 404.167,130.167 404.167,130.833 397.5,131.5C 397.335,134.85 397.502,138.183 398,141.5C 399.307,142.772 400.807,143.772 402.5,144.5C 399.23,146.214 396.73,145.548 395,142.5C 395.003,138.258 394.17,134.258 392.5,130.5C 394.104,128.821 394.771,126.821 394.5,124.5 Z"/></g>
<g><path style="opacity:1" fill="#313131" d="M 334.5,126.5 C 339.542,125.505 341.875,127.505 341.5,132.5C 339.194,132.993 336.861,133.326 334.5,133.5C 334.5,131.167 334.5,128.833 334.5,126.5 Z"/></g>
<g><path style="opacity:1" fill="#e4e4e4" d="M 411.5,124.5 C 414.167,124.5 416.833,124.5 419.5,124.5C 419.529,127.773 418.196,128.44 415.5,126.5C 408.956,128.031 406.789,132.031 409,138.5C 411.4,142.689 414.9,144.023 419.5,142.5C 420.386,143.325 420.719,144.325 420.5,145.5C 410.16,146.977 404.993,142.644 405,132.5C 406.305,129.039 408.471,126.372 411.5,124.5 Z"/></g>
<g><path style="opacity:1" fill="#dfdfdf" d="M 307.5,129.5 C 308.833,129.5 310.167,129.5 311.5,129.5C 313.943,142.629 315.943,142.629 317.5,129.5C 318.978,129.238 320.311,129.571 321.5,130.5C 318.184,137.277 315.35,144.277 313,151.5C 311.506,152.747 310.006,152.747 308.5,151.5C 312.314,148.813 313.48,145.147 312,140.5C 309.934,137.039 308.434,133.373 307.5,129.5 Z"/></g>
<g><path style="opacity:1" fill="#e4e4e4" d="M 350.5,129.5 C 351.5,129.5 352.5,129.5 353.5,129.5C 353.335,133.182 353.501,136.848 354,140.5C 355.36,143.551 357.527,144.218 360.5,142.5C 361.492,138.217 361.826,133.884 361.5,129.5C 362.5,129.5 363.5,129.5 364.5,129.5C 364.5,134.833 364.5,140.167 364.5,145.5C 360.318,145.227 356.151,144.894 352,144.5C 350.612,139.628 350.112,134.628 350.5,129.5 Z"/></g>
<g><path style="opacity:1" fill="#e4e4e4" d="M 375.5,129.5 C 376.5,129.5 377.5,129.5 378.5,129.5C 378.335,133.182 378.501,136.848 379,140.5C 380.36,143.551 382.527,144.218 385.5,142.5C 386.492,138.217 386.826,133.884 386.5,129.5C 387.5,129.5 388.5,129.5 389.5,129.5C 389.5,134.833 389.5,140.167 389.5,145.5C 385.318,145.227 381.151,144.894 377,144.5C 375.612,139.628 375.112,134.628 375.5,129.5 Z"/></g>
<g><path style="opacity:1" fill="#e5e5e5" d="M 427.5,129.5 C 438.566,129.729 441.233,134.562 435.5,144C 426.942,147.429 422.776,144.596 423,135.5C 424.332,133.34 425.832,131.34 427.5,129.5 Z"/></g>
<g><path style="opacity:1" fill="#ebebeb" d="M 442.5,129.5 C 444.124,129.36 445.29,130.027 446,131.5C 447.789,129.771 449.956,129.104 452.5,129.5C 452.891,132.838 451.724,133.838 449,132.5C 447.739,132.759 446.739,133.426 446,134.5C 445.501,138.152 445.335,141.818 445.5,145.5C 444.5,145.5 443.5,145.5 442.5,145.5C 442.5,140.167 442.5,134.833 442.5,129.5 Z"/></g>
<g><path style="opacity:1" fill="#e4e4e4" d="M 472.5,129.5 C 475.85,129.335 479.183,129.502 482.5,130C 483,130.5 483.5,131 484,131.5C 484.499,136.155 484.666,140.821 484.5,145.5C 480.986,145.236 477.319,145.069 473.5,145C 470.9,142.541 470.9,140.041 473.5,137.5C 475.851,135.771 478.518,135.104 481.5,135.5C 481.64,133.876 480.973,132.71 479.5,132C 477.153,131.666 474.819,131.833 472.5,132.5C 472.5,131.5 472.5,130.5 472.5,129.5 Z"/></g>
<g><path style="opacity:1" fill="#ededed" d="M 504.5,129.5 C 505.5,129.5 506.5,129.5 507.5,129.5C 507.5,134.833 507.5,140.167 507.5,145.5C 506.5,145.5 505.5,145.5 504.5,145.5C 504.5,140.167 504.5,134.833 504.5,129.5 Z"/></g>
<g><path style="opacity:1" fill="#373737" d="M 294.5,131.5 C 301.225,132.07 303.058,135.403 300,141.5C 295.085,144.792 292.585,143.459 292.5,137.5C 292.676,135.215 293.343,133.215 294.5,131.5 Z"/></g>
<g><path style="opacity:1" fill="#363636" d="M 428.5,131.5 C 436.103,132.956 437.436,136.789 432.5,143C 430.299,143.825 428.466,143.325 427,141.5C 426.037,137.851 426.537,134.518 428.5,131.5 Z"/></g>
<g><path style="opacity:1" fill="#373737" d="M 459.5,131.5 C 466.225,132.07 468.058,135.403 465,141.5C 460.085,144.792 457.585,143.459 457.5,137.5C 457.676,135.215 458.343,133.215 459.5,131.5 Z"/></g>
<g><path style="opacity:1" fill="#e3e3e3" d="M 493.5,129.5 C 495.833,129.5 498.167,129.5 500.5,129.5C 500.578,132.487 499.411,133.153 497,131.5C 493.645,131.852 492.145,133.686 492.5,137C 492.654,142.573 495.32,144.406 500.5,142.5C 501.386,143.325 501.719,144.325 501.5,145.5C 494.581,146.899 490.248,144.232 488.5,137.5C 489.366,134.308 491.032,131.641 493.5,129.5 Z"/></g>
<g><path style="opacity:1" fill="#343434" d="M 334.5,135.5 C 337.271,135.421 339.937,135.921 342.5,137C 343.833,138.667 343.833,140.333 342.5,142C 339.937,143.079 337.271,143.579 334.5,143.5C 334.5,140.833 334.5,138.167 334.5,135.5 Z"/></g>
<g><path style="opacity:1" fill="#363636" d="M 478.5,137.5 C 479.5,137.5 480.5,137.5 481.5,137.5C 482.036,140.865 480.703,142.865 477.5,143.5C 475.734,143.566 474.734,142.732 474.5,141C 475.347,139.229 476.68,138.063 478.5,137.5 Z"/></g>
<g><path style="opacity:1" fill="#f7f7f7" d="M 799.5,165.5 C 799.5,168.167 799.5,170.833 799.5,173.5C 789.43,173.737 784.096,178.903 783.5,189C 783.597,192.788 784.597,196.288 786.5,199.5C 783.833,199.5 781.167,199.5 778.5,199.5C 777.049,196.195 776.382,192.695 776.5,189C 777.557,174.776 785.224,166.942 799.5,165.5 Z"/></g>
<g><path style="opacity:1" fill="#323232" d="M 799.5,173.5 C 799.5,182.167 799.5,190.833 799.5,199.5C 795.167,199.5 790.833,199.5 786.5,199.5C 784.597,196.288 783.597,192.788 783.5,189C 784.096,178.903 789.43,173.737 799.5,173.5 Z"/></g>
</svg>
