<svg xmlns="http://www.w3.org/2000/svg" xmlns:xlink="http://www.w3.org/1999/xlink" width="800" height="200" version="1.1" style="shape-rendering:geometricPrecision;text-rendering:geometricPrecision;image-rendering:optimizeQuality;fill-rule:evenodd;clip-rule:evenodd"><g><path style="opacity:1" fill="#313131" d="M -0.5,-0.5 C 1.5,-0.5 3.5,-0.5 5.5,-0.5C 3.54845,0.784748 1.88178,2.45141 0.5,4.5C 1.39138,5.58957 2.39138,5.58957 3.5,4.5C 4.49329,9.11965 4.82662,13.7863 4.5,18.5C 5.5,18.5 6.5,18.5 7.5,18.5C 7.5,12.1667 7.5,5.83333 7.5,-0.5C 9.83333,-0.5 12.1667,-0.5 14.5,-0.5C 14.2756,3.17884 13.9422,6.8455 13.5,10.5C 16.5682,10.5467 19.5682,11.0467 22.5,12C 24.0363,15.24 23.703,18.24 21.5,21C 18.6697,21.869 16.003,23.0357 13.5,24.5C 22.8788,25.9534 27.3788,21.9534 27,12.5C 24.3027,9.12951 20.8027,7.79618 16.5,8.5C 16.5,6.16667 16.5,3.83333 16.5,1.5C 19.5176,1.70381 22.5176,2.03714 25.5,2.5C 25.5,1.5 25.5,0.5 25.5,-0.5C 32.5,-0.5 39.5,-0.5 46.5,-0.5C 44.5484,0.784748 42.8818,2.45141 41.5,4.5C 42.3914,5.58957 43.3914,5.58957 44.5,4.5C 45.4933,9.11965 45.8266,13.7863 45.5,18.5C 46.5,18.5 47.5,18.5 48.5,18.5C 48.5,12.1667 48.5,5.83333 48.5,-0.5C 50.5,-0.5 52.5,-0.5 54.5,-0.5C 56.3216,1.2343 58.6549,2.2343 61.5,2.5C 62.6474,4.76488 62.8141,7.09821 62,9.5C 51.6861,17.9081 53.5195,20.5747 67.5,17.5C 64.5535,16.6786 61.5535,16.1786 58.5,16C 64.0477,13.0628 66.5477,8.56283 66,2.5C 64.5913,1.21886 63.0913,0.218865 61.5,-0.5C 68.1667,-0.5 74.8333,-0.5 81.5,-0.5C 83.3216,1.2343 85.6549,2.2343 88.5,2.5C 89.6474,4.76488 89.8141,7.09821 89,9.5C 78.6861,17.9081 80.5195,20.5747 94.5,17.5C 91.5535,16.6786 88.5535,16.1786 85.5,16C 91.0477,13.0628 93.5477,8.56283 93,2.5C 91.5913,1.21886 90.0913,0.218865 88.5,-0.5C 93.5,-0.5 98.5,-0.5 103.5,-0.5C 97.3338,5.33545 97.0005,11.5021 102.5,18C 107.731,19.7238 111.565,18.2238 114,13.5C 115.504,8.01012 114.337,3.34345 110.5,-0.5C 113.167,-0.5 115.833,-0.5 118.5,-0.5C 120.322,1.2343 122.655,2.2343 125.5,2.5C 126.647,4.76488 126.814,7.09821 126,9.5C 115.686,17.9081 117.519,20.5747 131.5,17.5C 128.553,16.6786 125.553,16.1786 122.5,16C 128.048,13.0628 130.548,8.56283 130,2.5C 128.591,1.21886 127.091,0.218865 125.5,-0.5C 130.833,-0.5 136.167,-0.5 141.5,-0.5C 139.548,0.784748 137.882,2.45141 136.5,4.5C 137.391,5.58957 138.391,5.58957 139.5,4.5C 140.493,9.11965 140.827,13.7863 140.5,18.5C 141.5,18.5 142.5,18.5 143.5,18.5C 143.5,12.1667 143.5,5.83333 143.5,-0.5C 362.167,-0.5 580.833,-0.5 799.5,-0.5C 799.5,45.1667 799.5,90.8333 799.5,136.5C 796.161,136.11 792.827,135.61 789.5,135C 770.96,115.2 749.96,112.2 726.5,126C 717.258,133.314 711.758,142.814 710,154.5C 710.345,169.64 711.845,184.64 714.5,199.5C 476.167,199.5 237.833,199.5 -0.5,199.5C -0.5,132.833 -0.5,66.1667 -0.5,-0.5 Z"/></g><g><path style="opacity:1" fill="#eee" d="M 5.5,-0.5 C 6.16667,-0.5 6.83333,-0.5 7.5,-0.5C 7.5,5.83333 7.5,12.1667 7.5,18.5C 6.5,18.5 5.5,18.5 4.5,18.5C 4.82662,13.7863 4.49329,9.11965 3.5,4.5C 2.39138,5.58957 1.39138,5.58957 0.5,4.5C 1.88178,2.45141 3.54845,0.784748 5.5,-0.5 Z"/></g><g><path style="opacity:1" fill="#e6e6e6" d="M 14.5,-0.5 C 18.1667,-0.5 21.8333,-0.5 25.5,-0.5C 25.5,0.5 25.5,1.5 25.5,2.5C 22.5176,2.03714 19.5176,1.70381 16.5,1.5C 16.5,3.83333 16.5,6.16667 16.5,8.5C 20.8027,7.79618 24.3027,9.12951 27,12.5C 27.3788,21.9534 22.8788,25.9534 13.5,24.5C 16.003,23.0357 18.6697,21.869 21.5,21C 23.703,18.24 24.0363,15.24 22.5,12C 19.5682,11.0467 16.5682,10.5467 13.5,10.5C 13.9422,6.8455 14.2756,3.17884 14.5,-0.5 Z"/></g><g><path style="opacity:1" fill="#eee" d="M 46.5,-0.5 C 47.1667,-0.5 47.8333,-0.5 48.5,-0.5C 48.5,5.83333 48.5,12.1667 48.5,18.5C 47.5,18.5 46.5,18.5 45.5,18.5C 45.8266,13.7863 45.4933,9.11965 44.5,4.5C 43.3914,5.58957 42.3914,5.58957 41.5,4.5C 42.8818,2.45141 44.5484,0.784748 46.5,-0.5 Z"/></g><g><path style="opacity:1" fill="#eaeaea" d="M 54.5,-0.5 C 56.8333,-0.5 59.1667,-0.5 61.5,-0.5C 63.0913,0.218865 64.5913,1.21886 66,2.5C 66.5477,8.56283 64.0477,13.0628 58.5,16C 61.5535,16.1786 64.5535,16.6786 67.5,17.5C 53.5195,20.5747 51.6861,17.9081 62,9.5C 62.8141,7.09821 62.6474,4.76488 61.5,2.5C 58.6549,2.2343 56.3216,1.2343 54.5,-0.5 Z"/></g><g><path style="opacity:1" fill="#eaeaea" d="M 81.5,-0.5 C 83.8333,-0.5 86.1667,-0.5 88.5,-0.5C 90.0913,0.218865 91.5913,1.21886 93,2.5C 93.5477,8.56283 91.0477,13.0628 85.5,16C 88.5535,16.1786 91.5535,16.6786 94.5,17.5C 80.5195,20.5747 78.6861,17.9081 89,9.5C 89.8141,7.09821 89.6474,4.76488 88.5,2.5C 85.6549,2.2343 83.3216,1.2343 81.5,-0.5 Z"/></g><g><path style="opacity:1" fill="#e4e4e4" d="M 103.5,-0.5 C 105.833,-0.5 108.167,-0.5 110.5,-0.5C 114.337,3.34345 115.504,8.01012 114,13.5C 111.565,18.2238 107.731,19.7238 102.5,18C 97.0005,11.5021 97.3338,5.33545 103.5,-0.5 Z"/></g><g><path style="opacity:1" fill="#eaeaea" d="M 118.5,-0.5 C 120.833,-0.5 123.167,-0.5 125.5,-0.5C 127.091,0.218865 128.591,1.21886 130,2.5C 130.548,8.56283 128.048,13.0628 122.5,16C 125.553,16.1786 128.553,16.6786 131.5,17.5C 117.519,20.5747 115.686,17.9081 126,9.5C 126.814,7.09821 126.647,4.76488 125.5,2.5C 122.655,2.2343 120.322,1.2343 118.5,-0.5 Z"/></g><g><path style="opacity:1" fill="#eee" d="M 141.5,-0.5 C 142.167,-0.5 142.833,-0.5 143.5,-0.5C 143.5,5.83333 143.5,12.1667 143.5,18.5C 142.5,18.5 141.5,18.5 140.5,18.5C 140.827,13.7863 140.493,9.11965 139.5,4.5C 138.391,5.58957 137.391,5.58957 136.5,4.5C 137.882,2.45141 139.548,0.784748 141.5,-0.5 Z"/></g><g><path style="opacity:1" fill="#343434" d="M 104.5,1.5 C 109.566,1.58263 111.899,4.24929 111.5,9.5C 111.494,12.8571 109.994,15.1905 107,16.5C 105.108,16.2231 103.775,15.2231 103,13.5C 101.994,9.19846 102.494,5.19846 104.5,1.5 Z"/></g><g><path style="opacity:1" fill="#f3f3f3" d="M 32.5,13.5 C 36.1612,13.3501 37.1612,14.8501 35.5,18C 31.7071,18.4866 30.7071,16.9866 32.5,13.5 Z"/></g><g><path style="opacity:1" fill="#f3f3f3" d="M 72.5,13.5 C 76.1612,13.3501 77.1612,14.8501 75.5,18C 71.7071,18.4866 70.7071,16.9866 72.5,13.5 Z"/></g><g><path style="opacity:1" fill="#e3e3e3" d="M 403.5,81.5 C 405.167,81.5 406.833,81.5 408.5,81.5C 408.5,93.1667 408.5,104.833 408.5,116.5C 406.833,116.5 405.167,116.5 403.5,116.5C 403.5,104.833 403.5,93.1667 403.5,81.5 Z"/></g><g><path style="opacity:1" fill="#ebebeb" d="M 481.5,82.5 C 485.909,81.899 487.242,83.5657 485.5,87.5C 480.732,88.8893 479.398,87.2226 481.5,82.5 Z"/></g><g><path style="opacity:1" fill="#fafafa" d="M 288.5,84.5 C 296.5,84.5 304.5,84.5 312.5,84.5C 312.5,85.5 312.5,86.5 312.5,87.5C 309.167,87.5 305.833,87.5 302.5,87.5C 302.5,97.1667 302.5,106.833 302.5,116.5C 301.167,116.5 299.833,116.5 298.5,116.5C 298.5,106.833 298.5,97.1667 298.5,87.5C 295.167,87.5 291.833,87.5 288.5,87.5C 288.5,86.5 288.5,85.5 288.5,84.5 Z"/></g><g><path style="opacity:1" fill="#f9f9f9" d="M 317.5,84.5 C 323.5,84.5 329.5,84.5 335.5,84.5C 335.5,85.5 335.5,86.5 335.5,87.5C 330.833,87.5 326.167,87.5 321.5,87.5C 321.5,91.5 321.5,95.5 321.5,99.5C 325.167,99.5 328.833,99.5 332.5,99.5C 332.5,100.5 332.5,101.5 332.5,102.5C 328.833,102.5 325.167,102.5 321.5,102.5C 321.5,107.167 321.5,111.833 321.5,116.5C 320.167,116.5 318.833,116.5 317.5,116.5C 317.5,105.833 317.5,95.1667 317.5,84.5 Z"/></g><g><path style="opacity:1" fill="#eaeaea" d="M 386.5,84.5 C 389.518,84.3354 392.518,84.502 395.5,85C 396.337,86.0113 396.67,87.1779 396.5,88.5C 382.317,86.5241 377.15,92.5241 381,106.5C 385.288,112.763 391.121,114.763 398.5,112.5C 398.5,113.833 398.5,115.167 398.5,116.5C 387.548,119.035 379.714,115.368 375,105.5C 373.664,95.4953 377.497,88.4953 386.5,84.5 Z"/></g><g><path style="opacity:1" fill="#efefef" d="M 340.5,90.5 C 345.734,89.8346 350.568,90.8346 355,93.5C 357.086,97.6665 356.753,101.667 354,105.5C 351.463,108.372 348.63,110.872 345.5,113C 349.755,113.796 353.921,113.629 358,112.5C 358.49,113.793 358.657,115.127 358.5,116.5C 352.5,116.5 346.5,116.5 340.5,116.5C 340.238,115.022 340.571,113.689 341.5,112.5C 347.153,109.685 350.486,105.185 351.5,99C 351.441,97.5643 351.108,96.231 350.5,95C 347.274,93.8011 343.941,93.3011 340.5,93.5C 340.5,92.5 340.5,91.5 340.5,90.5 Z"/></g><g><path style="opacity:1" fill="#f0f0f0" d="M 364.5,92.5 C 370.016,92.4734 371.349,94.64 368.5,99C 363.57,99.427 362.237,97.2604 364.5,92.5 Z"/></g><g><path style="opacity:1" fill="#ebebeb" d="M 415.5,92.5 C 419.846,92.3343 424.179,92.501 428.5,93C 429.416,93.3742 430.25,93.8742 431,94.5C 432.247,101.75 433.08,109.084 433.5,116.5C 431.234,116.859 429.401,116.192 428,114.5C 424.405,116.456 420.572,116.956 416.5,116C 412.231,111.291 412.564,106.958 417.5,103C 421.06,101.763 424.727,101.263 428.5,101.5C 428.714,99.8561 428.38,98.3561 427.5,97C 423.235,95.2649 418.901,95.0983 414.5,96.5C 414.433,95.0413 414.766,93.7079 415.5,92.5 Z"/></g><g><path style="opacity:1" fill="#e9e9e9" d="M 442.5,92.5 C 446.5,92.5 450.5,92.5 454.5,92.5C 454.5,93.8333 454.5,95.1667 454.5,96.5C 451.183,95.7791 447.849,95.6124 444.5,96C 443.167,97.6667 443.167,99.3333 444.5,101C 448.097,102.365 451.43,104.198 454.5,106.5C 456.326,110.526 455.326,113.693 451.5,116C 447.179,116.499 442.846,116.666 438.5,116.5C 438.5,115.167 438.5,113.833 438.5,112.5C 441.817,113.221 445.151,113.388 448.5,113C 451.346,112.121 452.013,110.454 450.5,108C 446.637,106.819 443.137,104.986 440,102.5C 438.11,98.5795 438.943,95.2462 442.5,92.5 Z"/></g><g><path style="opacity:1" fill="#e9e9e9" d="M 462.5,92.5 C 466.5,92.5 470.5,92.5 474.5,92.5C 474.5,93.8333 474.5,95.1667 474.5,96.5C 471.183,95.7791 467.849,95.6124 464.5,96C 463.167,97.6667 463.167,99.3333 464.5,101C 468.097,102.365 471.43,104.198 474.5,106.5C 476.326,110.526 475.326,113.693 471.5,116C 467.179,116.499 462.846,116.666 458.5,116.5C 458.5,115.167 458.5,113.833 458.5,112.5C 461.817,113.221 465.151,113.388 468.5,113C 471.346,112.121 472.013,110.454 470.5,108C 466.637,106.819 463.137,104.986 460,102.5C 458.11,98.5795 458.943,95.2462 462.5,92.5 Z"/></g><g><path style="opacity:1" fill="#e0e0e0" d="M 483.5,92.5 C 485.467,100.097 486.134,108.097 485.5,116.5C 483.833,116.5 482.167,116.5 480.5,116.5C 480.5,108.833 480.5,101.167 480.5,93.5C 481.791,93.7373 482.791,93.404 483.5,92.5 Z"/></g><g><path style="opacity:1" fill="#e9e9e9" d="M 498.5,92.5 C 501.833,92.5 505.167,92.5 508.5,92.5C 508.5,93.8333 508.5,95.1667 508.5,96.5C 498.303,94.1967 494.136,98.1967 496,108.5C 497.566,111.813 500.233,113.479 504,113.5C 505.825,113.057 507.658,112.723 509.5,112.5C 509.67,113.822 509.337,114.989 508.5,116C 501.676,117.945 496.176,116.112 492,110.5C 489.355,102.785 491.522,96.7851 498.5,92.5 Z"/></g><g><path style="opacity:1" fill="#333" d="M 424.5,104.5 C 425.833,104.5 427.167,104.5 428.5,104.5C 429.815,111.799 426.815,114.632 419.5,113C 417.041,110.911 417.041,108.745 419.5,106.5C 421.336,105.972 423.003,105.306 424.5,104.5 Z"/></g><g><path style="opacity:1" fill="#f0f0f0" d="M 364.5,109.5 C 370.016,109.473 371.349,111.64 368.5,116C 363.57,116.427 362.237,114.26 364.5,109.5 Z"/></g><g><path style="opacity:1" fill="#fdfdfd" d="M 799.5,136.5 C 799.5,153.5 799.5,170.5 799.5,187.5C 792.369,187.1 786.036,189.1 780.5,193.5C 779.628,195.45 778.961,197.45 778.5,199.5C 757.167,199.5 735.833,199.5 714.5,199.5C 711.845,184.64 710.345,169.64 710,154.5C 711.758,142.814 717.258,133.314 726.5,126C 749.96,112.2 770.96,115.2 789.5,135C 792.827,135.61 796.161,136.11 799.5,136.5 Z"/></g><g><path style="opacity:1" fill="#e3e3e3" d="M 306.5,128.5 C 306.5,130.833 306.5,133.167 306.5,135.5C 307.791,135.737 308.791,135.404 309.5,134.5C 316.063,134.589 318.563,137.922 317,144.5C 313.702,148.165 309.535,149.498 304.5,148.5C 303.874,141.416 304.541,134.75 306.5,128.5 Z"/></g><g><path style="opacity:1" fill="#e2e2e2" d="M 372.5,128.5 C 373.5,128.5 374.5,128.5 375.5,128.5C 375.5,135.167 375.5,141.833 375.5,148.5C 374.5,148.5 373.5,148.5 372.5,148.5C 372.5,141.833 372.5,135.167 372.5,128.5 Z"/></g><g><path style="opacity:1" fill="#ececec" d="M 448.5,128.5 C 450.197,130.305 451.03,132.639 451,135.5C 458.529,133.695 461.529,136.695 460,144.5C 459.535,145.931 458.701,147.097 457.5,148C 454.668,148.212 452.002,148.379 449.5,148.5C 448.503,141.866 448.17,135.2 448.5,128.5 Z"/></g><g><path style="opacity:1" fill="#9b9b9b" d="M 306.5,128.5 C 306.94,130.844 307.94,132.844 309.5,134.5C 308.791,135.404 307.791,135.737 306.5,135.5C 306.5,133.167 306.5,130.833 306.5,128.5 Z"/></g><g><path style="opacity:1" fill="#f0f0f0" d="M 341.5,129.5 C 345.394,129.11 349.06,129.777 352.5,131.5C 353.975,134.245 353.309,136.412 350.5,138C 355.719,141.189 355.719,144.522 350.5,148C 347.518,148.498 344.518,148.665 341.5,148.5C 341.5,142.167 341.5,135.833 341.5,129.5 Z"/></g><g><path style="opacity:1" fill="#dbdbdb" d="M 491.5,129.5 C 492.978,129.238 494.311,129.571 495.5,130.5C 494.68,132.111 493.346,132.778 491.5,132.5C 491.5,131.5 491.5,130.5 491.5,129.5 Z"/></g><g><path style="opacity:1" fill="#f3f3f3" d="M 396.5,130.5 C 398.176,131.183 398.843,132.517 398.5,134.5C 403.833,135.167 403.833,135.833 398.5,136.5C 398.335,139.518 398.502,142.518 399,145.5C 400.509,146.09 402.009,146.756 403.5,147.5C 401.051,148.91 398.884,148.576 397,146.5C 396.502,143.183 396.335,139.85 396.5,136.5C 392.5,135.833 392.5,135.167 396.5,134.5C 396.5,133.167 396.5,131.833 396.5,130.5 Z"/></g><g><path style="opacity:1" fill="#323232" d="M 343.5,131.5 C 346.38,131.033 348.713,131.866 350.5,134C 349.046,136.728 346.712,137.894 343.5,137.5C 343.5,135.5 343.5,133.5 343.5,131.5 Z"/></g><g><path style="opacity:1" fill="#e1e1e1" d="M 319.5,134.5 C 320.675,134.281 321.675,134.614 322.5,135.5C 323.383,138.325 324.55,140.992 326,143.5C 326.834,140.828 327.668,138.161 328.5,135.5C 329.365,134.417 330.365,134.251 331.5,135C 328.942,140.673 326.775,146.507 325,152.5C 323.759,154.421 322.259,154.754 320.5,153.5C 322.318,152.176 323.318,150.343 323.5,148C 322.586,143.348 321.252,138.848 319.5,134.5 Z"/></g><g><path style="opacity:1" fill="#dfdfdf" d="M 357.5,134.5 C 358.5,134.5 359.5,134.5 360.5,134.5C 360.335,138.182 360.501,141.848 361,145.5C 362.458,146.747 363.958,146.747 365.5,145.5C 366.489,141.893 366.823,138.226 366.5,134.5C 367.5,134.5 368.5,134.5 369.5,134.5C 369.5,139.167 369.5,143.833 369.5,148.5C 366.316,148.167 362.982,148 359.5,148C 359,147.5 358.5,147 358,146.5C 357.501,142.514 357.334,138.514 357.5,134.5 Z"/></g><g><path style="opacity:1" fill="#dfdfdf" d="M 379.5,134.5 C 380.5,134.5 381.5,134.5 382.5,134.5C 382.335,138.182 382.501,141.848 383,145.5C 384.458,146.747 385.958,146.747 387.5,145.5C 388.489,141.893 388.823,138.226 388.5,134.5C 389.5,134.5 390.5,134.5 391.5,134.5C 391.5,139.167 391.5,143.833 391.5,148.5C 388.316,148.167 384.982,148 381.5,148C 381,147.5 380.5,147 380,146.5C 379.501,142.514 379.334,138.514 379.5,134.5 Z"/></g><g><path style="opacity:1" fill="#e2e2e2" d="M 410.5,129.5 C 412.833,129.5 415.167,129.5 417.5,129.5C 417.578,132.487 416.411,133.153 414,131.5C 406.398,135.085 405.565,139.918 411.5,146C 413.568,146.687 415.568,146.52 417.5,145.5C 418.386,146.325 418.719,147.325 418.5,148.5C 409.053,149.881 404.553,145.881 405,136.5C 405.967,133.379 407.8,131.046 410.5,129.5 Z"/></g><g><path style="opacity:1" fill="#e1e1e1" d="M 437.5,134.5 C 440.415,134.746 443.415,135.079 446.5,135.5C 444.892,136.318 443.225,136.985 441.5,137.5C 440.511,141.107 440.177,144.774 440.5,148.5C 439.5,148.5 438.5,148.5 437.5,148.5C 437.5,143.833 437.5,139.167 437.5,134.5 Z"/></g><g><path style="opacity:1" fill="#ededed" d="M 464.5,134.5 C 467.881,134.46 471.214,134.793 474.5,135.5C 474.826,139.884 474.492,144.217 473.5,148.5C 472.005,147.888 470.338,147.888 468.5,148.5C 462.841,147.355 462.174,144.855 466.5,141C 468.577,140.808 470.577,140.308 472.5,139.5C 470.857,136.505 468.523,135.839 465.5,137.5C 464.614,136.675 464.281,135.675 464.5,134.5 Z"/></g><g><path style="opacity:1" fill="#343434" d="M 308.5,136.5 C 314.191,136.554 315.858,139.221 313.5,144.5C 311.878,146.439 310.044,146.772 308,145.5C 307.264,142.408 307.431,139.408 308.5,136.5 Z"/></g><g><path style="opacity:1" fill="#333" d="M 452.5,136.5 C 455.83,136.163 457.496,137.663 457.5,141C 457.437,145.745 455.27,147.245 451,145.5C 450.094,142.156 450.594,139.156 452.5,136.5 Z"/></g><g><path style="opacity:1" fill="#e8e8e8" d="M 424.5,134.5 C 432.33,133.495 435.496,136.828 434,144.5C 429.571,149.808 425.237,149.808 421,144.5C 420.182,140.469 421.349,137.136 424.5,134.5 Z"/></g><g><path style="opacity:1" fill="#383838" d="M 425.5,136.5 C 430.989,136.504 432.822,139.171 431,144.5C 428.16,147.371 425.826,147.037 424,143.5C 423.167,140.829 423.667,138.496 425.5,136.5 Z"/></g><g><path style="opacity:1" fill="#e3e3e3" d="M 481.5,134.5 C 483.833,134.5 486.167,134.5 488.5,134.5C 488.719,135.675 488.386,136.675 487.5,137.5C 483.798,136.017 481.465,137.184 480.5,141C 480.977,145.566 483.311,147.066 487.5,145.5C 488.386,146.325 488.719,147.325 488.5,148.5C 477.147,148.172 474.814,143.505 481.5,134.5 Z"/></g><g><path style="opacity:1" fill="#d8d8d8" d="M 491.5,134.5 C 492.5,134.5 493.5,134.5 494.5,134.5C 494.5,139.167 494.5,143.833 494.5,148.5C 493.5,148.5 492.5,148.5 491.5,148.5C 491.5,143.833 491.5,139.167 491.5,134.5 Z"/></g><g><path style="opacity:1" fill="#343434" d="M 343.5,139.5 C 347.07,138.893 349.737,140.06 351.5,143C 349.737,145.94 347.07,147.107 343.5,146.5C 343.5,144.167 343.5,141.833 343.5,139.5 Z"/></g><g><path style="opacity:1" fill="#373737" d="M 468.5,142.5 C 469.833,142.5 471.167,142.5 472.5,142.5C 471.969,145.779 469.969,147.113 466.5,146.5C 466.527,144.801 467.194,143.467 468.5,142.5 Z"/></g><g><path style="opacity:1" fill="#393939" d="M 744.5,132.5 C 758.709,131.543 767.876,137.877 772,151.5C 771.765,171.868 761.599,180.368 741.5,177C 729.826,171.975 724.992,163.142 727,150.5C 729.683,141.318 735.517,135.318 744.5,132.5 Z"/></g><g><path style="opacity:1" fill="#f9f9f9" d="M 745.5,136.5 C 757.502,135.749 765.336,141.082 769,152.5C 768.823,170.002 759.99,177.502 742.5,175C 729.672,167.85 726.506,157.683 733,144.5C 736.586,140.714 740.753,138.047 745.5,136.5 Z"/></g><g><path style="opacity:1" fill="#323232" d="M 745.5,140.5 C 748.119,140.232 750.619,140.565 753,141.5C 753.498,144.817 753.665,148.15 753.5,151.5C 757.182,151.335 760.848,151.501 764.5,152C 765.833,154.667 765.833,157.333 764.5,160C 760.848,160.499 757.182,160.665 753.5,160.5C 753.665,164.182 753.499,167.848 753,171.5C 750.084,173.013 747.418,172.68 745,170.5C 744.502,167.183 744.335,163.85 744.5,160.5C 741.15,160.665 737.817,160.498 734.5,160C 732.987,157.084 733.32,154.418 735.5,152C 738.482,151.502 741.482,151.335 744.5,151.5C 744.244,147.731 744.577,144.064 745.5,140.5 Z"/></g><g><path style="opacity:1" fill="#323232" d="M 799.5,187.5 C 799.5,191.5 799.5,195.5 799.5,199.5C 792.5,199.5 785.5,199.5 778.5,199.5C 778.961,197.45 779.628,195.45 780.5,193.5C 786.036,189.1 792.369,187.1 799.5,187.5 Z"/></g></svg>