<?xml version="1.0" encoding="UTF-8"?>
<!DOCTYPE svg PUBLIC "-//W3C//DTD SVG 1.1//EN" "http://www.w3.org/Graphics/SVG/1.1/DTD/svg11.dtd">
<svg xmlns="http://www.w3.org/2000/svg" version="1.1" width="800px" height="200px" style="shape-rendering:geometricPrecision; text-rendering:geometricPrecision; image-rendering:optimizeQuality; fill-rule:evenodd; clip-rule:evenodd" xmlns:xlink="http://www.w3.org/1999/xlink">
<g><path style="opacity:1" fill="#313131" d="M -0.5,-0.5 C 1.5,-0.5 3.5,-0.5 5.5,-0.5C 0.577442,4.65726 0.244109,10.1573 4.5,16C 13.6622,16.8273 17.1622,12.6606 15,3.5C 14.3378,2.01608 13.5045,0.682751 12.5,-0.5C 14.5,-0.5 16.5,-0.5 18.5,-0.5C 21.3373,1.40229 24.6707,2.06896 28.5,1.5C 26.3362,8.16372 23.3362,14.4971 19.5,20.5C 20.365,21.5827 21.365,21.7494 22.5,21C 26.7715,14.2995 29.7715,7.13279 31.5,-0.5C 36.8333,-0.5 42.1667,-0.5 47.5,-0.5C 42.5774,4.65726 42.2441,10.1573 46.5,16C 55.6622,16.8273 59.1622,12.6606 57,3.5C 56.3378,2.01608 55.5045,0.682751 54.5,-0.5C 58.5,-0.5 62.5,-0.5 66.5,-0.5C 65.0603,1.38794 63.3936,3.05461 61.5,4.5C 62.4246,5.56236 63.4246,5.56236 64.5,4.5C 65.1667,8.5 65.8333,12.5 66.5,16.5C 68.45,11.2649 69.1167,5.59821 68.5,-0.5C 73.1667,-0.5 77.8333,-0.5 82.5,-0.5C 91.517,3.02292 91.8503,7.68958 83.5,13.5C 82.6143,14.325 82.281,15.325 82.5,16.5C 86.5546,16.8242 90.5546,16.4909 94.5,15.5C 91.5535,14.6786 88.5535,14.1786 85.5,14C 91.252,11.6067 93.4187,7.44007 92,1.5C 90.6976,0.915201 89.531,0.248534 88.5,-0.5C 92.8333,-0.5 97.1667,-0.5 101.5,-0.5C 96.5774,4.65726 96.2441,10.1573 100.5,16C 109.662,16.8273 113.162,12.6606 111,3.5C 110.338,2.01608 109.504,0.682751 108.5,-0.5C 111.167,-0.5 113.833,-0.5 116.5,-0.5C 125.517,3.02292 125.85,7.68958 117.5,13.5C 116.614,14.325 116.281,15.325 116.5,16.5C 120.555,16.8242 124.555,16.4909 128.5,15.5C 125.553,14.6786 122.553,14.1786 119.5,14C 125.252,11.6067 127.419,7.44007 126,1.5C 124.698,0.915201 123.531,0.248534 122.5,-0.5C 125.5,-0.5 128.5,-0.5 131.5,-0.5C 140.517,3.02292 140.85,7.68958 132.5,13.5C 131.614,14.325 131.281,15.325 131.5,16.5C 135.555,16.8242 139.555,16.4909 143.5,15.5C 140.553,14.6786 137.553,14.1786 134.5,14C 140.252,11.6067 142.419,7.44007 141,1.5C 139.698,0.915201 138.531,0.248534 137.5,-0.5C 358.167,-0.5 578.833,-0.5 799.5,-0.5C 799.5,32.8333 799.5,66.1667 799.5,99.5C 793.167,99.5 786.833,99.5 780.5,99.5C 780.5,107.833 780.5,116.167 780.5,124.5C 775.967,125.568 771.634,127.234 767.5,129.5C 761.515,124.015 755.681,118.348 750,112.5C 740.951,121.047 732.451,130.047 724.5,139.5C 729.28,145.783 734.613,151.616 740.5,157C 738.117,161.26 736.451,165.76 735.5,170.5C 727.5,170.5 719.5,170.5 711.5,170.5C 711.5,180.167 711.5,189.833 711.5,199.5C 474.167,199.5 236.833,199.5 -0.5,199.5C -0.5,132.833 -0.5,66.1667 -0.5,-0.5 Z"/></g>
<g><path style="opacity:1" fill="#e8e8e8" d="M 5.5,-0.5 C 7.83333,-0.5 10.1667,-0.5 12.5,-0.5C 13.5045,0.682751 14.3378,2.01608 15,3.5C 17.1622,12.6606 13.6622,16.8273 4.5,16C 0.244109,10.1573 0.577442,4.65726 5.5,-0.5 Z"/></g>
<g><path style="opacity:1" fill="#e8e8e8" d="M 47.5,-0.5 C 49.8333,-0.5 52.1667,-0.5 54.5,-0.5C 55.5045,0.682751 56.3378,2.01608 57,3.5C 59.1622,12.6606 55.6622,16.8273 46.5,16C 42.2441,10.1573 42.5774,4.65726 47.5,-0.5 Z"/></g>
<g><path style="opacity:1" fill="#f6f6f6" d="M 66.5,-0.5 C 67.1667,-0.5 67.8333,-0.5 68.5,-0.5C 69.1167,5.59821 68.45,11.2649 66.5,16.5C 66.8256,12.1161 66.4922,7.7828 65.5,3.5C 64.8933,3.62358 64.56,3.95691 64.5,4.5C 63.4246,5.56236 62.4246,5.56236 61.5,4.5C 63.3936,3.05461 65.0603,1.38794 66.5,-0.5 Z"/></g>
<g><path style="opacity:1" fill="#e8e8e8" d="M 101.5,-0.5 C 103.833,-0.5 106.167,-0.5 108.5,-0.5C 109.504,0.682751 110.338,2.01608 111,3.5C 113.162,12.6606 109.662,16.8273 100.5,16C 96.2441,10.1573 96.5774,4.65726 101.5,-0.5 Z"/></g>
<g><path style="opacity:1" fill="#363636" d="M 6.5,1.5 C 8.58236,1.47199 10.4157,2.13865 12,3.5C 12.6667,6.5 12.6667,9.5 12,12.5C 9.32123,15.1715 6.9879,14.8382 5,11.5C 4.03704,7.85132 4.53704,4.51798 6.5,1.5 Z"/></g>
<g><path style="opacity:1" fill="#363636" d="M 48.5,1.5 C 50.5824,1.47199 52.4157,2.13865 54,3.5C 54.6667,6.5 54.6667,9.5 54,12.5C 51.3212,15.1715 48.9879,14.8382 47,11.5C 46.037,7.85132 46.537,4.51798 48.5,1.5 Z"/></g>
<g><path style="opacity:1" fill="#363636" d="M 102.5,1.5 C 104.582,1.47199 106.416,2.13865 108,3.5C 108.667,6.5 108.667,9.5 108,12.5C 105.321,15.1715 102.988,14.8382 101,11.5C 100.037,7.85132 100.537,4.51798 102.5,1.5 Z"/></g>
<g><path style="opacity:1" fill="#e6e6e6" d="M 18.5,-0.5 C 22.8333,-0.5 27.1667,-0.5 31.5,-0.5C 29.7715,7.13279 26.7715,14.2995 22.5,21C 21.365,21.7494 20.365,21.5827 19.5,20.5C 23.3362,14.4971 26.3362,8.16372 28.5,1.5C 24.6707,2.06896 21.3373,1.40229 18.5,-0.5 Z"/></g>
<g><path style="opacity:1" fill="#878787" d="M 64.5,4.5 C 64.56,3.95691 64.8933,3.62358 65.5,3.5C 66.4922,7.7828 66.8256,12.1161 66.5,16.5C 65.8333,12.5 65.1667,8.5 64.5,4.5 Z"/></g>
<g><path style="opacity:1" fill="#efefef" d="M 36.5,12.5 C 37.5,12.5 38.5,12.5 39.5,12.5C 39.5,13.8333 39.5,15.1667 39.5,16.5C 38.1667,16.5 36.8333,16.5 35.5,16.5C 35.4326,15.0413 35.7659,13.7079 36.5,12.5 Z"/></g>
<g><path style="opacity:1" fill="#efefef" d="M 74.5,12.5 C 75.5,12.5 76.5,12.5 77.5,12.5C 77.5,13.8333 77.5,15.1667 77.5,16.5C 76.1667,16.5 74.8333,16.5 73.5,16.5C 73.4326,15.0413 73.7659,13.7079 74.5,12.5 Z"/></g>
<g><path style="opacity:1" fill="#f2f2f2" d="M 82.5,-0.5 C 84.5,-0.5 86.5,-0.5 88.5,-0.5C 89.531,0.248534 90.6976,0.915201 92,1.5C 93.4187,7.44007 91.252,11.6067 85.5,14C 88.5535,14.1786 91.5535,14.6786 94.5,15.5C 90.5546,16.4909 86.5546,16.8242 82.5,16.5C 82.281,15.325 82.6143,14.325 83.5,13.5C 91.8503,7.68958 91.517,3.02292 82.5,-0.5 Z"/></g>
<g><path style="opacity:1" fill="#f2f2f2" d="M 116.5,-0.5 C 118.5,-0.5 120.5,-0.5 122.5,-0.5C 123.531,0.248534 124.698,0.915201 126,1.5C 127.419,7.44007 125.252,11.6067 119.5,14C 122.553,14.1786 125.553,14.6786 128.5,15.5C 124.555,16.4909 120.555,16.8242 116.5,16.5C 116.281,15.325 116.614,14.325 117.5,13.5C 125.85,7.68958 125.517,3.02292 116.5,-0.5 Z"/></g>
<g><path style="opacity:1" fill="#f2f2f2" d="M 131.5,-0.5 C 133.5,-0.5 135.5,-0.5 137.5,-0.5C 138.531,0.248534 139.698,0.915201 141,1.5C 142.419,7.44007 140.252,11.6067 134.5,14C 137.553,14.1786 140.553,14.6786 143.5,15.5C 139.555,16.4909 135.555,16.8242 131.5,16.5C 131.281,15.325 131.614,14.325 132.5,13.5C 140.85,7.68958 140.517,3.02292 131.5,-0.5 Z"/></g>
<g><path style="opacity:1" fill="#f0f0f0" d="M 391.5,81.5 C 392.833,81.5 394.167,81.5 395.5,81.5C 395.5,93.1667 395.5,104.833 395.5,116.5C 393.549,116.773 392.049,116.107 391,114.5C 383,118.726 377.333,116.726 374,108.5C 372.654,101.875 374.82,96.7088 380.5,93C 384.203,92.4213 387.869,92.588 391.5,93.5C 391.5,89.5 391.5,85.5 391.5,81.5 Z"/></g>
<g><path style="opacity:1" fill="#e3e3e3" d="M 517.5,81.5 C 519.167,81.5 520.833,81.5 522.5,81.5C 522.5,93.1667 522.5,104.833 522.5,116.5C 520.833,116.5 519.167,116.5 517.5,116.5C 517.5,104.833 517.5,93.1667 517.5,81.5 Z"/></g>
<g><path style="opacity:1" fill="#e3e3e3" d="M 529.5,81.5 C 531.167,81.5 532.833,81.5 534.5,81.5C 534.5,93.1667 534.5,104.833 534.5,116.5C 532.833,116.5 531.167,116.5 529.5,116.5C 529.5,104.833 529.5,93.1667 529.5,81.5 Z"/></g>
<g><path style="opacity:1" fill="#fafafa" d="M 218.5,84.5 C 226.5,84.5 234.5,84.5 242.5,84.5C 242.5,85.5 242.5,86.5 242.5,87.5C 239.167,87.5 235.833,87.5 232.5,87.5C 232.5,97.1667 232.5,106.833 232.5,116.5C 231.167,116.5 229.833,116.5 228.5,116.5C 228.5,106.833 228.5,97.1667 228.5,87.5C 225.167,87.5 221.833,87.5 218.5,87.5C 218.5,86.5 218.5,85.5 218.5,84.5 Z"/></g>
<g><path style="opacity:1" fill="#f9f9f9" d="M 247.5,84.5 C 253.5,84.5 259.5,84.5 265.5,84.5C 265.5,85.5 265.5,86.5 265.5,87.5C 260.833,87.5 256.167,87.5 251.5,87.5C 251.5,91.5 251.5,95.5 251.5,99.5C 255.167,99.5 258.833,99.5 262.5,99.5C 262.5,100.5 262.5,101.5 262.5,102.5C 258.833,102.5 255.167,102.5 251.5,102.5C 251.5,107.167 251.5,111.833 251.5,116.5C 250.167,116.5 248.833,116.5 247.5,116.5C 247.5,105.833 247.5,95.1667 247.5,84.5 Z"/></g>
<g><path style="opacity:1" fill="#ececec" d="M 334.5,96.5 C 334.664,93.8127 334.497,91.146 334,88.5C 332.961,89.2438 332.461,90.2438 332.5,91.5C 329.542,99.7467 326.876,108.08 324.5,116.5C 322.856,116.714 321.356,116.38 320,115.5C 317.592,107.445 315.092,99.4449 312.5,91.5C 312.539,90.2438 312.039,89.2438 311,88.5C 310.505,90.4727 310.338,92.4727 310.5,94.5C 309.882,101.817 309.549,109.151 309.5,116.5C 308.167,116.5 306.833,116.5 305.5,116.5C 306.24,105.838 306.907,95.1716 307.5,84.5C 310.167,84.5 312.833,84.5 315.5,84.5C 316.888,92.8323 319.388,100.832 323,108.5C 325.833,100.833 328.667,93.1667 331.5,85.5C 333.743,84.5258 336.076,84.1924 338.5,84.5C 338.835,95.1894 339.502,105.856 340.5,116.5C 338.833,116.5 337.167,116.5 335.5,116.5C 335.167,109.833 334.833,103.167 334.5,96.5 Z"/></g>
<g><path style="opacity:1" fill="#fdfdfd" d="M 415.5,84.5 C 416.833,84.5 418.167,84.5 419.5,84.5C 419.5,95.1667 419.5,105.833 419.5,116.5C 418.167,116.5 416.833,116.5 415.5,116.5C 415.5,105.833 415.5,95.1667 415.5,84.5 Z"/></g>
<g><path style="opacity:1" fill="#f2f2f2" d="M 479.5,85.5 C 481.344,87.2789 482.01,89.6122 481.5,92.5C 483.833,92.5 486.167,92.5 488.5,92.5C 488.5,93.5 488.5,94.5 488.5,95.5C 486.167,95.5 483.833,95.5 481.5,95.5C 481.242,100.717 481.575,105.884 482.5,111C 484.287,113.134 486.62,113.967 489.5,113.5C 489.5,114.5 489.5,115.5 489.5,116.5C 486.482,116.665 483.482,116.498 480.5,116C 480,115.5 479.5,115 479,114.5C 477.584,108.285 477.084,101.952 477.5,95.5C 476.167,95.5 474.833,95.5 473.5,95.5C 473.5,94.5 473.5,93.5 473.5,92.5C 474.833,92.5 476.167,92.5 477.5,92.5C 478.268,90.2854 478.935,87.9521 479.5,85.5 Z"/></g>
<g><path style="opacity:1" fill="#a6a6a6" d="M 479.5,85.5 C 478.935,87.9521 478.268,90.2854 477.5,92.5C 476.99,89.6122 477.656,87.2789 479.5,85.5 Z"/></g>
<g><path style="opacity:1" fill="#a2a2a2" d="M 312.5,91.5 C 311.833,92.5 311.167,93.5 310.5,94.5C 310.338,92.4727 310.505,90.4727 311,88.5C 312.039,89.2438 312.539,90.2438 312.5,91.5 Z"/></g>
<g><path style="opacity:1" fill="#efefef" d="M 270.5,90.5 C 275.734,89.8346 280.568,90.8346 285,93.5C 287.086,97.6665 286.753,101.667 284,105.5C 281.463,108.372 278.63,110.872 275.5,113C 279.755,113.796 283.921,113.629 288,112.5C 288.49,113.793 288.657,115.127 288.5,116.5C 282.5,116.5 276.5,116.5 270.5,116.5C 270.238,115.022 270.571,113.689 271.5,112.5C 277.153,109.685 280.486,105.185 281.5,99C 281.441,97.5643 281.108,96.231 280.5,95C 277.274,93.8011 273.941,93.3011 270.5,93.5C 270.5,92.5 270.5,91.5 270.5,90.5 Z"/></g>
<g><path style="opacity:1" fill="#ebebeb" d="M 354.5,92.5 C 368.604,92.0957 373.104,98.4291 368,111.5C 361.953,117.728 355.62,118.062 349,112.5C 344.642,104.079 346.476,97.4122 354.5,92.5 Z"/></g>
<g><path style="opacity:1" fill="#e9e9e9" d="M 426.5,92.5 C 429.044,92.1043 431.211,92.771 433,94.5C 438.599,91.3057 443.599,91.9724 448,96.5C 448.5,103.158 448.666,109.825 448.5,116.5C 446.833,116.5 445.167,116.5 443.5,116.5C 444.332,110.516 444.499,104.516 444,98.5C 440.641,94.9115 436.974,94.5782 433,97.5C 432.5,103.825 432.334,110.158 432.5,116.5C 430.833,116.5 429.167,116.5 427.5,116.5C 427.77,108.445 427.437,100.445 426.5,92.5 Z"/></g>
<g><path style="opacity:1" fill="#e9e9e9" d="M 457.5,92.5 C 461.5,92.5 465.5,92.5 469.5,92.5C 469.5,93.8333 469.5,95.1667 469.5,96.5C 466.183,95.7791 462.849,95.6124 459.5,96C 458.167,97.6667 458.167,99.3333 459.5,101C 463.097,102.365 466.43,104.198 469.5,106.5C 471.326,110.526 470.326,113.693 466.5,116C 462.179,116.499 457.846,116.666 453.5,116.5C 453.5,115.167 453.5,113.833 453.5,112.5C 456.817,113.221 460.151,113.388 463.5,113C 466.346,112.121 467.013,110.454 465.5,108C 461.637,106.819 458.137,104.986 455,102.5C 453.11,98.5795 453.943,95.2462 457.5,92.5 Z"/></g>
<g><path style="opacity:1" fill="#ebebeb" d="M 494.5,92.5 C 498.846,92.3343 503.179,92.501 507.5,93C 508.416,93.3742 509.25,93.8742 510,94.5C 511.247,101.75 512.08,109.084 512.5,116.5C 510.234,116.859 508.401,116.192 507,114.5C 503.405,116.456 499.572,116.956 495.5,116C 491.231,111.291 491.564,106.958 496.5,103C 500.06,101.763 503.727,101.263 507.5,101.5C 507.714,99.8561 507.38,98.3561 506.5,97C 502.235,95.2649 497.901,95.0983 493.5,96.5C 493.433,95.0413 493.766,93.7079 494.5,92.5 Z"/></g>
<g><path style="opacity:1" fill="#efefef" d="M 546.5,92.5 C 556.67,91.0049 561.336,95.3382 560.5,105.5C 555.167,105.5 549.833,105.5 544.5,105.5C 544.544,109.09 546.211,111.59 549.5,113C 553.188,113.45 556.854,113.283 560.5,112.5C 560.67,113.822 560.337,114.989 559.5,116C 552.007,118.057 545.84,116.223 541,110.5C 538.317,103.053 540.15,97.0531 546.5,92.5 Z"/></g>
<g><path style="opacity:1" fill="#e2e2e2" d="M 565.5,92.5 C 567.167,92.5 568.833,92.5 570.5,92.5C 570.351,93.552 570.517,94.552 571,95.5C 573.984,92.8999 577.484,91.8999 581.5,92.5C 582.101,96.909 580.434,98.2424 576.5,96.5C 574.813,96.7605 573.313,97.4272 572,98.5C 571.501,104.491 571.334,110.491 571.5,116.5C 569.833,116.5 568.167,116.5 566.5,116.5C 566.736,108.458 566.403,100.458 565.5,92.5 Z"/></g>
<g><path style="opacity:1" fill="#727272" d="M 334.5,96.5 C 333.833,94.8333 333.167,93.1667 332.5,91.5C 332.461,90.2438 332.961,89.2438 334,88.5C 334.497,91.146 334.664,93.8127 334.5,96.5 Z"/></g>
<g><path style="opacity:1" fill="#323232" d="M 356.5,95.5 C 362.713,95.5478 365.713,98.7144 365.5,105C 364.039,113.317 359.873,115.151 353,110.5C 350.206,104.408 351.373,99.4076 356.5,95.5 Z"/></g>
<g><path style="opacity:1" fill="#323232" d="M 384.5,95.5 C 386.936,95.317 389.103,95.9837 391,97.5C 391.667,102.167 391.667,106.833 391,111.5C 383.322,115.073 379.155,112.573 378.5,104C 378.451,99.5715 380.451,96.7382 384.5,95.5 Z"/></g>
<g><path style="opacity:1" fill="#363636" d="M 548.5,95.5 C 553.713,95.0867 556.38,97.42 556.5,102.5C 552.5,102.5 548.5,102.5 544.5,102.5C 544.571,99.3477 545.905,97.0144 548.5,95.5 Z"/></g>
<g><path style="opacity:1" fill="#f8f8f8" d="M 799.5,99.5 C 799.5,101.833 799.5,104.167 799.5,106.5C 795.5,106.5 791.5,106.5 787.5,106.5C 787.666,113.508 787.5,120.508 787,127.5C 786.167,128.333 785.333,129.167 784.5,130C 778.493,132.087 772.659,134.587 767,137.5C 760.751,133.257 755.085,128.257 750,122.5C 745,127.5 740,132.5 735,137.5C 734.333,138.5 734.333,139.5 735,140.5C 739,144.5 743,148.5 747,152.5C 748.373,154.695 748.706,157.029 748,159.5C 744.91,163.682 742.91,168.349 742,173.5C 740.833,174.667 739.667,175.833 738.5,177C 731.842,177.5 725.175,177.666 718.5,177.5C 718.5,184.833 718.5,192.167 718.5,199.5C 716.167,199.5 713.833,199.5 711.5,199.5C 711.5,189.833 711.5,180.167 711.5,170.5C 719.5,170.5 727.5,170.5 735.5,170.5C 736.451,165.76 738.117,161.26 740.5,157C 734.613,151.616 729.28,145.783 724.5,139.5C 732.451,130.047 740.951,121.047 750,112.5C 755.681,118.348 761.515,124.015 767.5,129.5C 771.634,127.234 775.967,125.568 780.5,124.5C 780.5,116.167 780.5,107.833 780.5,99.5C 786.833,99.5 793.167,99.5 799.5,99.5 Z"/></g>
<g><path style="opacity:1" fill="#333333" d="M 503.5,104.5 C 504.833,104.5 506.167,104.5 507.5,104.5C 508.815,111.799 505.815,114.632 498.5,113C 496.041,110.911 496.041,108.745 498.5,106.5C 500.336,105.972 502.003,105.306 503.5,104.5 Z"/></g>
<g><path style="opacity:1" fill="#323232" d="M 799.5,106.5 C 799.5,126.167 799.5,145.833 799.5,165.5C 785.224,166.942 777.557,174.776 776.5,189C 776.382,192.695 777.049,196.195 778.5,199.5C 758.5,199.5 738.5,199.5 718.5,199.5C 718.5,192.167 718.5,184.833 718.5,177.5C 725.175,177.666 731.842,177.5 738.5,177C 739.667,175.833 740.833,174.667 742,173.5C 742.91,168.349 744.91,163.682 748,159.5C 748.706,157.029 748.373,154.695 747,152.5C 743,148.5 739,144.5 735,140.5C 734.333,139.5 734.333,138.5 735,137.5C 740,132.5 745,127.5 750,122.5C 755.085,128.257 760.751,133.257 767,137.5C 772.659,134.587 778.493,132.087 784.5,130C 785.333,129.167 786.167,128.333 787,127.5C 787.5,120.508 787.666,113.508 787.5,106.5C 791.5,106.5 795.5,106.5 799.5,106.5 Z"/></g>
<g><path style="opacity:1" fill="#e8e8e8" d="M 289.5,122.5 C 290.5,122.5 291.5,122.5 292.5,122.5C 292.336,125.187 292.503,127.854 293,130.5C 301.418,128.584 305.084,131.917 304,140.5C 303.215,142.286 302.049,143.786 300.5,145C 296.681,145.069 293.014,145.236 289.5,145.5C 289.5,137.833 289.5,130.167 289.5,122.5 Z"/></g>
<g><path style="opacity:1" fill="#f1f1f1" d="M 368.5,122.5 C 369.5,122.5 370.5,122.5 371.5,122.5C 371.5,130.167 371.5,137.833 371.5,145.5C 370.5,145.5 369.5,145.5 368.5,145.5C 368.5,137.833 368.5,130.167 368.5,122.5 Z"/></g>
<g><path style="opacity:1" fill="#e8e8e8" d="M 454.5,122.5 C 455.5,122.5 456.5,122.5 457.5,122.5C 457.336,125.187 457.503,127.854 458,130.5C 466.418,128.584 470.084,131.917 469,140.5C 468.215,142.286 467.049,143.786 465.5,145C 461.681,145.069 458.014,145.236 454.5,145.5C 454.5,137.833 454.5,130.167 454.5,122.5 Z"/></g>
<g><path style="opacity:1" fill="#ececec" d="M 505.5,122.5 C 506.995,122.415 507.995,123.081 508.5,124.5C 507.68,126.111 506.346,126.778 504.5,126.5C 504.433,125.041 504.766,123.708 505.5,122.5 Z"/></g>
<g><path style="opacity:1" fill="#e8e8e8" d="M 331.5,124.5 C 335.182,124.335 338.848,124.501 342.5,125C 346.5,128 346.5,131 342.5,134C 347.975,138.007 347.642,141.674 341.5,145C 338.183,145.498 334.85,145.665 331.5,145.5C 331.5,138.5 331.5,131.5 331.5,124.5 Z"/></g>
<g><path style="opacity:1" fill="#e5e5e5" d="M 394.5,124.5 C 395.5,124.5 396.5,124.5 397.5,124.5C 397.5,126.167 397.5,127.833 397.5,129.5C 404.167,130.167 404.167,130.833 397.5,131.5C 397.335,134.85 397.502,138.183 398,141.5C 399.307,142.772 400.807,143.772 402.5,144.5C 399.23,146.214 396.73,145.548 395,142.5C 395.003,138.258 394.17,134.258 392.5,130.5C 394.104,128.821 394.771,126.821 394.5,124.5 Z"/></g>
<g><path style="opacity:1" fill="#313131" d="M 334.5,126.5 C 339.542,125.505 341.875,127.505 341.5,132.5C 339.194,132.993 336.861,133.326 334.5,133.5C 334.5,131.167 334.5,128.833 334.5,126.5 Z"/></g>
<g><path style="opacity:1" fill="#e4e4e4" d="M 411.5,124.5 C 414.167,124.5 416.833,124.5 419.5,124.5C 419.529,127.773 418.196,128.44 415.5,126.5C 408.956,128.031 406.789,132.031 409,138.5C 411.4,142.689 414.9,144.023 419.5,142.5C 420.386,143.325 420.719,144.325 420.5,145.5C 410.16,146.977 404.993,142.644 405,132.5C 406.305,129.039 408.471,126.372 411.5,124.5 Z"/></g>
<g><path style="opacity:1" fill="#dfdfdf" d="M 307.5,129.5 C 308.833,129.5 310.167,129.5 311.5,129.5C 313.943,142.629 315.943,142.629 317.5,129.5C 318.978,129.238 320.311,129.571 321.5,130.5C 318.184,137.277 315.35,144.277 313,151.5C 311.506,152.747 310.006,152.747 308.5,151.5C 312.314,148.813 313.48,145.147 312,140.5C 309.934,137.039 308.434,133.373 307.5,129.5 Z"/></g>
<g><path style="opacity:1" fill="#e4e4e4" d="M 350.5,129.5 C 351.5,129.5 352.5,129.5 353.5,129.5C 353.335,133.182 353.501,136.848 354,140.5C 355.36,143.551 357.527,144.218 360.5,142.5C 361.492,138.217 361.826,133.884 361.5,129.5C 362.5,129.5 363.5,129.5 364.5,129.5C 364.5,134.833 364.5,140.167 364.5,145.5C 360.318,145.227 356.151,144.894 352,144.5C 350.612,139.628 350.112,134.628 350.5,129.5 Z"/></g>
<g><path style="opacity:1" fill="#e4e4e4" d="M 375.5,129.5 C 376.5,129.5 377.5,129.5 378.5,129.5C 378.335,133.182 378.501,136.848 379,140.5C 380.36,143.551 382.527,144.218 385.5,142.5C 386.492,138.217 386.826,133.884 386.5,129.5C 387.5,129.5 388.5,129.5 389.5,129.5C 389.5,134.833 389.5,140.167 389.5,145.5C 385.318,145.227 381.151,144.894 377,144.5C 375.612,139.628 375.112,134.628 375.5,129.5 Z"/></g>
<g><path style="opacity:1" fill="#e5e5e5" d="M 427.5,129.5 C 438.566,129.729 441.233,134.562 435.5,144C 426.942,147.429 422.776,144.596 423,135.5C 424.332,133.34 425.832,131.34 427.5,129.5 Z"/></g>
<g><path style="opacity:1" fill="#ebebeb" d="M 442.5,129.5 C 444.124,129.36 445.29,130.027 446,131.5C 447.789,129.771 449.956,129.104 452.5,129.5C 452.891,132.838 451.724,133.838 449,132.5C 447.739,132.759 446.739,133.426 446,134.5C 445.501,138.152 445.335,141.818 445.5,145.5C 444.5,145.5 443.5,145.5 442.5,145.5C 442.5,140.167 442.5,134.833 442.5,129.5 Z"/></g>
<g><path style="opacity:1" fill="#e4e4e4" d="M 472.5,129.5 C 475.85,129.335 479.183,129.502 482.5,130C 483,130.5 483.5,131 484,131.5C 484.499,136.155 484.666,140.821 484.5,145.5C 480.986,145.236 477.319,145.069 473.5,145C 470.9,142.541 470.9,140.041 473.5,137.5C 475.851,135.771 478.518,135.104 481.5,135.5C 481.64,133.876 480.973,132.71 479.5,132C 477.153,131.666 474.819,131.833 472.5,132.5C 472.5,131.5 472.5,130.5 472.5,129.5 Z"/></g>
<g><path style="opacity:1" fill="#ededed" d="M 504.5,129.5 C 505.5,129.5 506.5,129.5 507.5,129.5C 507.5,134.833 507.5,140.167 507.5,145.5C 506.5,145.5 505.5,145.5 504.5,145.5C 504.5,140.167 504.5,134.833 504.5,129.5 Z"/></g>
<g><path style="opacity:1" fill="#373737" d="M 294.5,131.5 C 301.225,132.07 303.058,135.403 300,141.5C 295.085,144.792 292.585,143.459 292.5,137.5C 292.676,135.215 293.343,133.215 294.5,131.5 Z"/></g>
<g><path style="opacity:1" fill="#363636" d="M 428.5,131.5 C 436.103,132.956 437.436,136.789 432.5,143C 430.299,143.825 428.466,143.325 427,141.5C 426.037,137.851 426.537,134.518 428.5,131.5 Z"/></g>
<g><path style="opacity:1" fill="#373737" d="M 459.5,131.5 C 466.225,132.07 468.058,135.403 465,141.5C 460.085,144.792 457.585,143.459 457.5,137.5C 457.676,135.215 458.343,133.215 459.5,131.5 Z"/></g>
<g><path style="opacity:1" fill="#e3e3e3" d="M 493.5,129.5 C 495.833,129.5 498.167,129.5 500.5,129.5C 500.578,132.487 499.411,133.153 497,131.5C 493.645,131.852 492.145,133.686 492.5,137C 492.654,142.573 495.32,144.406 500.5,142.5C 501.386,143.325 501.719,144.325 501.5,145.5C 494.581,146.899 490.248,144.232 488.5,137.5C 489.366,134.308 491.032,131.641 493.5,129.5 Z"/></g>
<g><path style="opacity:1" fill="#343434" d="M 334.5,135.5 C 337.271,135.421 339.937,135.921 342.5,137C 343.833,138.667 343.833,140.333 342.5,142C 339.937,143.079 337.271,143.579 334.5,143.5C 334.5,140.833 334.5,138.167 334.5,135.5 Z"/></g>
<g><path style="opacity:1" fill="#363636" d="M 478.5,137.5 C 479.5,137.5 480.5,137.5 481.5,137.5C 482.036,140.865 480.703,142.865 477.5,143.5C 475.734,143.566 474.734,142.732 474.5,141C 475.347,139.229 476.68,138.063 478.5,137.5 Z"/></g>
<g><path style="opacity:1" fill="#f7f7f7" d="M 799.5,165.5 C 799.5,168.167 799.5,170.833 799.5,173.5C 789.43,173.737 784.096,178.903 783.5,189C 783.597,192.788 784.597,196.288 786.5,199.5C 783.833,199.5 781.167,199.5 778.5,199.5C 777.049,196.195 776.382,192.695 776.5,189C 777.557,174.776 785.224,166.942 799.5,165.5 Z"/></g>
<g><path style="opacity:1" fill="#323232" d="M 799.5,173.5 C 799.5,182.167 799.5,190.833 799.5,199.5C 795.167,199.5 790.833,199.5 786.5,199.5C 784.597,196.288 783.597,192.788 783.5,189C 784.096,178.903 789.43,173.737 799.5,173.5 Z"/></g>
</svg>
