<svg xmlns="http://www.w3.org/2000/svg" xmlns:xlink="http://www.w3.org/1999/xlink" width="800" height="200" version="1.1" style="shape-rendering:geometricPrecision;text-rendering:geometricPrecision;image-rendering:optimizeQuality;fill-rule:evenodd;clip-rule:evenodd"><g><path style="opacity:1" fill="#313131" d="M -0.5,-0.5 C 5.5,-0.5 11.5,-0.5 17.5,-0.5C 13.5144,2.79694 13.5144,6.13028 17.5,9.5C 12.6223,12.9339 12.289,16.7673 16.5,21C 24.3209,23.1651 27.8209,20.3318 27,12.5C 25.8333,11.3333 24.6667,10.1667 23.5,9C 27.0441,6.12677 27.3775,2.9601 24.5,-0.5C 282.833,-0.5 541.167,-0.5 799.5,-0.5C 799.5,32.8333 799.5,66.1667 799.5,99.5C 793.167,99.5 786.833,99.5 780.5,99.5C 780.5,107.833 780.5,116.167 780.5,124.5C 775.967,125.568 771.634,127.234 767.5,129.5C 761.515,124.015 755.681,118.348 750,112.5C 740.951,121.047 732.451,130.047 724.5,139.5C 729.28,145.783 734.613,151.616 740.5,157C 738.117,161.26 736.451,165.76 735.5,170.5C 727.5,170.5 719.5,170.5 711.5,170.5C 711.5,180.167 711.5,189.833 711.5,199.5C 541.167,199.5 370.833,199.5 200.5,199.5C 202.483,194.72 202.983,189.72 202,184.5C 198.644,180.052 194.644,179.385 190,182.5C 186.746,191.737 189.912,195.737 199.5,194.5C 198.826,196.195 198.159,197.862 197.5,199.5C 141.167,199.5 84.8333,199.5 28.5,199.5C 30.6581,197.78 33.3248,196.947 36.5,197C 42.1737,191.431 41.8404,186.431 35.5,182C 32.0175,182 28.6842,181.833 25.5,181.5C 25.5,187.5 25.5,193.5 25.5,199.5C 16.8333,199.5 8.16667,199.5 -0.5,199.5C -0.5,132.833 -0.5,66.1667 -0.5,-0.5 Z"/></g><g><path style="opacity:1" fill="#e8e8e8" d="M 17.5,-0.5 C 19.8333,-0.5 22.1667,-0.5 24.5,-0.5C 27.3775,2.9601 27.0441,6.12677 23.5,9C 24.6667,10.1667 25.8333,11.3333 27,12.5C 27.8209,20.3318 24.3209,23.1651 16.5,21C 12.289,16.7673 12.6223,12.9339 17.5,9.5C 13.5144,6.13028 13.5144,2.79694 17.5,-0.5 Z"/></g><g><path style="opacity:1" fill="#3e3e3e" d="M 18.5,1.5 C 21.5904,0.830048 23.257,1.99672 23.5,5C 22.4474,8.74763 20.6141,9.24763 18,6.5C 17.3603,4.73498 17.5269,3.06831 18.5,1.5 Z"/></g><g><path style="opacity:1" fill="#f6f6f6" d="M 5.5,21.5 C 5.82557,17.1161 5.49224,12.7828 4.5,8.5C 3.89333,8.62358 3.55999,8.95691 3.5,9.5C 1.62623,11.0948 0.792897,10.7615 1,8.5C 2.97337,7.36008 4.8067,6.02675 6.5,4.5C 6.83333,7.33333 7.16667,10.1667 7.5,13C 7.48089,16.2515 6.81422,19.0849 5.5,21.5 Z"/></g><g><path style="opacity:1" fill="#f6f6f6" d="M 43.5,21.5 C 43.8256,17.1161 43.4922,12.7828 42.5,8.5C 41.8933,8.62358 41.56,8.95691 41.5,9.5C 39.6262,11.0948 38.7929,10.7615 39,8.5C 40.9734,7.36008 42.8067,6.02675 44.5,4.5C 44.8333,7.33333 45.1667,10.1667 45.5,13C 45.4809,16.2515 44.8142,19.0849 43.5,21.5 Z"/></g><g><path style="opacity:1" fill="#e8e8e8" d="M 94.5,4.5 C 96.8568,4.33669 99.1902,4.50335 101.5,5C 105.793,10.6824 105.459,16.0158 100.5,21C 96.2194,22.4582 93.0527,21.2916 91,17.5C 89.5394,12.3265 90.7061,7.99316 94.5,4.5 Z"/></g><g><path style="opacity:1" fill="#f6f6f6" d="M 128.5,21.5 C 128.826,17.1161 128.492,12.7828 127.5,8.5C 126.893,8.62358 126.56,8.95691 126.5,9.5C 124.626,11.0948 123.793,10.7615 124,8.5C 125.973,7.36008 127.807,6.02675 129.5,4.5C 129.833,7.33333 130.167,10.1667 130.5,13C 130.481,16.2515 129.814,19.0849 128.5,21.5 Z"/></g><g><path style="opacity:1" fill="#363636" d="M 95.5,6.5 C 97.5824,6.47199 99.4157,7.13865 101,8.5C 101.667,11.5 101.667,14.5 101,17.5C 98.3212,20.1715 95.9879,19.8382 94,16.5C 93.037,12.8513 93.537,9.51798 95.5,6.5 Z"/></g><g><path style="opacity:1" fill="#363636" d="M 19.5,10.5 C 25.5284,13.2365 25.8617,16.2365 20.5,19.5C 17.9345,19.1009 16.6012,17.6009 16.5,15C 16.5572,12.7911 17.5572,11.2911 19.5,10.5 Z"/></g><g><path style="opacity:1" fill="#878787" d="M 3.5,9.5 C 3.55999,8.95691 3.89333,8.62358 4.5,8.5C 5.49224,12.7828 5.82557,17.1161 5.5,21.5C 4.83333,17.5 4.16667,13.5 3.5,9.5 Z"/></g><g><path style="opacity:1" fill="#878787" d="M 41.5,9.5 C 41.56,8.95691 41.8933,8.62358 42.5,8.5C 43.4922,12.7828 43.8256,17.1161 43.5,21.5C 42.8333,17.5 42.1667,13.5 41.5,9.5 Z"/></g><g><path style="opacity:1" fill="#878787" d="M 126.5,9.5 C 126.56,8.95691 126.893,8.62358 127.5,8.5C 128.492,12.7828 128.826,17.1161 128.5,21.5C 127.833,17.5 127.167,13.5 126.5,9.5 Z"/></g><g><path style="opacity:1" fill="#efefef" d="M 32.5,17.5 C 33.5,17.5 34.5,17.5 35.5,17.5C 35.5,18.8333 35.5,20.1667 35.5,21.5C 34.1667,21.5 32.8333,21.5 31.5,21.5C 31.4326,20.0413 31.7659,18.7079 32.5,17.5 Z"/></g><g><path style="opacity:1" fill="#efefef" d="M 67.5,17.5 C 68.5,17.5 69.5,17.5 70.5,17.5C 70.5,18.8333 70.5,20.1667 70.5,21.5C 69.1667,21.5 67.8333,21.5 66.5,21.5C 66.4326,20.0413 66.7659,18.7079 67.5,17.5 Z"/></g><g><path style="opacity:1" fill="#f2f2f2" d="M 51.5,4.5 C 54.8826,4.25721 58.0492,4.92388 61,6.5C 62.4187,12.4401 60.252,16.6067 54.5,19C 57.5535,19.1786 60.5535,19.6786 63.5,20.5C 59.5546,21.4909 55.5546,21.8242 51.5,21.5C 53.003,18.4765 55.1697,15.8098 58,13.5C 58.8077,11.4213 58.641,9.42131 57.5,7.5C 54.9527,7.22904 52.9527,6.22904 51.5,4.5 Z"/></g><g><path style="opacity:1" fill="#f2f2f2" d="M 75.5,4.5 C 78.8826,4.25721 82.0492,4.92388 85,6.5C 86.4187,12.4401 84.252,16.6067 78.5,19C 81.5535,19.1786 84.5535,19.6786 87.5,20.5C 83.5546,21.4909 79.5546,21.8242 75.5,21.5C 77.003,18.4765 79.1697,15.8098 82,13.5C 82.8077,11.4213 82.641,9.42131 81.5,7.5C 78.9527,7.22904 76.9527,6.22904 75.5,4.5 Z"/></g><g><path style="opacity:1" fill="#f2f2f2" d="M 109.5,4.5 C 112.883,4.25721 116.049,4.92388 119,6.5C 120.419,12.4401 118.252,16.6067 112.5,19C 115.553,19.1786 118.553,19.6786 121.5,20.5C 117.555,21.4909 113.555,21.8242 109.5,21.5C 111.003,18.4765 113.17,15.8098 116,13.5C 116.808,11.4213 116.641,9.42131 115.5,7.5C 112.953,7.22904 110.953,6.22904 109.5,4.5 Z"/></g><g><path style="opacity:1" fill="#ebebeb" d="M 334.5,76.5 C 338.909,75.899 340.242,77.5657 338.5,81.5C 333.732,82.8893 332.398,81.2226 334.5,76.5 Z"/></g><g><path style="opacity:1" fill="#ebebeb" d="M 419.5,76.5 C 423.909,75.899 425.242,77.5657 423.5,81.5C 418.732,82.8893 417.398,81.2226 419.5,76.5 Z"/></g><g><path style="opacity:1" fill="#f2f2f2" d="M 260.5,78.5 C 265.844,78.334 271.177,78.5006 276.5,79C 281.833,83.3333 281.833,87.6667 276.5,92C 282.544,94.9318 284.044,99.4318 281,105.5C 279.269,107.617 277.102,109.117 274.5,110C 269.845,110.499 265.179,110.666 260.5,110.5C 260.5,99.8333 260.5,89.1667 260.5,78.5 Z"/></g><g><path style="opacity:1" fill="#fdfdfd" d="M 379.5,78.5 C 380.833,78.5 382.167,78.5 383.5,78.5C 383.5,89.1667 383.5,99.8333 383.5,110.5C 382.167,110.5 380.833,110.5 379.5,110.5C 379.5,99.8333 379.5,89.1667 379.5,78.5 Z"/></g><g><path style="opacity:1" fill="#f2f2f2" d="M 481.5,79.5 C 483.344,81.2789 484.01,83.6122 483.5,86.5C 485.833,86.5 488.167,86.5 490.5,86.5C 490.5,87.5 490.5,88.5 490.5,89.5C 488.167,89.5 485.833,89.5 483.5,89.5C 483.242,94.7175 483.575,99.8841 484.5,105C 486.287,107.134 488.62,107.967 491.5,107.5C 491.5,108.5 491.5,109.5 491.5,110.5C 488.482,110.665 485.482,110.498 482.5,110C 482,109.5 481.5,109 481,108.5C 479.584,102.285 479.084,95.9522 479.5,89.5C 478.167,89.5 476.833,89.5 475.5,89.5C 475.5,88.5 475.5,87.5 475.5,86.5C 476.833,86.5 478.167,86.5 479.5,86.5C 480.268,84.2854 480.935,81.9521 481.5,79.5 Z"/></g><g><path style="opacity:1" fill="#a6a6a6" d="M 481.5,79.5 C 480.935,81.9521 480.268,84.2854 479.5,86.5C 478.99,83.6122 479.656,81.2789 481.5,79.5 Z"/></g><g><path style="opacity:1" fill="#353535" d="M 264.5,81.5 C 267.187,81.3359 269.854,81.5026 272.5,82C 276.795,83.8451 277.462,86.5118 274.5,90C 271.243,91.0429 267.91,91.5429 264.5,91.5C 264.5,88.1667 264.5,84.8333 264.5,81.5 Z"/></g><g><path style="opacity:1" fill="#ebebeb" d="M 288.5,86.5 C 292.846,86.3343 297.179,86.501 301.5,87C 302.416,87.3742 303.25,87.8742 304,88.5C 305.247,95.7502 306.08,103.084 306.5,110.5C 304.234,110.859 302.401,110.192 301,108.5C 297.405,110.456 293.572,110.956 289.5,110C 285.231,105.291 285.564,100.958 290.5,97C 294.06,95.7633 297.727,95.2633 301.5,95.5C 301.714,93.8561 301.38,92.3561 300.5,91C 296.235,89.2649 291.901,89.0983 287.5,90.5C 287.433,89.0413 287.766,87.7079 288.5,86.5 Z"/></g><g><path style="opacity:1" fill="#e9e9e9" d="M 315.5,86.5 C 319.5,86.5 323.5,86.5 327.5,86.5C 327.5,87.8333 327.5,89.1667 327.5,90.5C 324.183,89.7791 320.849,89.6124 317.5,90C 316.167,91.6667 316.167,93.3333 317.5,95C 321.097,96.3647 324.43,98.198 327.5,100.5C 329.326,104.526 328.326,107.693 324.5,110C 320.179,110.499 315.846,110.666 311.5,110.5C 311.5,109.167 311.5,107.833 311.5,106.5C 314.817,107.221 318.151,107.388 321.5,107C 324.346,106.121 325.013,104.454 323.5,102C 319.637,100.819 316.137,98.9856 313,96.5C 311.11,92.5795 311.943,89.2462 315.5,86.5 Z"/></g><g><path style="opacity:1" fill="#e0e0e0" d="M 336.5,86.5 C 338.467,94.0968 339.134,102.097 338.5,110.5C 336.833,110.5 335.167,110.5 333.5,110.5C 333.5,102.833 333.5,95.1667 333.5,87.5C 334.791,87.7373 335.791,87.404 336.5,86.5 Z"/></g><g><path style="opacity:1" fill="#e9e9e9" d="M 351.5,86.5 C 354.833,86.5 358.167,86.5 361.5,86.5C 361.5,87.8333 361.5,89.1667 361.5,90.5C 351.303,88.1967 347.136,92.1967 349,102.5C 350.566,105.813 353.233,107.479 357,107.5C 358.825,107.057 360.658,106.723 362.5,106.5C 362.67,107.822 362.337,108.989 361.5,110C 354.676,111.945 349.176,110.112 345,104.5C 342.355,96.7851 344.522,90.7851 351.5,86.5 Z"/></g><g><path style="opacity:1" fill="#e9e9e9" d="M 390.5,86.5 C 393.044,86.1043 395.211,86.771 397,88.5C 402.599,85.3057 407.599,85.9724 412,90.5C 412.5,97.1583 412.666,103.825 412.5,110.5C 410.833,110.5 409.167,110.5 407.5,110.5C 408.332,104.516 408.499,98.5161 408,92.5C 404.641,88.9115 400.974,88.5782 397,91.5C 396.5,97.8246 396.334,104.158 396.5,110.5C 394.833,110.5 393.167,110.5 391.5,110.5C 391.77,102.445 391.437,94.445 390.5,86.5 Z"/></g><g><path style="opacity:1" fill="#eaeaea" d="M 418.5,86.5 C 419.833,86.5 421.167,86.5 422.5,86.5C 422.666,96.8387 422.5,107.172 422,117.5C 421.241,119.635 419.741,120.968 417.5,121.5C 416.5,121.167 415.833,120.5 415.5,119.5C 416.522,118.646 417.355,117.646 418,116.5C 418.5,106.506 418.666,96.5056 418.5,86.5 Z"/></g><g><path style="opacity:1" fill="#efefef" d="M 435.5,86.5 C 445.67,85.0049 450.336,89.3382 449.5,99.5C 444.167,99.5 438.833,99.5 433.5,99.5C 433.544,103.09 435.211,105.59 438.5,107C 442.188,107.45 445.854,107.283 449.5,106.5C 449.67,107.822 449.337,108.989 448.5,110C 441.007,112.057 434.84,110.223 430,104.5C 427.317,97.0531 429.15,91.0531 435.5,86.5 Z"/></g><g><path style="opacity:1" fill="#e9e9e9" d="M 462.5,86.5 C 465.833,86.5 469.167,86.5 472.5,86.5C 472.5,87.8333 472.5,89.1667 472.5,90.5C 462.303,88.1967 458.136,92.1967 460,102.5C 461.566,105.813 464.233,107.479 468,107.5C 469.825,107.057 471.658,106.723 473.5,106.5C 473.67,107.822 473.337,108.989 472.5,110C 465.676,111.945 460.176,110.112 456,104.5C 453.355,96.7851 455.522,90.7851 462.5,86.5 Z"/></g><g><path style="opacity:1" fill="#ebebeb" d="M 502.5,86.5 C 516.604,86.0957 521.104,92.4291 516,105.5C 509.953,111.728 503.62,112.062 497,106.5C 492.642,98.0789 494.476,91.4122 502.5,86.5 Z"/></g><g><path style="opacity:1" fill="#e2e2e2" d="M 522.5,86.5 C 524.167,86.5 525.833,86.5 527.5,86.5C 527.351,87.552 527.517,88.552 528,89.5C 530.984,86.8999 534.484,85.8999 538.5,86.5C 539.101,90.909 537.434,92.2424 533.5,90.5C 531.813,90.7605 530.313,91.4272 529,92.5C 528.501,98.4908 528.334,104.491 528.5,110.5C 526.833,110.5 525.167,110.5 523.5,110.5C 523.736,102.458 523.403,94.4583 522.5,86.5 Z"/></g><g><path style="opacity:1" fill="#363636" d="M 437.5,89.5 C 442.713,89.0867 445.38,91.42 445.5,96.5C 441.5,96.5 437.5,96.5 433.5,96.5C 433.571,93.3477 434.905,91.0144 437.5,89.5 Z"/></g><g><path style="opacity:1" fill="#323232" d="M 504.5,89.5 C 510.713,89.5478 513.713,92.7144 513.5,99C 512.039,107.317 507.873,109.151 501,104.5C 498.206,98.4076 499.373,93.4076 504.5,89.5 Z"/></g><g><path style="opacity:1" fill="#343434" d="M 264.5,94.5 C 268.247,94.3924 271.914,94.8924 275.5,96C 279.5,99.3333 279.5,102.667 275.5,106C 271.914,107.108 268.247,107.608 264.5,107.5C 264.5,103.167 264.5,98.8333 264.5,94.5 Z"/></g><g><path style="opacity:1" fill="#333" d="M 297.5,98.5 C 298.833,98.5 300.167,98.5 301.5,98.5C 302.815,105.799 299.815,108.632 292.5,107C 290.041,104.911 290.041,102.745 292.5,100.5C 294.336,99.9724 296.003,99.3058 297.5,98.5 Z"/></g><g><path style="opacity:1" fill="#f8f8f8" d="M 799.5,99.5 C 799.5,101.833 799.5,104.167 799.5,106.5C 795.5,106.5 791.5,106.5 787.5,106.5C 787.666,113.508 787.5,120.508 787,127.5C 786.167,128.333 785.333,129.167 784.5,130C 778.493,132.087 772.659,134.587 767,137.5C 760.751,133.257 755.085,128.257 750,122.5C 745,127.5 740,132.5 735,137.5C 734.333,138.5 734.333,139.5 735,140.5C 739,144.5 743,148.5 747,152.5C 748.373,154.695 748.706,157.029 748,159.5C 744.91,163.682 742.91,168.349 742,173.5C 740.833,174.667 739.667,175.833 738.5,177C 731.842,177.5 725.175,177.666 718.5,177.5C 718.5,184.833 718.5,192.167 718.5,199.5C 716.167,199.5 713.833,199.5 711.5,199.5C 711.5,189.833 711.5,180.167 711.5,170.5C 719.5,170.5 727.5,170.5 735.5,170.5C 736.451,165.76 738.117,161.26 740.5,157C 734.613,151.616 729.28,145.783 724.5,139.5C 732.451,130.047 740.951,121.047 750,112.5C 755.681,118.348 761.515,124.015 767.5,129.5C 771.634,127.234 775.967,125.568 780.5,124.5C 780.5,116.167 780.5,107.833 780.5,99.5C 786.833,99.5 793.167,99.5 799.5,99.5 Z"/></g><g><path style="opacity:1" fill="#323232" d="M 799.5,106.5 C 799.5,126.167 799.5,145.833 799.5,165.5C 785.224,166.942 777.557,174.776 776.5,189C 776.382,192.695 777.049,196.195 778.5,199.5C 758.5,199.5 738.5,199.5 718.5,199.5C 718.5,192.167 718.5,184.833 718.5,177.5C 725.175,177.666 731.842,177.5 738.5,177C 739.667,175.833 740.833,174.667 742,173.5C 742.91,168.349 744.91,163.682 748,159.5C 748.706,157.029 748.373,154.695 747,152.5C 743,148.5 739,144.5 735,140.5C 734.333,139.5 734.333,138.5 735,137.5C 740,132.5 745,127.5 750,122.5C 755.085,128.257 760.751,133.257 767,137.5C 772.659,134.587 778.493,132.087 784.5,130C 785.333,129.167 786.167,128.333 787,127.5C 787.5,120.508 787.666,113.508 787.5,106.5C 791.5,106.5 795.5,106.5 799.5,106.5 Z"/></g><g><path style="opacity:1" fill="#e8e8e8" d="M 299.5,121.5 C 300.5,121.5 301.5,121.5 302.5,121.5C 302.336,124.187 302.503,126.854 303,129.5C 311.418,127.584 315.084,130.917 314,139.5C 313.215,141.286 312.049,142.786 310.5,144C 306.681,144.069 303.014,144.236 299.5,144.5C 299.5,136.833 299.5,129.167 299.5,121.5 Z"/></g><g><path style="opacity:1" fill="#ececec" d="M 479.5,121.5 C 480.995,121.415 481.995,122.081 482.5,123.5C 481.68,125.111 480.346,125.778 478.5,125.5C 478.433,124.041 478.766,122.708 479.5,121.5 Z"/></g><g><path style="opacity:1" fill="#efefef" d="M 341.5,123.5 C 342.5,123.5 343.5,123.5 344.5,123.5C 344.5,126.5 344.5,129.5 344.5,132.5C 347.5,132.5 350.5,132.5 353.5,132.5C 353.5,129.5 353.5,126.5 353.5,123.5C 354.5,123.5 355.5,123.5 356.5,123.5C 356.5,130.5 356.5,137.5 356.5,144.5C 355.5,144.5 354.5,144.5 353.5,144.5C 353.5,141.167 353.5,137.833 353.5,134.5C 350.5,134.5 347.5,134.5 344.5,134.5C 344.5,137.833 344.5,141.167 344.5,144.5C 343.5,144.5 342.5,144.5 341.5,144.5C 341.5,137.5 341.5,130.5 341.5,123.5 Z"/></g><g><path style="opacity:1" fill="#e8e8e8" d="M 413.5,123.5 C 417.182,123.335 420.848,123.501 424.5,124C 428.5,127 428.5,130 424.5,133C 429.975,137.007 429.642,140.674 423.5,144C 420.183,144.498 416.85,144.665 413.5,144.5C 413.5,137.5 413.5,130.5 413.5,123.5 Z"/></g><g><path style="opacity:1" fill="#313131" d="M 416.5,125.5 C 421.542,124.505 423.875,126.505 423.5,131.5C 421.194,131.993 418.861,132.326 416.5,132.5C 416.5,130.167 416.5,127.833 416.5,125.5 Z"/></g><g><path style="opacity:1" fill="#dfdfdf" d="M 317.5,128.5 C 318.833,128.5 320.167,128.5 321.5,128.5C 323.943,141.629 325.943,141.629 327.5,128.5C 328.978,128.238 330.311,128.571 331.5,129.5C 328.184,136.277 325.35,143.277 323,150.5C 321.506,151.747 320.006,151.747 318.5,150.5C 322.314,147.813 323.48,144.147 322,139.5C 319.934,136.039 318.434,132.373 317.5,128.5 Z"/></g><g><path style="opacity:1" fill="#e4e4e4" d="M 362.5,128.5 C 365.85,128.335 369.183,128.502 372.5,129C 373,129.5 373.5,130 374,130.5C 374.499,135.155 374.666,139.821 374.5,144.5C 370.986,144.236 367.319,144.069 363.5,144C 360.9,141.541 360.9,139.041 363.5,136.5C 365.851,134.771 368.518,134.104 371.5,134.5C 371.64,132.876 370.973,131.71 369.5,131C 367.153,130.666 364.819,130.833 362.5,131.5C 362.5,130.5 362.5,129.5 362.5,128.5 Z"/></g><g><path style="opacity:1" fill="#e7e7e7" d="M 378.5,128.5 C 379.552,128.351 380.552,128.517 381.5,129C 382.304,130.771 383.471,132.271 385,133.5C 386.529,132.271 387.696,130.771 388.5,129C 389.5,128.333 390.5,128.333 391.5,129C 389.833,131.333 388.167,133.667 386.5,136C 388.5,138.667 390.5,141.333 392.5,144C 391.167,144.667 389.833,144.667 388.5,144C 387.36,142.027 386.027,140.193 384.5,138.5C 382.973,140.193 381.64,142.027 380.5,144C 379.365,144.749 378.365,144.583 377.5,143.5C 379.38,140.909 381.38,138.409 383.5,136C 381.585,133.6 379.919,131.1 378.5,128.5 Z"/></g><g><path style="opacity:1" fill="#e4e4e4" d="M 431.5,128.5 C 434.85,128.335 438.183,128.502 441.5,129C 442,129.5 442.5,130 443,130.5C 443.499,135.155 443.666,139.821 443.5,144.5C 439.986,144.236 436.319,144.069 432.5,144C 429.9,141.541 429.9,139.041 432.5,136.5C 434.851,134.771 437.518,134.104 440.5,134.5C 440.64,132.876 439.973,131.71 438.5,131C 436.153,130.666 433.819,130.833 431.5,131.5C 431.5,130.5 431.5,129.5 431.5,128.5 Z"/></g><g><path style="opacity:1" fill="#ebebeb" d="M 448.5,128.5 C 450.124,128.36 451.29,129.027 452,130.5C 453.789,128.771 455.956,128.104 458.5,128.5C 458.891,131.838 457.724,132.838 455,131.5C 453.739,131.759 452.739,132.426 452,133.5C 451.501,137.152 451.335,140.818 451.5,144.5C 450.5,144.5 449.5,144.5 448.5,144.5C 448.5,139.167 448.5,133.833 448.5,128.5 Z"/></g><g><path style="opacity:1" fill="#ececec" d="M 460.5,128.5 C 463.154,129.821 465.821,129.821 468.5,128.5C 470.593,128.486 472.426,129.152 474,130.5C 474.499,135.155 474.666,139.821 474.5,144.5C 473.5,144.5 472.5,144.5 471.5,144.5C 471.826,140.116 471.492,135.783 470.5,131.5C 468.5,130.167 466.5,130.167 464.5,131.5C 463.508,135.783 463.174,140.116 463.5,144.5C 462.5,144.5 461.5,144.5 460.5,144.5C 460.5,139.167 460.5,133.833 460.5,128.5 Z"/></g><g><path style="opacity:1" fill="#ededed" d="M 478.5,128.5 C 479.5,128.5 480.5,128.5 481.5,128.5C 481.5,133.833 481.5,139.167 481.5,144.5C 480.5,144.5 479.5,144.5 478.5,144.5C 478.5,139.167 478.5,133.833 478.5,128.5 Z"/></g><g><path style="opacity:1" fill="#e8e8e8" d="M 488.5,128.5 C 495.706,127.412 499.039,130.412 498.5,137.5C 495.167,137.5 491.833,137.5 488.5,137.5C 488.297,139.39 488.963,140.89 490.5,142C 492.899,142.711 495.232,142.544 497.5,141.5C 498.386,142.325 498.719,143.325 498.5,144.5C 491.002,146.426 486.336,143.759 484.5,136.5C 485.317,133.533 486.65,130.866 488.5,128.5 Z"/></g><g><path style="opacity:1" fill="#373737" d="M 304.5,130.5 C 311.225,131.07 313.058,134.403 310,140.5C 305.085,143.792 302.585,142.459 302.5,136.5C 302.676,134.215 303.343,132.215 304.5,130.5 Z"/></g><g><path style="opacity:1" fill="#343434" d="M 490.5,130.5 C 494.172,130.183 495.838,131.849 495.5,135.5C 493.167,135.5 490.833,135.5 488.5,135.5C 488.392,133.486 489.058,131.82 490.5,130.5 Z"/></g><g><path style="opacity:1" fill="#343434" d="M 416.5,134.5 C 419.271,134.421 421.937,134.921 424.5,136C 425.833,137.667 425.833,139.333 424.5,141C 421.937,142.079 419.271,142.579 416.5,142.5C 416.5,139.833 416.5,137.167 416.5,134.5 Z"/></g><g><path style="opacity:1" fill="#363636" d="M 368.5,136.5 C 369.5,136.5 370.5,136.5 371.5,136.5C 372.036,139.865 370.703,141.865 367.5,142.5C 365.734,142.566 364.734,141.732 364.5,140C 365.347,138.229 366.68,137.063 368.5,136.5 Z"/></g><g><path style="opacity:1" fill="#363636" d="M 437.5,136.5 C 438.5,136.5 439.5,136.5 440.5,136.5C 441.036,139.865 439.703,141.865 436.5,142.5C 434.734,142.566 433.734,141.732 433.5,140C 434.347,138.229 435.68,137.063 437.5,136.5 Z"/></g><g><path style="opacity:1" fill="#fbfbfb" d="M 393.5,150.5 C 399.206,150.171 404.872,150.505 410.5,151.5C 407.667,151.833 404.833,152.167 402,152.5C 398.748,152.481 395.915,151.814 393.5,150.5 Z"/></g><g><path style="opacity:1" fill="#f7f7f7" d="M 799.5,165.5 C 799.5,168.167 799.5,170.833 799.5,173.5C 789.43,173.737 784.096,178.903 783.5,189C 783.597,192.788 784.597,196.288 786.5,199.5C 783.833,199.5 781.167,199.5 778.5,199.5C 777.049,196.195 776.382,192.695 776.5,189C 777.557,174.776 785.224,166.942 799.5,165.5 Z"/></g><g><path style="opacity:1" fill="#323232" d="M 799.5,173.5 C 799.5,182.167 799.5,190.833 799.5,199.5C 795.167,199.5 790.833,199.5 786.5,199.5C 784.597,196.288 783.597,192.788 783.5,189C 784.096,178.903 789.43,173.737 799.5,173.5 Z"/></g><g><path style="opacity:1" fill="#e6e6e6" d="M 54.5,174.5 C 55.5,174.5 56.5,174.5 57.5,174.5C 57.5,182.167 57.5,189.833 57.5,197.5C 53.9858,197.236 50.3191,197.069 46.5,197C 41.5757,192.697 41.2424,188.03 45.5,183C 48.2893,181.336 51.1227,181.17 54,182.5C 54.4974,179.854 54.6641,177.187 54.5,174.5 Z"/></g><g><path style="opacity:1" fill="#e6e6e6" d="M 118.5,174.5 C 119.5,174.5 120.5,174.5 121.5,174.5C 121.5,182.167 121.5,189.833 121.5,197.5C 117.986,197.236 114.319,197.069 110.5,197C 105.576,192.697 105.242,188.03 109.5,183C 112.289,181.336 115.123,181.17 118,182.5C 118.497,179.854 118.664,177.187 118.5,174.5 Z"/></g><g><path style="opacity:1" fill="#ebebeb" d="M 3.5,176.5 C 4.5,176.5 5.5,176.5 6.5,176.5C 6.33398,181.844 6.50065,187.177 7,192.5C 9.28801,195.778 12.1213,196.278 15.5,194C 16.1905,192.933 16.6905,191.766 17,190.5C 17.4992,185.845 17.6658,181.179 17.5,176.5C 18.5,176.5 19.5,176.5 20.5,176.5C 20.6659,181.511 20.4993,186.511 20,191.5C 17.646,197.095 13.4793,198.928 7.5,197C 5.95118,195.786 4.78451,194.286 4,192.5C 3.50065,187.177 3.33398,181.844 3.5,176.5 Z"/></g><g><path style="opacity:1" fill="#e5e5e5" d="M 79.5,176.5 C 80.5,176.5 81.5,176.5 82.5,176.5C 82.5,178.167 82.5,179.833 82.5,181.5C 89.1667,182.167 89.1667,182.833 82.5,183.5C 82.335,186.85 82.5017,190.183 83,193.5C 84.3068,194.772 85.8068,195.772 87.5,196.5C 84.2299,198.214 81.7299,197.548 80,194.5C 80.0032,190.258 79.1699,186.258 77.5,182.5C 79.1045,180.821 79.7711,178.821 79.5,176.5 Z"/></g><g><path style="opacity:1" fill="#f6f6f6" d="M 181.5,197.5 C 181.826,193.116 181.492,188.783 180.5,184.5C 179.893,184.624 179.56,184.957 179.5,185.5C 177.626,187.095 176.793,186.761 177,184.5C 178.973,183.36 180.807,182.027 182.5,180.5C 182.833,183.333 183.167,186.167 183.5,189C 183.481,192.252 182.814,195.085 181.5,197.5 Z"/></g><g><path style="opacity:1" fill="#ebebeb" d="M 200.5,199.5 C 199.5,199.5 198.5,199.5 197.5,199.5C 198.159,197.862 198.826,196.195 199.5,194.5C 189.912,195.737 186.746,191.737 190,182.5C 194.644,179.385 198.644,180.052 202,184.5C 202.983,189.72 202.483,194.72 200.5,199.5 Z"/></g><g><path style="opacity:1" fill="#f6f6f6" d="M 219.5,197.5 C 219.826,193.116 219.492,188.783 218.5,184.5C 217.893,184.624 217.56,184.957 217.5,185.5C 215.626,187.095 214.793,186.761 215,184.5C 216.973,183.36 218.807,182.027 220.5,180.5C 220.833,183.333 221.167,186.167 221.5,189C 221.481,192.252 220.814,195.085 219.5,197.5 Z"/></g><g><path style="opacity:1" fill="#e8e8e8" d="M 270.5,180.5 C 272.857,180.337 275.19,180.503 277.5,181C 281.793,186.682 281.459,192.016 276.5,197C 272.219,198.458 269.053,197.292 267,193.5C 265.539,188.326 266.706,183.993 270.5,180.5 Z"/></g><g><path style="opacity:1" fill="#f6f6f6" d="M 303.5,197.5 C 303.826,193.116 303.492,188.783 302.5,184.5C 301.893,184.624 301.56,184.957 301.5,185.5C 299.626,187.095 298.793,186.761 299,184.5C 300.973,183.36 302.807,182.027 304.5,180.5C 304.833,183.333 305.167,186.167 305.5,189C 305.481,192.252 304.814,195.085 303.5,197.5 Z"/></g><g><path style="opacity:1" fill="#e6e6e6" d="M 28.5,199.5 C 27.5,199.5 26.5,199.5 25.5,199.5C 25.5,193.5 25.5,187.5 25.5,181.5C 28.6842,181.833 32.0175,182 35.5,182C 41.8404,186.431 42.1737,191.431 36.5,197C 33.3248,196.947 30.6581,197.78 28.5,199.5 Z"/></g><g><path style="opacity:1" fill="#e4e4e4" d="M 62.5,181.5 C 65.8499,181.335 69.1832,181.502 72.5,182C 73,182.5 73.5,183 74,183.5C 74.4992,188.155 74.6658,192.821 74.5,197.5C 70.9858,197.236 67.3191,197.069 63.5,197C 60.8997,194.541 60.8997,192.041 63.5,189.5C 65.8511,187.771 68.5178,187.104 71.5,187.5C 71.6399,185.876 70.9733,184.71 69.5,184C 67.1527,183.666 64.8194,183.833 62.5,184.5C 62.5,183.5 62.5,182.5 62.5,181.5 Z"/></g><g><path style="opacity:1" fill="#e8e8e8" d="M 93.5,181.5 C 100.706,180.412 104.039,183.412 103.5,190.5C 100.167,190.5 96.8333,190.5 93.5,190.5C 93.2965,192.39 93.9632,193.89 95.5,195C 97.8991,195.711 100.232,195.544 102.5,194.5C 103.386,195.325 103.719,196.325 103.5,197.5C 96.0022,199.426 91.3355,196.759 89.5,189.5C 90.3169,186.533 91.6503,183.866 93.5,181.5 Z"/></g><g><path style="opacity:1" fill="#e5e5e5" d="M 137.5,181.5 C 148.566,181.729 151.233,186.562 145.5,196C 136.942,199.429 132.776,196.596 133,187.5C 134.332,185.34 135.832,183.34 137.5,181.5 Z"/></g><g><path style="opacity:1" fill="#ececec" d="M 151.5,181.5 C 154.154,182.821 156.821,182.821 159.5,181.5C 161.593,181.486 163.426,182.152 165,183.5C 165.499,188.155 165.666,192.821 165.5,197.5C 164.5,197.5 163.5,197.5 162.5,197.5C 162.826,193.116 162.492,188.783 161.5,184.5C 159.5,183.167 157.5,183.167 155.5,184.5C 154.508,188.783 154.174,193.116 154.5,197.5C 153.5,197.5 152.5,197.5 151.5,197.5C 151.5,192.167 151.5,186.833 151.5,181.5 Z"/></g><g><path style="opacity:1" fill="#343434" d="M 193.5,182.5 C 199.563,183.762 200.896,186.929 197.5,192C 192.448,192.105 190.615,189.605 192,184.5C 192.717,183.956 193.217,183.289 193.5,182.5 Z"/></g><g><path style="opacity:1" fill="#363636" d="M 271.5,182.5 C 273.582,182.472 275.416,183.139 277,184.5C 277.667,187.5 277.667,190.5 277,193.5C 274.321,196.172 271.988,195.838 270,192.5C 269.037,188.851 269.537,185.518 271.5,182.5 Z"/></g><g><path style="opacity:1" fill="#393939" d="M 30.5,183.5 C 37.2247,184.07 39.058,187.403 36,193.5C 31.0851,196.792 28.5851,195.459 28.5,189.5C 28.6759,187.215 29.3426,185.215 30.5,183.5 Z"/></g><g><path style="opacity:1" fill="#333" d="M 49.5,183.5 C 51.1439,183.286 52.6439,183.62 54,184.5C 54.8236,187.882 54.657,191.216 53.5,194.5C 46.984,195.801 44.8174,193.134 47,186.5C 47.6979,185.309 48.5313,184.309 49.5,183.5 Z"/></g><g><path style="opacity:1" fill="#343434" d="M 95.5,183.5 C 99.1716,183.183 100.838,184.849 100.5,188.5C 98.1667,188.5 95.8333,188.5 93.5,188.5C 93.3915,186.486 94.0582,184.82 95.5,183.5 Z"/></g><g><path style="opacity:1" fill="#333" d="M 113.5,183.5 C 115.144,183.286 116.644,183.62 118,184.5C 118.824,187.882 118.657,191.216 117.5,194.5C 110.984,195.801 108.817,193.134 111,186.5C 111.698,185.309 112.531,184.309 113.5,183.5 Z"/></g><g><path style="opacity:1" fill="#363636" d="M 138.5,183.5 C 146.103,184.956 147.436,188.789 142.5,195C 140.299,195.825 138.466,195.325 137,193.5C 136.037,189.851 136.537,186.518 138.5,183.5 Z"/></g><g><path style="opacity:1" fill="#878787" d="M 179.5,185.5 C 179.56,184.957 179.893,184.624 180.5,184.5C 181.492,188.783 181.826,193.116 181.5,197.5C 180.833,193.5 180.167,189.5 179.5,185.5 Z"/></g><g><path style="opacity:1" fill="#878787" d="M 217.5,185.5 C 217.56,184.957 217.893,184.624 218.5,184.5C 219.492,188.783 219.826,193.116 219.5,197.5C 218.833,193.5 218.167,189.5 217.5,185.5 Z"/></g><g><path style="opacity:1" fill="#878787" d="M 301.5,185.5 C 301.56,184.957 301.893,184.624 302.5,184.5C 303.492,188.783 303.826,193.116 303.5,197.5C 302.833,193.5 302.167,189.5 301.5,185.5 Z"/></g><g><path style="opacity:1" fill="#363636" d="M 68.5,189.5 C 69.5,189.5 70.5,189.5 71.5,189.5C 72.0362,192.865 70.7028,194.865 67.5,195.5C 65.7336,195.566 64.7336,194.732 64.5,193C 65.3471,191.229 66.6805,190.063 68.5,189.5 Z"/></g><g><path style="opacity:1" fill="#efefef" d="M 207.5,193.5 C 208.5,193.5 209.5,193.5 210.5,193.5C 210.5,194.833 210.5,196.167 210.5,197.5C 209.167,197.5 207.833,197.5 206.5,197.5C 206.433,196.041 206.766,194.708 207.5,193.5 Z"/></g><g><path style="opacity:1" fill="#efefef" d="M 243.5,193.5 C 244.5,193.5 245.5,193.5 246.5,193.5C 246.5,194.833 246.5,196.167 246.5,197.5C 245.167,197.5 243.833,197.5 242.5,197.5C 242.433,196.041 242.766,194.708 243.5,193.5 Z"/></g><g><path style="opacity:1" fill="#f2f2f2" d="M 226.5,180.5 C 229.883,180.257 233.049,180.924 236,182.5C 237.419,188.44 235.252,192.607 229.5,195C 232.553,195.179 235.553,195.679 238.5,196.5C 234.555,197.491 230.555,197.824 226.5,197.5C 228.003,194.476 230.17,191.81 233,189.5C 233.808,187.421 233.641,185.421 232.5,183.5C 229.953,183.229 227.953,182.229 226.5,180.5 Z"/></g><g><path style="opacity:1" fill="#f2f2f2" d="M 250.5,180.5 C 253.883,180.257 257.049,180.924 260,182.5C 261.419,188.44 259.252,192.607 253.5,195C 256.553,195.179 259.553,195.679 262.5,196.5C 258.555,197.491 254.555,197.824 250.5,197.5C 252.003,194.476 254.17,191.81 257,189.5C 257.808,187.421 257.641,185.421 256.5,183.5C 253.953,183.229 251.953,182.229 250.5,180.5 Z"/></g><g><path style="opacity:1" fill="#f2f2f2" d="M 284.5,180.5 C 287.883,180.257 291.049,180.924 294,182.5C 295.419,188.44 293.252,192.607 287.5,195C 290.553,195.179 293.553,195.679 296.5,196.5C 292.555,197.491 288.555,197.824 284.5,197.5C 286.003,194.476 288.17,191.81 291,189.5C 291.808,187.421 291.641,185.421 290.5,183.5C 287.953,183.229 285.953,182.229 284.5,180.5 Z"/></g></svg>