<svg xmlns="http://www.w3.org/2000/svg" xmlns:xlink="http://www.w3.org/1999/xlink" width="800" height="200" version="1.1" style="shape-rendering:geometricPrecision;text-rendering:geometricPrecision;image-rendering:optimizeQuality;fill-rule:evenodd;clip-rule:evenodd"><g><path style="opacity:1" fill="#313131" d="M -0.5,-0.5 C 5.83333,-0.5 12.1667,-0.5 18.5,-0.5C 13.6862,2.65159 13.3528,6.31825 17.5,10.5C 11.2134,17.4898 12.5467,22.1565 21.5,24.5C 29.1067,23.627 31.2733,19.627 28,12.5C 27.0754,11.9535 26.2421,11.2868 25.5,10.5C 29.4884,6.79757 29.4884,3.13091 25.5,-0.5C 283.5,-0.5 541.5,-0.5 799.5,-0.5C 799.5,45.1667 799.5,90.8333 799.5,136.5C 796.161,136.11 792.827,135.61 789.5,135C 770.96,115.2 749.96,112.2 726.5,126C 717.258,133.314 711.758,142.814 710,154.5C 710.345,169.64 711.845,184.64 714.5,199.5C 591.833,199.5 469.167,199.5 346.5,199.5C 346.83,193.132 346.496,186.798 345.5,180.5C 342.891,181.443 340.891,183.11 339.5,185.5C 340.391,186.59 341.391,186.59 342.5,185.5C 343.493,190.12 343.827,194.786 343.5,199.5C 340.5,199.5 337.5,199.5 334.5,199.5C 331.992,197.763 328.992,196.93 325.5,197C 332.167,193.479 334.167,188.479 331.5,182C 328.209,180.456 324.876,180.289 321.5,181.5C 323.813,182.273 326.146,182.94 328.5,183.5C 329.647,185.765 329.814,188.098 329,190.5C 325.888,193.101 323.388,196.101 321.5,199.5C 318.833,199.5 316.167,199.5 313.5,199.5C 317.274,195.228 318.441,190.228 317,184.5C 311.124,178.72 306.124,179.387 302,186.5C 300.668,191.585 301.835,195.919 305.5,199.5C 302.833,199.5 300.167,199.5 297.5,199.5C 294.992,197.763 291.992,196.93 288.5,197C 295.167,193.479 297.167,188.479 294.5,182C 291.209,180.456 287.876,180.289 284.5,181.5C 286.813,182.273 289.146,182.94 291.5,183.5C 292.647,185.765 292.814,188.098 292,190.5C 288.888,193.101 286.388,196.101 284.5,199.5C 282.5,199.5 280.5,199.5 278.5,199.5C 280.111,197.167 279.611,195.5 277,194.5C 274.389,195.5 273.889,197.167 275.5,199.5C 273.833,199.5 272.167,199.5 270.5,199.5C 267.992,197.763 264.992,196.93 261.5,197C 268.167,193.479 270.167,188.479 267.5,182C 264.209,180.456 260.876,180.289 257.5,181.5C 259.813,182.273 262.146,182.94 264.5,183.5C 265.647,185.765 265.814,188.098 265,190.5C 261.888,193.101 259.388,196.101 257.5,199.5C 255.5,199.5 253.5,199.5 251.5,199.5C 251.83,193.132 251.496,186.798 250.5,180.5C 247.891,181.443 245.891,183.11 244.5,185.5C 245.391,186.59 246.391,186.59 247.5,185.5C 248.493,190.12 248.827,194.786 248.5,199.5C 245.167,199.5 241.833,199.5 238.5,199.5C 240.111,197.167 239.611,195.5 237,194.5C 234.389,195.5 233.889,197.167 235.5,199.5C 232.5,199.5 229.5,199.5 226.5,199.5C 230.274,195.228 231.441,190.228 230,184.5C 224.124,178.72 219.124,179.387 215,186.5C 213.668,191.585 214.835,195.919 218.5,199.5C 215.833,199.5 213.167,199.5 210.5,199.5C 207.992,197.763 204.992,196.93 201.5,197C 208.167,193.479 210.167,188.479 207.5,182C 204.209,180.456 200.876,180.289 197.5,181.5C 199.813,182.273 202.146,182.94 204.5,183.5C 205.647,185.765 205.814,188.098 205,190.5C 201.888,193.101 199.388,196.101 197.5,199.5C 193.167,199.5 188.833,199.5 184.5,199.5C 184.666,194.489 184.499,189.489 184,184.5C 183.167,183.667 182.333,182.833 181.5,182C 177.083,182.097 172.75,181.93 168.5,181.5C 168.5,187.5 168.5,193.5 168.5,199.5C 165.5,199.5 162.5,199.5 159.5,199.5C 165.182,194.562 165.849,189.062 161.5,183C 150.491,179.94 145.991,184.106 148,195.5C 149.376,196.705 150.542,198.038 151.5,199.5C 146.167,199.5 140.833,199.5 135.5,199.5C 135.5,190.833 135.5,182.167 135.5,173.5C 134.5,173.5 133.5,173.5 132.5,173.5C 131.833,176.167 131.167,178.833 130.5,181.5C 121.035,181.372 117.535,186.039 120,195.5C 121.376,196.705 122.542,198.038 123.5,199.5C 120.833,199.5 118.167,199.5 115.5,199.5C 115.5,198.5 115.5,197.5 115.5,196.5C 112.859,197.263 110.192,197.43 107.5,197C 105.365,196.241 104.032,194.741 103.5,192.5C 107.445,191.509 111.445,191.176 115.5,191.5C 116.336,183.171 112.67,180.005 104.5,182C 100.286,186.2 99.4522,191.034 102,196.5C 103.145,197.636 104.312,198.636 105.5,199.5C 102.5,199.5 99.5,199.5 96.5,199.5C 95.5263,197.915 94.0263,196.915 92,196.5C 91.501,192.179 91.3343,187.846 91.5,183.5C 98.1667,182.833 98.1667,182.167 91.5,181.5C 91.5,179.833 91.5,178.167 91.5,176.5C 90.5,176.5 89.5,176.5 88.5,176.5C 88.5,178.167 88.5,179.833 88.5,181.5C 84.5,182.167 84.5,182.833 88.5,183.5C 88.3342,188.179 88.5008,192.845 89,197.5C 89.7172,198.044 90.2172,198.711 90.5,199.5C 87.8333,199.5 85.1667,199.5 82.5,199.5C 82.6659,194.489 82.4993,189.489 82,184.5C 81.1667,183.667 80.3333,182.833 79.5,182C 75.8484,181.501 72.1817,181.335 68.5,181.5C 68.5,182.5 68.5,183.5 68.5,184.5C 71.1411,183.737 73.8078,183.57 76.5,184C 78.1066,185.049 78.7733,186.549 78.5,188.5C 74.1973,187.796 70.6973,189.13 68,192.5C 67.3333,193.833 67.3333,195.167 68,196.5C 69.045,197.373 69.8783,198.373 70.5,199.5C 68.1667,199.5 65.8333,199.5 63.5,199.5C 63.5,190.833 63.5,182.167 63.5,173.5C 62.5,173.5 61.5,173.5 60.5,173.5C 59.8333,176.167 59.1667,178.833 58.5,181.5C 49.035,181.372 45.535,186.039 48,195.5C 49.3756,196.705 50.5423,198.038 51.5,199.5C 47.5,199.5 43.5,199.5 39.5,199.5C 45.1824,194.562 45.849,189.062 41.5,183C 39.8008,182.042 37.9674,181.542 36,181.5C 33.1713,182.137 30.3379,182.47 27.5,182.5C 28.4544,188.104 28.7877,193.771 28.5,199.5C 24.5,199.5 20.5,199.5 16.5,199.5C 18.168,197.66 19.668,195.66 21,193.5C 21.4995,187.509 21.6662,181.509 21.5,175.5C 20.5,175.5 19.5,175.5 18.5,175.5C 18.8288,182.241 18.3288,188.908 17,195.5C 13.2596,198.413 9.92629,198.08 7,194.5C 5.6827,188.243 5.1827,181.909 5.5,175.5C 4.5,175.5 3.5,175.5 2.5,175.5C 2.33385,181.509 2.50051,187.509 3,193.5C 4.33203,195.66 5.83203,197.66 7.5,199.5C 4.83333,199.5 2.16667,199.5 -0.5,199.5C -0.5,132.833 -0.5,66.1667 -0.5,-0.5 Z"/></g><g><path style="opacity:1" fill="#e9e9e9" d="M 18.5,-0.5 C 20.8333,-0.5 23.1667,-0.5 25.5,-0.5C 29.4884,3.13091 29.4884,6.79757 25.5,10.5C 26.2421,11.2868 27.0754,11.9535 28,12.5C 31.2733,19.627 29.1067,23.627 21.5,24.5C 12.5467,22.1565 11.2134,17.4898 17.5,10.5C 13.3528,6.31825 13.6862,2.65159 18.5,-0.5 Z"/></g><g><path style="opacity:1" fill="#373737" d="M 20.5,1.5 C 26.4963,3.00558 26.9963,5.67225 22,9.5C 18.2517,7.21325 17.7517,4.54658 20.5,1.5 Z"/></g><g><path style="opacity:1" fill="#eee" d="M 5.5,5.5 C 7.45628,11.412 8.12295,17.7453 7.5,24.5C 6.5,24.5 5.5,24.5 4.5,24.5C 4.82662,19.7863 4.49329,15.1196 3.5,10.5C 2.39138,11.5896 1.39138,11.5896 0.5,10.5C 1.88178,8.45141 3.54845,6.78475 5.5,5.5 Z"/></g><g><path style="opacity:1" fill="#eee" d="M 48.5,5.5 C 50.4563,11.412 51.1229,17.7453 50.5,24.5C 49.5,24.5 48.5,24.5 47.5,24.5C 47.8266,19.7863 47.4933,15.1196 46.5,10.5C 45.3914,11.5896 44.3914,11.5896 43.5,10.5C 44.8818,8.45141 46.5484,6.78475 48.5,5.5 Z"/></g><g><path style="opacity:1" fill="#eaeaea" d="M 56.5,5.5 C 60.79,4.98738 64.6233,5.98738 68,8.5C 68.5477,14.5628 66.0477,19.0628 60.5,22C 63.5535,22.1786 66.5535,22.6786 69.5,23.5C 55.5195,26.5747 53.6861,23.9081 64,15.5C 64.8141,13.0982 64.6474,10.7649 63.5,8.5C 60.6549,8.2343 58.3216,7.2343 56.5,5.5 Z"/></g><g><path style="opacity:1" fill="#eaeaea" d="M 83.5,5.5 C 87.79,4.98738 91.6233,5.98738 95,8.5C 95.5477,14.5628 93.0477,19.0628 87.5,22C 90.5535,22.1786 93.5535,22.6786 96.5,23.5C 82.5195,26.5747 80.6861,23.9081 91,15.5C 91.8141,13.0982 91.6474,10.7649 90.5,8.5C 87.6549,8.2343 85.3216,7.2343 83.5,5.5 Z"/></g><g><path style="opacity:1" fill="#e4e4e4" d="M 105.5,5.5 C 115.145,5.33053 118.645,9.9972 116,19.5C 113.565,24.2238 109.731,25.7238 104.5,24C 99.0005,17.5021 99.3338,11.3354 105.5,5.5 Z"/></g><g><path style="opacity:1" fill="#eaeaea" d="M 121.5,5.5 C 125.79,4.98738 129.623,5.98738 133,8.5C 133.548,14.5628 131.048,19.0628 125.5,22C 128.553,22.1786 131.553,22.6786 134.5,23.5C 120.519,26.5747 118.686,23.9081 129,15.5C 129.814,13.0982 129.647,10.7649 128.5,8.5C 125.655,8.2343 123.322,7.2343 121.5,5.5 Z"/></g><g><path style="opacity:1" fill="#eee" d="M 143.5,5.5 C 145.456,11.412 146.123,17.7453 145.5,24.5C 144.5,24.5 143.5,24.5 142.5,24.5C 142.827,19.7863 142.493,15.1196 141.5,10.5C 140.391,11.5896 139.391,11.5896 138.5,10.5C 139.882,8.45141 141.548,6.78475 143.5,5.5 Z"/></g><g><path style="opacity:1" fill="#343434" d="M 106.5,7.5 C 111.566,7.58263 113.899,10.2493 113.5,15.5C 113.494,18.8571 111.994,21.1905 109,22.5C 107.108,22.2231 105.775,21.2231 105,19.5C 103.994,15.1985 104.494,11.1985 106.5,7.5 Z"/></g><g><path style="opacity:1" fill="#393939" d="M 20.5,11.5 C 25.2476,13.1645 26.9143,16.3312 25.5,21C 21.0032,23.6272 18.0032,22.4606 16.5,17.5C 16.8662,14.7441 18.1995,12.7441 20.5,11.5 Z"/></g><g><path style="opacity:1" fill="#f3f3f3" d="M 35.5,19.5 C 39.1612,19.3501 40.1612,20.8501 38.5,24C 34.7071,24.4866 33.7071,22.9866 35.5,19.5 Z"/></g><g><path style="opacity:1" fill="#f3f3f3" d="M 74.5,19.5 C 78.1612,19.3501 79.1612,20.8501 77.5,24C 73.7071,24.4866 72.7071,22.9866 74.5,19.5 Z"/></g><g><path style="opacity:1" fill="#fafafa" d="M 296.5,79.5 C 304.5,79.5 312.5,79.5 320.5,79.5C 320.5,80.5 320.5,81.5 320.5,82.5C 317.167,82.5 313.833,82.5 310.5,82.5C 310.5,92.1667 310.5,101.833 310.5,111.5C 309.167,111.5 307.833,111.5 306.5,111.5C 306.5,101.833 306.5,92.1667 306.5,82.5C 303.167,82.5 299.833,82.5 296.5,82.5C 296.5,81.5 296.5,80.5 296.5,79.5 Z"/></g><g><path style="opacity:1" fill="#f9f9f9" d="M 325.5,79.5 C 331.5,79.5 337.5,79.5 343.5,79.5C 343.5,80.5 343.5,81.5 343.5,82.5C 338.833,82.5 334.167,82.5 329.5,82.5C 329.5,86.5 329.5,90.5 329.5,94.5C 333.167,94.5 336.833,94.5 340.5,94.5C 340.5,95.5 340.5,96.5 340.5,97.5C 336.833,97.5 333.167,97.5 329.5,97.5C 329.5,102.167 329.5,106.833 329.5,111.5C 328.167,111.5 326.833,111.5 325.5,111.5C 325.5,100.833 325.5,90.1667 325.5,79.5 Z"/></g><g><path style="opacity:1" fill="#efefef" d="M 348.5,85.5 C 353.734,84.8346 358.568,85.8346 363,88.5C 365.086,92.6665 364.753,96.6665 362,100.5C 359.463,103.372 356.63,105.872 353.5,108C 357.755,108.796 361.921,108.629 366,107.5C 366.49,108.793 366.657,110.127 366.5,111.5C 360.5,111.5 354.5,111.5 348.5,111.5C 348.238,110.022 348.571,108.689 349.5,107.5C 355.153,104.685 358.486,100.185 359.5,94C 359.441,92.5643 359.108,91.231 358.5,90C 355.274,88.8011 351.941,88.3011 348.5,88.5C 348.5,87.5 348.5,86.5 348.5,85.5 Z"/></g><g><path style="opacity:1" fill="#efefef" d="M 405.5,85.5 C 410.734,84.8346 415.568,85.8346 420,88.5C 422.086,92.6665 421.753,96.6665 419,100.5C 416.463,103.372 413.63,105.872 410.5,108C 414.755,108.796 418.921,108.629 423,107.5C 423.49,108.793 423.657,110.127 423.5,111.5C 417.5,111.5 411.5,111.5 405.5,111.5C 405.238,110.022 405.571,108.689 406.5,107.5C 412.153,104.685 415.486,100.185 416.5,94C 416.441,92.5643 416.108,91.231 415.5,90C 412.274,88.8011 408.941,88.3011 405.5,88.5C 405.5,87.5 405.5,86.5 405.5,85.5 Z"/></g><g><path style="opacity:1" fill="#ededed" d="M 435.5,85.5 C 446.739,84.9091 451.572,90.2424 450,101.5C 447.851,109.657 442.684,112.824 434.5,111C 428.826,106.515 426.993,100.681 429,93.5C 430.305,90.0386 432.471,87.372 435.5,85.5 Z"/></g><g><path style="opacity:1" fill="#ededed" d="M 462.5,85.5 C 473.739,84.9091 478.572,90.2424 477,101.5C 474.851,109.657 469.684,112.824 461.5,111C 455.826,106.515 453.993,100.681 456,93.5C 457.305,90.0386 459.471,87.372 462.5,85.5 Z"/></g><g><path style="opacity:1" fill="#ededed" d="M 482.5,85.5 C 488.833,85.5 495.167,85.5 501.5,85.5C 501.605,89.687 500.772,93.687 499,97.5C 495.194,104.775 491.694,112.109 488.5,119.5C 486.712,119.785 485.045,119.452 483.5,118.5C 487.667,110.833 491.833,103.167 496,95.5C 496.977,93.26 497.477,90.9267 497.5,88.5C 492.518,89.0534 487.518,89.3867 482.5,89.5C 482.5,88.1667 482.5,86.8333 482.5,85.5 Z"/></g><g><path style="opacity:1" fill="#343434" d="M 437.5,88.5 C 440.617,88.6423 443.117,89.9756 445,92.5C 445.667,96.1667 445.667,99.8333 445,103.5C 442.91,108.689 439.577,109.689 435,106.5C 431.002,99.5993 431.835,93.5993 437.5,88.5 Z"/></g><g><path style="opacity:1" fill="#343434" d="M 464.5,88.5 C 467.617,88.6423 470.117,89.9756 472,92.5C 472.667,96.1667 472.667,99.8333 472,103.5C 469.91,108.689 466.577,109.689 462,106.5C 458.002,99.5993 458.835,93.5993 464.5,88.5 Z"/></g><g><path style="opacity:1" fill="#a0a0a0" d="M 387.5,97.5 C 388.568,96.5655 389.901,96.2322 391.5,96.5C 391.5,97.8333 391.5,99.1667 391.5,100.5C 390.5,100.5 389.5,100.5 388.5,100.5C 391.338,98.6941 391.005,97.6941 387.5,97.5 Z"/></g><g><path style="opacity:1" fill="#fdfdfd" d="M 387.5,97.5 C 391.005,97.6941 391.338,98.6941 388.5,100.5C 385.833,100.5 383.167,100.5 380.5,100.5C 380.5,99.5 380.5,98.5 380.5,97.5C 382.833,97.5 385.167,97.5 387.5,97.5 Z"/></g><g><path style="opacity:1" fill="#fdfdfd" d="M 799.5,136.5 C 799.5,153.5 799.5,170.5 799.5,187.5C 792.369,187.1 786.036,189.1 780.5,193.5C 779.628,195.45 778.961,197.45 778.5,199.5C 757.167,199.5 735.833,199.5 714.5,199.5C 711.845,184.64 710.345,169.64 710,154.5C 711.758,142.814 717.258,133.314 726.5,126C 749.96,112.2 770.96,115.2 789.5,135C 792.827,135.61 796.161,136.11 799.5,136.5 Z"/></g><g><path style="opacity:1" fill="#e3e3e3" d="M 306.5,128.5 C 306.5,130.833 306.5,133.167 306.5,135.5C 307.791,135.737 308.791,135.404 309.5,134.5C 316.063,134.589 318.563,137.922 317,144.5C 313.702,148.165 309.535,149.498 304.5,148.5C 303.874,141.416 304.541,134.75 306.5,128.5 Z"/></g><g><path style="opacity:1" fill="#e2e2e2" d="M 372.5,128.5 C 373.5,128.5 374.5,128.5 375.5,128.5C 375.5,135.167 375.5,141.833 375.5,148.5C 374.5,148.5 373.5,148.5 372.5,148.5C 372.5,141.833 372.5,135.167 372.5,128.5 Z"/></g><g><path style="opacity:1" fill="#ececec" d="M 448.5,128.5 C 450.197,130.305 451.03,132.639 451,135.5C 458.529,133.695 461.529,136.695 460,144.5C 459.535,145.931 458.701,147.097 457.5,148C 454.668,148.212 452.002,148.379 449.5,148.5C 448.503,141.866 448.17,135.2 448.5,128.5 Z"/></g><g><path style="opacity:1" fill="#9b9b9b" d="M 306.5,128.5 C 306.94,130.844 307.94,132.844 309.5,134.5C 308.791,135.404 307.791,135.737 306.5,135.5C 306.5,133.167 306.5,130.833 306.5,128.5 Z"/></g><g><path style="opacity:1" fill="#f0f0f0" d="M 341.5,129.5 C 345.394,129.11 349.06,129.777 352.5,131.5C 353.975,134.245 353.309,136.412 350.5,138C 355.719,141.189 355.719,144.522 350.5,148C 347.518,148.498 344.518,148.665 341.5,148.5C 341.5,142.167 341.5,135.833 341.5,129.5 Z"/></g><g><path style="opacity:1" fill="#dbdbdb" d="M 491.5,129.5 C 492.978,129.238 494.311,129.571 495.5,130.5C 494.68,132.111 493.346,132.778 491.5,132.5C 491.5,131.5 491.5,130.5 491.5,129.5 Z"/></g><g><path style="opacity:1" fill="#f3f3f3" d="M 396.5,130.5 C 398.176,131.183 398.843,132.517 398.5,134.5C 403.833,135.167 403.833,135.833 398.5,136.5C 398.335,139.518 398.502,142.518 399,145.5C 400.509,146.09 402.009,146.756 403.5,147.5C 401.051,148.91 398.884,148.576 397,146.5C 396.502,143.183 396.335,139.85 396.5,136.5C 392.5,135.833 392.5,135.167 396.5,134.5C 396.5,133.167 396.5,131.833 396.5,130.5 Z"/></g><g><path style="opacity:1" fill="#323232" d="M 343.5,131.5 C 346.38,131.033 348.713,131.866 350.5,134C 349.046,136.728 346.712,137.894 343.5,137.5C 343.5,135.5 343.5,133.5 343.5,131.5 Z"/></g><g><path style="opacity:1" fill="#e1e1e1" d="M 319.5,134.5 C 320.675,134.281 321.675,134.614 322.5,135.5C 323.383,138.325 324.55,140.992 326,143.5C 326.834,140.828 327.668,138.161 328.5,135.5C 329.365,134.417 330.365,134.251 331.5,135C 328.942,140.673 326.775,146.507 325,152.5C 323.759,154.421 322.259,154.754 320.5,153.5C 322.318,152.176 323.318,150.343 323.5,148C 322.586,143.348 321.252,138.848 319.5,134.5 Z"/></g><g><path style="opacity:1" fill="#dfdfdf" d="M 357.5,134.5 C 358.5,134.5 359.5,134.5 360.5,134.5C 360.335,138.182 360.501,141.848 361,145.5C 362.458,146.747 363.958,146.747 365.5,145.5C 366.489,141.893 366.823,138.226 366.5,134.5C 367.5,134.5 368.5,134.5 369.5,134.5C 369.5,139.167 369.5,143.833 369.5,148.5C 366.316,148.167 362.982,148 359.5,148C 359,147.5 358.5,147 358,146.5C 357.501,142.514 357.334,138.514 357.5,134.5 Z"/></g><g><path style="opacity:1" fill="#dfdfdf" d="M 379.5,134.5 C 380.5,134.5 381.5,134.5 382.5,134.5C 382.335,138.182 382.501,141.848 383,145.5C 384.458,146.747 385.958,146.747 387.5,145.5C 388.489,141.893 388.823,138.226 388.5,134.5C 389.5,134.5 390.5,134.5 391.5,134.5C 391.5,139.167 391.5,143.833 391.5,148.5C 388.316,148.167 384.982,148 381.5,148C 381,147.5 380.5,147 380,146.5C 379.501,142.514 379.334,138.514 379.5,134.5 Z"/></g><g><path style="opacity:1" fill="#e2e2e2" d="M 410.5,129.5 C 412.833,129.5 415.167,129.5 417.5,129.5C 417.578,132.487 416.411,133.153 414,131.5C 406.398,135.085 405.565,139.918 411.5,146C 413.568,146.687 415.568,146.52 417.5,145.5C 418.386,146.325 418.719,147.325 418.5,148.5C 409.053,149.881 404.553,145.881 405,136.5C 405.967,133.379 407.8,131.046 410.5,129.5 Z"/></g><g><path style="opacity:1" fill="#e1e1e1" d="M 437.5,134.5 C 440.415,134.746 443.415,135.079 446.5,135.5C 444.892,136.318 443.225,136.985 441.5,137.5C 440.511,141.107 440.177,144.774 440.5,148.5C 439.5,148.5 438.5,148.5 437.5,148.5C 437.5,143.833 437.5,139.167 437.5,134.5 Z"/></g><g><path style="opacity:1" fill="#ededed" d="M 464.5,134.5 C 467.881,134.46 471.214,134.793 474.5,135.5C 474.826,139.884 474.492,144.217 473.5,148.5C 472.005,147.888 470.338,147.888 468.5,148.5C 462.841,147.355 462.174,144.855 466.5,141C 468.577,140.808 470.577,140.308 472.5,139.5C 470.857,136.505 468.523,135.839 465.5,137.5C 464.614,136.675 464.281,135.675 464.5,134.5 Z"/></g><g><path style="opacity:1" fill="#343434" d="M 308.5,136.5 C 314.191,136.554 315.858,139.221 313.5,144.5C 311.878,146.439 310.044,146.772 308,145.5C 307.264,142.408 307.431,139.408 308.5,136.5 Z"/></g><g><path style="opacity:1" fill="#333" d="M 452.5,136.5 C 455.83,136.163 457.496,137.663 457.5,141C 457.437,145.745 455.27,147.245 451,145.5C 450.094,142.156 450.594,139.156 452.5,136.5 Z"/></g><g><path style="opacity:1" fill="#e8e8e8" d="M 424.5,134.5 C 432.33,133.495 435.496,136.828 434,144.5C 429.571,149.808 425.237,149.808 421,144.5C 420.182,140.469 421.349,137.136 424.5,134.5 Z"/></g><g><path style="opacity:1" fill="#383838" d="M 425.5,136.5 C 430.989,136.504 432.822,139.171 431,144.5C 428.16,147.371 425.826,147.037 424,143.5C 423.167,140.829 423.667,138.496 425.5,136.5 Z"/></g><g><path style="opacity:1" fill="#e3e3e3" d="M 481.5,134.5 C 483.833,134.5 486.167,134.5 488.5,134.5C 488.719,135.675 488.386,136.675 487.5,137.5C 483.798,136.017 481.465,137.184 480.5,141C 480.977,145.566 483.311,147.066 487.5,145.5C 488.386,146.325 488.719,147.325 488.5,148.5C 477.147,148.172 474.814,143.505 481.5,134.5 Z"/></g><g><path style="opacity:1" fill="#d8d8d8" d="M 491.5,134.5 C 492.5,134.5 493.5,134.5 494.5,134.5C 494.5,139.167 494.5,143.833 494.5,148.5C 493.5,148.5 492.5,148.5 491.5,148.5C 491.5,143.833 491.5,139.167 491.5,134.5 Z"/></g><g><path style="opacity:1" fill="#343434" d="M 343.5,139.5 C 347.07,138.893 349.737,140.06 351.5,143C 349.737,145.94 347.07,147.107 343.5,146.5C 343.5,144.167 343.5,141.833 343.5,139.5 Z"/></g><g><path style="opacity:1" fill="#373737" d="M 468.5,142.5 C 469.833,142.5 471.167,142.5 472.5,142.5C 471.969,145.779 469.969,147.113 466.5,146.5C 466.527,144.801 467.194,143.467 468.5,142.5 Z"/></g><g><path style="opacity:1" fill="#ebebeb" d="M 60.5,173.5 C 61.5,173.5 62.5,173.5 63.5,173.5C 63.5,182.167 63.5,190.833 63.5,199.5C 59.5,199.5 55.5,199.5 51.5,199.5C 50.5423,198.038 49.3756,196.705 48,195.5C 45.535,186.039 49.035,181.372 58.5,181.5C 58.56,182.043 58.8933,182.376 59.5,182.5C 60.4841,179.572 60.8174,176.572 60.5,173.5 Z"/></g><g><path style="opacity:1" fill="#ebebeb" d="M 132.5,173.5 C 133.5,173.5 134.5,173.5 135.5,173.5C 135.5,182.167 135.5,190.833 135.5,199.5C 131.5,199.5 127.5,199.5 123.5,199.5C 122.542,198.038 121.376,196.705 120,195.5C 117.535,186.039 121.035,181.372 130.5,181.5C 130.56,182.043 130.893,182.376 131.5,182.5C 132.484,179.572 132.817,176.572 132.5,173.5 Z"/></g><g><path style="opacity:1" fill="#f2f2f2" d="M 16.5,199.5 C 13.5,199.5 10.5,199.5 7.5,199.5C 5.83203,197.66 4.33203,195.66 3,193.5C 2.50051,187.509 2.33385,181.509 2.5,175.5C 3.5,175.5 4.5,175.5 5.5,175.5C 5.1827,181.909 5.6827,188.243 7,194.5C 9.92629,198.08 13.2596,198.413 17,195.5C 18.3288,188.908 18.8288,182.241 18.5,175.5C 19.5,175.5 20.5,175.5 21.5,175.5C 21.6662,181.509 21.4995,187.509 21,193.5C 19.668,195.66 18.168,197.66 16.5,199.5 Z"/></g><g><path style="opacity:1" fill="#959595" d="M 60.5,173.5 C 60.8174,176.572 60.4841,179.572 59.5,182.5C 58.8933,182.376 58.56,182.043 58.5,181.5C 59.1667,178.833 59.8333,176.167 60.5,173.5 Z"/></g><g><path style="opacity:1" fill="#959595" d="M 132.5,173.5 C 132.817,176.572 132.484,179.572 131.5,182.5C 130.893,182.376 130.56,182.043 130.5,181.5C 131.167,178.833 131.833,176.167 132.5,173.5 Z"/></g><g><path style="opacity:1" fill="#efefef" d="M 96.5,199.5 C 94.5,199.5 92.5,199.5 90.5,199.5C 90.2172,198.711 89.7172,198.044 89,197.5C 88.5008,192.845 88.3342,188.179 88.5,183.5C 84.5,182.833 84.5,182.167 88.5,181.5C 88.5,179.833 88.5,178.167 88.5,176.5C 89.5,176.5 90.5,176.5 91.5,176.5C 91.5,178.167 91.5,179.833 91.5,181.5C 98.1667,182.167 98.1667,182.833 91.5,183.5C 91.3343,187.846 91.501,192.179 92,196.5C 94.0263,196.915 95.5263,197.915 96.5,199.5 Z"/></g><g><path style="opacity:1" fill="#393939" d="M 744.5,132.5 C 758.709,131.543 767.876,137.877 772,151.5C 771.765,171.868 761.599,180.368 741.5,177C 729.826,171.975 724.992,163.142 727,150.5C 729.683,141.318 735.517,135.318 744.5,132.5 Z"/></g><g><path style="opacity:1" fill="#f9f9f9" d="M 745.5,136.5 C 757.502,135.749 765.336,141.082 769,152.5C 768.823,170.002 759.99,177.502 742.5,175C 729.672,167.85 726.506,157.683 733,144.5C 736.586,140.714 740.753,138.047 745.5,136.5 Z"/></g><g><path style="opacity:1" fill="#323232" d="M 745.5,140.5 C 748.119,140.232 750.619,140.565 753,141.5C 753.498,144.817 753.665,148.15 753.5,151.5C 757.182,151.335 760.848,151.501 764.5,152C 765.833,154.667 765.833,157.333 764.5,160C 760.848,160.499 757.182,160.665 753.5,160.5C 753.665,164.182 753.499,167.848 753,171.5C 750.084,173.013 747.418,172.68 745,170.5C 744.502,167.183 744.335,163.85 744.5,160.5C 741.15,160.665 737.817,160.498 734.5,160C 732.987,157.084 733.32,154.418 735.5,152C 738.482,151.502 741.482,151.335 744.5,151.5C 744.244,147.731 744.577,144.064 745.5,140.5 Z"/></g><g><path style="opacity:1" fill="#eaeaea" d="M 210.5,199.5 C 206.167,199.5 201.833,199.5 197.5,199.5C 199.388,196.101 201.888,193.101 205,190.5C 205.814,188.098 205.647,185.765 204.5,183.5C 202.146,182.94 199.813,182.273 197.5,181.5C 200.876,180.289 204.209,180.456 207.5,182C 210.167,188.479 208.167,193.479 201.5,197C 204.992,196.93 207.992,197.763 210.5,199.5 Z"/></g><g><path style="opacity:1" fill="#e4e4e4" d="M 226.5,199.5 C 223.833,199.5 221.167,199.5 218.5,199.5C 214.835,195.919 213.668,191.585 215,186.5C 219.124,179.387 224.124,178.72 230,184.5C 231.441,190.228 230.274,195.228 226.5,199.5 Z"/></g><g><path style="opacity:1" fill="#eee" d="M 251.5,199.5 C 250.5,199.5 249.5,199.5 248.5,199.5C 248.827,194.786 248.493,190.12 247.5,185.5C 246.391,186.59 245.391,186.59 244.5,185.5C 245.891,183.11 247.891,181.443 250.5,180.5C 251.496,186.798 251.83,193.132 251.5,199.5 Z"/></g><g><path style="opacity:1" fill="#eaeaea" d="M 270.5,199.5 C 266.167,199.5 261.833,199.5 257.5,199.5C 259.388,196.101 261.888,193.101 265,190.5C 265.814,188.098 265.647,185.765 264.5,183.5C 262.146,182.94 259.813,182.273 257.5,181.5C 260.876,180.289 264.209,180.456 267.5,182C 270.167,188.479 268.167,193.479 261.5,197C 264.992,196.93 267.992,197.763 270.5,199.5 Z"/></g><g><path style="opacity:1" fill="#eaeaea" d="M 297.5,199.5 C 293.167,199.5 288.833,199.5 284.5,199.5C 286.388,196.101 288.888,193.101 292,190.5C 292.814,188.098 292.647,185.765 291.5,183.5C 289.146,182.94 286.813,182.273 284.5,181.5C 287.876,180.289 291.209,180.456 294.5,182C 297.167,188.479 295.167,193.479 288.5,197C 291.992,196.93 294.992,197.763 297.5,199.5 Z"/></g><g><path style="opacity:1" fill="#e4e4e4" d="M 313.5,199.5 C 310.833,199.5 308.167,199.5 305.5,199.5C 301.835,195.919 300.668,191.585 302,186.5C 306.124,179.387 311.124,178.72 317,184.5C 318.441,190.228 317.274,195.228 313.5,199.5 Z"/></g><g><path style="opacity:1" fill="#eaeaea" d="M 334.5,199.5 C 330.167,199.5 325.833,199.5 321.5,199.5C 323.388,196.101 325.888,193.101 329,190.5C 329.814,188.098 329.647,185.765 328.5,183.5C 326.146,182.94 323.813,182.273 321.5,181.5C 324.876,180.289 328.209,180.456 331.5,182C 334.167,188.479 332.167,193.479 325.5,197C 328.992,196.93 331.992,197.763 334.5,199.5 Z"/></g><g><path style="opacity:1" fill="#eee" d="M 346.5,199.5 C 345.5,199.5 344.5,199.5 343.5,199.5C 343.827,194.786 343.493,190.12 342.5,185.5C 341.391,186.59 340.391,186.59 339.5,185.5C 340.891,183.11 342.891,181.443 345.5,180.5C 346.496,186.798 346.83,193.132 346.5,199.5 Z"/></g><g><path style="opacity:1" fill="#eaeaea" d="M 39.5,199.5 C 35.8333,199.5 32.1667,199.5 28.5,199.5C 28.7877,193.771 28.4544,188.104 27.5,182.5C 30.3379,182.47 33.1713,182.137 36,181.5C 37.9674,181.542 39.8008,182.042 41.5,183C 45.849,189.062 45.1824,194.562 39.5,199.5 Z"/></g><g><path style="opacity:1" fill="#ddd" d="M 82.5,199.5 C 78.5,199.5 74.5,199.5 70.5,199.5C 69.8783,198.373 69.045,197.373 68,196.5C 67.3333,195.167 67.3333,193.833 68,192.5C 70.6973,189.13 74.1973,187.796 78.5,188.5C 78.7733,186.549 78.1066,185.049 76.5,184C 73.8078,183.57 71.1411,183.737 68.5,184.5C 68.5,183.5 68.5,182.5 68.5,181.5C 72.1817,181.335 75.8484,181.501 79.5,182C 80.3333,182.833 81.1667,183.667 82,184.5C 82.4993,189.489 82.6659,194.489 82.5,199.5 Z"/></g><g><path style="opacity:1" fill="#eee" d="M 115.5,199.5 C 112.167,199.5 108.833,199.5 105.5,199.5C 104.312,198.636 103.145,197.636 102,196.5C 99.4522,191.034 100.286,186.2 104.5,182C 112.67,180.005 116.336,183.171 115.5,191.5C 111.445,191.176 107.445,191.509 103.5,192.5C 104.032,194.741 105.365,196.241 107.5,197C 110.192,197.43 112.859,197.263 115.5,196.5C 115.5,197.5 115.5,198.5 115.5,199.5 Z"/></g><g><path style="opacity:1" fill="#dcdcdc" d="M 184.5,199.5 C 183.167,199.5 181.833,199.5 180.5,199.5C 180.827,194.456 180.494,189.456 179.5,184.5C 177.5,183.167 175.5,183.167 173.5,184.5C 172.506,189.456 172.173,194.456 172.5,199.5C 171.167,199.5 169.833,199.5 168.5,199.5C 168.5,193.5 168.5,187.5 168.5,181.5C 172.75,181.93 177.083,182.097 181.5,182C 182.333,182.833 183.167,183.667 184,184.5C 184.499,189.489 184.666,194.489 184.5,199.5 Z"/></g><g><path style="opacity:1" fill="#343434" d="M 220.5,182.5 C 225.566,182.583 227.899,185.249 227.5,190.5C 227.494,193.857 225.994,196.19 223,197.5C 221.108,197.223 219.775,196.223 219,194.5C 217.994,190.198 218.494,186.198 220.5,182.5 Z"/></g><g><path style="opacity:1" fill="#343434" d="M 307.5,182.5 C 312.566,182.583 314.899,185.249 314.5,190.5C 314.494,193.857 312.994,196.19 310,197.5C 308.108,197.223 306.775,196.223 306,194.5C 304.994,190.198 305.494,186.198 307.5,182.5 Z"/></g><g><path style="opacity:1" fill="#333" d="M 33.5,183.5 C 38.4911,183.158 40.8244,185.491 40.5,190.5C 40.3132,195.919 37.6465,197.919 32.5,196.5C 31.0009,191.892 31.3342,187.558 33.5,183.5 Z"/></g><g><path style="opacity:1" fill="#363636" d="M 54.5,183.5 C 56.2624,183.357 57.9291,183.691 59.5,184.5C 60.4909,188.445 60.8242,192.445 60.5,196.5C 52.7067,198.542 49.5401,195.542 51,187.5C 51.6897,185.65 52.8564,184.316 54.5,183.5 Z"/></g><g><path style="opacity:1" fill="#383838" d="M 106.5,183.5 C 110.833,183.167 112.833,185.167 112.5,189.5C 109.5,189.5 106.5,189.5 103.5,189.5C 103.615,187.053 104.615,185.053 106.5,183.5 Z"/></g><g><path style="opacity:1" fill="#363636" d="M 126.5,183.5 C 128.262,183.357 129.929,183.691 131.5,184.5C 132.491,188.445 132.824,192.445 132.5,196.5C 124.707,198.542 121.54,195.542 123,187.5C 123.69,185.65 124.856,184.316 126.5,183.5 Z"/></g><g><path style="opacity:1" fill="#ededed" d="M 159.5,199.5 C 156.833,199.5 154.167,199.5 151.5,199.5C 150.542,198.038 149.376,196.705 148,195.5C 145.991,184.106 150.491,179.94 161.5,183C 165.849,189.062 165.182,194.562 159.5,199.5 Z"/></g><g><path style="opacity:1" fill="#383838" d="M 153.5,183.5 C 161.477,184.67 163.477,188.837 159.5,196C 155.793,198.209 152.96,197.376 151,193.5C 149.861,189.579 150.695,186.246 153.5,183.5 Z"/></g><g><path style="opacity:1" fill="#323232" d="M 180.5,199.5 C 177.833,199.5 175.167,199.5 172.5,199.5C 172.173,194.456 172.506,189.456 173.5,184.5C 175.5,183.167 177.5,183.167 179.5,184.5C 180.494,189.456 180.827,194.456 180.5,199.5 Z"/></g><g><path style="opacity:1" fill="#323232" d="M 799.5,187.5 C 799.5,191.5 799.5,195.5 799.5,199.5C 792.5,199.5 785.5,199.5 778.5,199.5C 778.961,197.45 779.628,195.45 780.5,193.5C 786.036,189.1 792.369,187.1 799.5,187.5 Z"/></g><g><path style="opacity:1" fill="#333" d="M 75.5,190.5 C 76.5,190.5 77.5,190.5 78.5,190.5C 79.4352,195.672 77.4352,197.839 72.5,197C 70.7447,193.495 71.7447,191.328 75.5,190.5 Z"/></g><g><path style="opacity:1" fill="#f3f3f3" d="M 238.5,199.5 C 237.5,199.5 236.5,199.5 235.5,199.5C 233.889,197.167 234.389,195.5 237,194.5C 239.611,195.5 240.111,197.167 238.5,199.5 Z"/></g><g><path style="opacity:1" fill="#f3f3f3" d="M 278.5,199.5 C 277.5,199.5 276.5,199.5 275.5,199.5C 273.889,197.167 274.389,195.5 277,194.5C 279.611,195.5 280.111,197.167 278.5,199.5 Z"/></g></svg>