<svg xmlns="http://www.w3.org/2000/svg" xmlns:xlink="http://www.w3.org/1999/xlink" width="800" height="200" version="1.1" style="shape-rendering:geometricPrecision;text-rendering:geometricPrecision;image-rendering:optimizeQuality;fill-rule:evenodd;clip-rule:evenodd"><g><path style="opacity:1" fill="#313131" d="M -0.5,-0.5 C 8.5,-0.5 17.5,-0.5 26.5,-0.5C 19.8853,3.70753 17.7186,9.70753 20,17.5C 23.3562,21.9483 27.3562,22.6149 32,19.5C 34.661,14.7231 33.8277,10.8897 29.5,8C 26.9032,7.719 24.5699,7.55234 22.5,7.5C 23.7304,3.60477 26.3971,1.60477 30.5,1.5C 31.2975,1.04311 31.6309,0.376442 31.5,-0.5C 287.5,-0.5 543.5,-0.5 799.5,-0.5C 799.5,32.8333 799.5,66.1667 799.5,99.5C 793.167,99.5 786.833,99.5 780.5,99.5C 780.5,107.833 780.5,116.167 780.5,124.5C 775.967,125.568 771.634,127.234 767.5,129.5C 761.515,124.015 755.681,118.348 750,112.5C 740.951,121.047 732.451,130.047 724.5,139.5C 729.28,145.783 734.613,151.616 740.5,157C 738.117,161.26 736.451,165.76 735.5,170.5C 727.5,170.5 719.5,170.5 711.5,170.5C 711.5,180.167 711.5,189.833 711.5,199.5C 474.167,199.5 236.833,199.5 -0.5,199.5C -0.5,132.833 -0.5,66.1667 -0.5,-0.5 Z"/></g><g><path style="opacity:1" fill="#eaeaea" d="M 26.5,-0.5 C 28.1667,-0.5 29.8333,-0.5 31.5,-0.5C 31.6309,0.376442 31.2975,1.04311 30.5,1.5C 26.3971,1.60477 23.7304,3.60477 22.5,7.5C 24.5699,7.55234 26.9032,7.719 29.5,8C 33.8277,10.8897 34.661,14.7231 32,19.5C 27.3562,22.6149 23.3562,21.9483 20,17.5C 17.7186,9.70753 19.8853,3.70753 26.5,-0.5 Z"/></g><g><path style="opacity:1" fill="#e8e8e8" d="M 5.5,4.5 C 7.85684,4.33669 10.1902,4.50335 12.5,5C 16.7925,10.6824 16.4592,16.0158 11.5,21C 7.21938,22.4582 4.05271,21.2916 2,17.5C 0.539442,12.3265 1.70611,7.99316 5.5,4.5 Z"/></g><g><path style="opacity:1" fill="#e8e8e8" d="M 50.5,4.5 C 52.8568,4.33669 55.1902,4.50335 57.5,5C 61.7925,10.6824 61.4592,16.0158 56.5,21C 52.2194,22.4582 49.0527,21.2916 47,17.5C 45.5394,12.3265 46.7061,7.99316 50.5,4.5 Z"/></g><g><path style="opacity:1" fill="#f6f6f6" d="M 68.5,21.5 C 68.8256,17.1161 68.4922,12.7828 67.5,8.5C 66.8933,8.62358 66.56,8.95691 66.5,9.5C 64.6262,11.0948 63.7929,10.7615 64,8.5C 65.9734,7.36008 67.8067,6.02675 69.5,4.5C 69.8333,7.33333 70.1667,10.1667 70.5,13C 70.4809,16.2515 69.8142,19.0849 68.5,21.5 Z"/></g><g><path style="opacity:1" fill="#e8e8e8" d="M 104.5,4.5 C 106.857,4.33669 109.19,4.50335 111.5,5C 115.793,10.6824 115.459,16.0158 110.5,21C 106.219,22.4582 103.053,21.2916 101,17.5C 99.5394,12.3265 100.706,7.99316 104.5,4.5 Z"/></g><g><path style="opacity:1" fill="#363636" d="M 6.5,6.5 C 8.58236,6.47199 10.4157,7.13865 12,8.5C 12.6667,11.5 12.6667,14.5 12,17.5C 9.32123,20.1715 6.9879,19.8382 5,16.5C 4.03704,12.8513 4.53704,9.51798 6.5,6.5 Z"/></g><g><path style="opacity:1" fill="#363636" d="M 51.5,6.5 C 53.5824,6.47199 55.4157,7.13865 57,8.5C 57.6667,11.5 57.6667,14.5 57,17.5C 54.3212,20.1715 51.9879,19.8382 50,16.5C 49.037,12.8513 49.537,9.51798 51.5,6.5 Z"/></g><g><path style="opacity:1" fill="#363636" d="M 105.5,6.5 C 107.582,6.47199 109.416,7.13865 111,8.5C 111.667,11.5 111.667,14.5 111,17.5C 108.321,20.1715 105.988,19.8382 104,16.5C 103.037,12.8513 103.537,9.51798 105.5,6.5 Z"/></g><g><path style="opacity:1" fill="#343434" d="M 24.5,9.5 C 30.7577,10.4774 32.0911,13.6441 28.5,19C 24.4634,19.3267 22.4634,17.3267 22.5,13C 22.8618,11.5657 23.5285,10.3991 24.5,9.5 Z"/></g><g><path style="opacity:1" fill="#878787" d="M 66.5,9.5 C 66.56,8.95691 66.8933,8.62358 67.5,8.5C 68.4922,12.7828 68.8256,17.1161 68.5,21.5C 67.8333,17.5 67.1667,13.5 66.5,9.5 Z"/></g><g><path style="opacity:1" fill="#efefef" d="M 39.5,17.5 C 40.5,17.5 41.5,17.5 42.5,17.5C 42.5,18.8333 42.5,20.1667 42.5,21.5C 41.1667,21.5 39.8333,21.5 38.5,21.5C 38.4326,20.0413 38.7659,18.7079 39.5,17.5 Z"/></g><g><path style="opacity:1" fill="#efefef" d="M 77.5,17.5 C 78.5,17.5 79.5,17.5 80.5,17.5C 80.5,18.8333 80.5,20.1667 80.5,21.5C 79.1667,21.5 77.8333,21.5 76.5,21.5C 76.4326,20.0413 76.7659,18.7079 77.5,17.5 Z"/></g><g><path style="opacity:1" fill="#f2f2f2" d="M 84.5,4.5 C 87.8826,4.25721 91.0492,4.92388 94,6.5C 95.4187,12.4401 93.252,16.6067 87.5,19C 90.5535,19.1786 93.5535,19.6786 96.5,20.5C 92.5546,21.4909 88.5546,21.8242 84.5,21.5C 86.003,18.4765 88.1697,15.8098 91,13.5C 91.8077,11.4213 91.641,9.42131 90.5,7.5C 87.9527,7.22904 85.9527,6.22904 84.5,4.5 Z"/></g><g><path style="opacity:1" fill="#f2f2f2" d="M 118.5,4.5 C 121.883,4.25721 125.049,4.92388 128,6.5C 129.419,12.4401 127.252,16.6067 121.5,19C 124.553,19.1786 127.553,19.6786 130.5,20.5C 126.555,21.4909 122.555,21.8242 118.5,21.5C 120.003,18.4765 122.17,15.8098 125,13.5C 125.808,11.4213 125.641,9.42131 124.5,7.5C 121.953,7.22904 119.953,6.22904 118.5,4.5 Z"/></g><g><path style="opacity:1" fill="#f2f2f2" d="M 134.5,4.5 C 137.883,4.25721 141.049,4.92388 144,6.5C 145.419,12.4401 143.252,16.6067 137.5,19C 140.553,19.1786 143.553,19.6786 146.5,20.5C 142.555,21.4909 138.555,21.8242 134.5,21.5C 136.003,18.4765 138.17,15.8098 141,13.5C 141.808,11.4213 141.641,9.42131 140.5,7.5C 137.953,7.22904 135.953,6.22904 134.5,4.5 Z"/></g><g><path style="opacity:1" fill="#eee" d="M 384.5,76.5 C 384.17,83.1998 384.503,89.8665 385.5,96.5C 386.107,96.3764 386.44,96.0431 386.5,95.5C 389.146,93.5211 391.479,91.1878 393.5,88.5C 395.421,87.359 397.421,87.1923 399.5,88C 396.465,91.3702 393.132,94.3702 389.5,97C 393.999,101.003 397.999,105.503 401.5,110.5C 399.5,111.833 397.5,111.833 395.5,110.5C 392.855,106.524 389.855,102.857 386.5,99.5C 386.44,98.9569 386.107,98.6236 385.5,98.5C 384.508,102.783 384.174,107.116 384.5,111.5C 383.167,111.5 381.833,111.5 380.5,111.5C 380.5,99.8333 380.5,88.1667 380.5,76.5C 381.833,76.5 383.167,76.5 384.5,76.5 Z"/></g><g><path style="opacity:1" fill="#ebebeb" d="M 343.5,77.5 C 347.909,76.899 349.242,78.5657 347.5,82.5C 342.732,83.8893 341.398,82.2226 343.5,77.5 Z"/></g><g><path style="opacity:1" fill="#ececec" d="M 233.5,79.5 C 237.833,79.5 242.167,79.5 246.5,79.5C 246.5,80.8333 246.5,82.1667 246.5,83.5C 242.854,82.7166 239.188,82.5499 235.5,83C 232.447,84.5808 231.78,86.9141 233.5,90C 239.041,91.685 243.874,94.5183 248,98.5C 249.928,104.479 248.095,108.646 242.5,111C 237.833,111.667 233.167,111.667 228.5,111C 227.612,109.283 228.279,108.116 230.5,107.5C 235.145,108.907 239.645,108.573 244,106.5C 245.041,103.364 244.207,100.864 241.5,99C 236.62,97.6451 232.453,95.1451 229,91.5C 227.309,86.1311 228.809,82.1311 233.5,79.5 Z"/></g><g><path style="opacity:1" fill="#fbfbfb" d="M 320.5,79.5 C 321.833,79.5 323.167,79.5 324.5,79.5C 324.5,89.1667 324.5,98.8333 324.5,108.5C 329.5,108.5 334.5,108.5 339.5,108.5C 339.5,109.5 339.5,110.5 339.5,111.5C 333.167,111.5 326.833,111.5 320.5,111.5C 320.5,100.833 320.5,90.1667 320.5,79.5 Z"/></g><g><path style="opacity:1" fill="#eaeaea" d="M 426.5,79.5 C 429.518,79.3354 432.518,79.502 435.5,80C 436.337,81.0113 436.67,82.1779 436.5,83.5C 422.317,81.5241 417.15,87.5241 421,101.5C 425.288,107.763 431.121,109.763 438.5,107.5C 438.5,108.833 438.5,110.167 438.5,111.5C 427.548,114.035 419.714,110.368 415,100.5C 413.664,90.4953 417.497,83.4953 426.5,79.5 Z"/></g><g><path style="opacity:1" fill="#f2f2f2" d="M 515.5,80.5 C 517.344,82.2789 518.01,84.6122 517.5,87.5C 519.833,87.5 522.167,87.5 524.5,87.5C 524.5,88.5 524.5,89.5 524.5,90.5C 522.167,90.5 519.833,90.5 517.5,90.5C 517.242,95.7175 517.575,100.884 518.5,106C 520.287,108.134 522.62,108.967 525.5,108.5C 525.5,109.5 525.5,110.5 525.5,111.5C 522.482,111.665 519.482,111.498 516.5,111C 516,110.5 515.5,110 515,109.5C 513.584,103.285 513.084,96.9522 513.5,90.5C 512.167,90.5 510.833,90.5 509.5,90.5C 509.5,89.5 509.5,88.5 509.5,87.5C 510.833,87.5 512.167,87.5 513.5,87.5C 514.268,85.2854 514.935,82.9521 515.5,80.5 Z"/></g><g><path style="opacity:1" fill="#a6a6a6" d="M 515.5,80.5 C 514.935,82.9521 514.268,85.2854 513.5,87.5C 512.99,84.6122 513.656,82.2789 515.5,80.5 Z"/></g><g><path style="opacity:1" fill="#9f9f9f" d="M 384.5,76.5 C 385.167,82.8333 385.833,89.1667 386.5,95.5C 386.44,96.0431 386.107,96.3764 385.5,96.5C 384.503,89.8665 384.17,83.1998 384.5,76.5 Z"/></g><g><path style="opacity:1" fill="#ebebeb" d="M 252.5,87.5 C 254.5,87.5 256.5,87.5 258.5,87.5C 260.023,93.572 261.857,99.572 264,105.5C 266.019,99.6133 267.519,93.6133 268.5,87.5C 270.167,87.5 271.833,87.5 273.5,87.5C 269.396,98.0472 265.562,108.714 262,119.5C 260.152,122.041 257.652,123.041 254.5,122.5C 254.281,121.325 254.614,120.325 255.5,119.5C 259.564,118.163 261.564,115.33 261.5,111C 259.174,102.849 256.174,95.0157 252.5,87.5 Z"/></g><g><path style="opacity:1" fill="#e7e7e7" d="M 276.5,87.5 C 278.821,87.2289 280.821,87.8955 282.5,89.5C 287.289,86.9643 292.122,86.9643 297,89.5C 302.695,86.2518 307.695,86.9185 312,91.5C 312.5,98.1583 312.666,104.825 312.5,111.5C 310.833,111.5 309.167,111.5 307.5,111.5C 308.469,104.806 308.469,98.1398 307.5,91.5C 304.105,89.8539 300.939,90.1873 298,92.5C 297.5,98.8246 297.334,105.158 297.5,111.5C 295.833,111.5 294.167,111.5 292.5,111.5C 292.666,105.158 292.5,98.8246 292,92.5C 288.925,89.9406 285.925,89.9406 283,92.5C 282.5,98.8246 282.334,105.158 282.5,111.5C 280.833,111.5 279.167,111.5 277.5,111.5C 277.736,103.458 277.403,95.4583 276.5,87.5 Z"/></g><g><path style="opacity:1" fill="#e0e0e0" d="M 345.5,87.5 C 347.467,95.0968 348.134,103.097 347.5,111.5C 345.833,111.5 344.167,111.5 342.5,111.5C 342.5,103.833 342.5,96.1667 342.5,88.5C 343.791,88.7373 344.791,88.404 345.5,87.5 Z"/></g><g><path style="opacity:1" fill="#e9e9e9" d="M 352.5,87.5 C 355.044,87.1043 357.211,87.771 359,89.5C 364.599,86.3057 369.599,86.9724 374,91.5C 374.5,98.1583 374.666,104.825 374.5,111.5C 372.833,111.5 371.167,111.5 369.5,111.5C 370.332,105.516 370.499,99.5161 370,93.5C 366.641,89.9115 362.974,89.5782 359,92.5C 358.5,98.8246 358.334,105.158 358.5,111.5C 356.833,111.5 355.167,111.5 353.5,111.5C 353.77,103.445 353.437,95.445 352.5,87.5 Z"/></g><g><path style="opacity:1" fill="#e2e2e2" d="M 442.5,87.5 C 444.167,87.5 445.833,87.5 447.5,87.5C 447.351,88.552 447.517,89.552 448,90.5C 450.984,87.8999 454.484,86.8999 458.5,87.5C 459.101,91.909 457.434,93.2424 453.5,91.5C 451.813,91.7605 450.313,92.4272 449,93.5C 448.501,99.4908 448.334,105.491 448.5,111.5C 446.833,111.5 445.167,111.5 443.5,111.5C 443.736,103.458 443.403,95.4583 442.5,87.5 Z"/></g><g><path style="opacity:1" fill="#efefef" d="M 467.5,87.5 C 477.67,86.0049 482.336,90.3382 481.5,100.5C 476.167,100.5 470.833,100.5 465.5,100.5C 465.544,104.09 467.211,106.59 470.5,108C 474.188,108.45 477.854,108.283 481.5,107.5C 481.67,108.822 481.337,109.989 480.5,111C 473.007,113.057 466.84,111.223 462,105.5C 459.317,98.0531 461.15,92.0531 467.5,87.5 Z"/></g><g><path style="opacity:1" fill="#ebebeb" d="M 487.5,87.5 C 491.846,87.3343 496.179,87.501 500.5,88C 501.416,88.3742 502.25,88.8742 503,89.5C 504.247,96.7502 505.08,104.084 505.5,111.5C 503.234,111.859 501.401,111.192 500,109.5C 496.405,111.456 492.572,111.956 488.5,111C 484.231,106.291 484.564,101.958 489.5,98C 493.06,96.7633 496.727,96.2633 500.5,96.5C 500.714,94.8561 500.38,93.3561 499.5,92C 495.235,90.2649 490.901,90.0983 486.5,91.5C 486.433,90.0413 486.766,88.7079 487.5,87.5 Z"/></g><g><path style="opacity:1" fill="#ebebeb" d="M 536.5,87.5 C 550.604,87.0957 555.104,93.4291 550,106.5C 543.953,112.728 537.62,113.062 531,107.5C 526.642,99.0789 528.476,92.4122 536.5,87.5 Z"/></g><g><path style="opacity:1" fill="#e2e2e2" d="M 556.5,87.5 C 558.167,87.5 559.833,87.5 561.5,87.5C 561.351,88.552 561.517,89.552 562,90.5C 564.984,87.8999 568.484,86.8999 572.5,87.5C 573.101,91.909 571.434,93.2424 567.5,91.5C 565.813,91.7605 564.313,92.4272 563,93.5C 562.501,99.4908 562.334,105.491 562.5,111.5C 560.833,111.5 559.167,111.5 557.5,111.5C 557.736,103.458 557.403,95.4583 556.5,87.5 Z"/></g><g><path style="opacity:1" fill="#363636" d="M 469.5,90.5 C 474.713,90.0867 477.38,92.42 477.5,97.5C 473.5,97.5 469.5,97.5 465.5,97.5C 465.571,94.3477 466.905,92.0144 469.5,90.5 Z"/></g><g><path style="opacity:1" fill="#323232" d="M 538.5,90.5 C 544.713,90.5478 547.713,93.7144 547.5,100C 546.039,108.317 541.873,110.151 535,105.5C 532.206,99.4076 533.373,94.4076 538.5,90.5 Z"/></g><g><path style="opacity:1" fill="#333" d="M 496.5,99.5 C 497.833,99.5 499.167,99.5 500.5,99.5C 501.815,106.799 498.815,109.632 491.5,108C 489.041,105.911 489.041,103.745 491.5,101.5C 493.336,100.972 495.003,100.306 496.5,99.5 Z"/></g><g><path style="opacity:1" fill="#f8f8f8" d="M 799.5,99.5 C 799.5,101.833 799.5,104.167 799.5,106.5C 795.5,106.5 791.5,106.5 787.5,106.5C 787.666,113.508 787.5,120.508 787,127.5C 786.167,128.333 785.333,129.167 784.5,130C 778.493,132.087 772.659,134.587 767,137.5C 760.751,133.257 755.085,128.257 750,122.5C 745,127.5 740,132.5 735,137.5C 734.333,138.5 734.333,139.5 735,140.5C 739,144.5 743,148.5 747,152.5C 748.373,154.695 748.706,157.029 748,159.5C 744.91,163.682 742.91,168.349 742,173.5C 740.833,174.667 739.667,175.833 738.5,177C 731.842,177.5 725.175,177.666 718.5,177.5C 718.5,184.833 718.5,192.167 718.5,199.5C 716.167,199.5 713.833,199.5 711.5,199.5C 711.5,189.833 711.5,180.167 711.5,170.5C 719.5,170.5 727.5,170.5 735.5,170.5C 736.451,165.76 738.117,161.26 740.5,157C 734.613,151.616 729.28,145.783 724.5,139.5C 732.451,130.047 740.951,121.047 750,112.5C 755.681,118.348 761.515,124.015 767.5,129.5C 771.634,127.234 775.967,125.568 780.5,124.5C 780.5,116.167 780.5,107.833 780.5,99.5C 786.833,99.5 793.167,99.5 799.5,99.5 Z"/></g><g><path style="opacity:1" fill="#a7a7a7" d="M 386.5,99.5 C 385.833,103.5 385.167,107.5 384.5,111.5C 384.174,107.116 384.508,102.783 385.5,98.5C 386.107,98.6236 386.44,98.9569 386.5,99.5 Z"/></g><g><path style="opacity:1" fill="#323232" d="M 799.5,106.5 C 799.5,126.167 799.5,145.833 799.5,165.5C 785.224,166.942 777.557,174.776 776.5,189C 776.382,192.695 777.049,196.195 778.5,199.5C 758.5,199.5 738.5,199.5 718.5,199.5C 718.5,192.167 718.5,184.833 718.5,177.5C 725.175,177.666 731.842,177.5 738.5,177C 739.667,175.833 740.833,174.667 742,173.5C 742.91,168.349 744.91,163.682 748,159.5C 748.706,157.029 748.373,154.695 747,152.5C 743,148.5 739,144.5 735,140.5C 734.333,139.5 734.333,138.5 735,137.5C 740,132.5 745,127.5 750,122.5C 755.085,128.257 760.751,133.257 767,137.5C 772.659,134.587 778.493,132.087 784.5,130C 785.333,129.167 786.167,128.333 787,127.5C 787.5,120.508 787.666,113.508 787.5,106.5C 791.5,106.5 795.5,106.5 799.5,106.5 Z"/></g><g><path style="opacity:1" fill="#e8e8e8" d="M 289.5,122.5 C 290.5,122.5 291.5,122.5 292.5,122.5C 292.336,125.187 292.503,127.854 293,130.5C 301.418,128.584 305.084,131.917 304,140.5C 303.215,142.286 302.049,143.786 300.5,145C 296.681,145.069 293.014,145.236 289.5,145.5C 289.5,137.833 289.5,130.167 289.5,122.5 Z"/></g><g><path style="opacity:1" fill="#f1f1f1" d="M 368.5,122.5 C 369.5,122.5 370.5,122.5 371.5,122.5C 371.5,130.167 371.5,137.833 371.5,145.5C 370.5,145.5 369.5,145.5 368.5,145.5C 368.5,137.833 368.5,130.167 368.5,122.5 Z"/></g><g><path style="opacity:1" fill="#e8e8e8" d="M 454.5,122.5 C 455.5,122.5 456.5,122.5 457.5,122.5C 457.336,125.187 457.503,127.854 458,130.5C 466.418,128.584 470.084,131.917 469,140.5C 468.215,142.286 467.049,143.786 465.5,145C 461.681,145.069 458.014,145.236 454.5,145.5C 454.5,137.833 454.5,130.167 454.5,122.5 Z"/></g><g><path style="opacity:1" fill="#ececec" d="M 505.5,122.5 C 506.995,122.415 507.995,123.081 508.5,124.5C 507.68,126.111 506.346,126.778 504.5,126.5C 504.433,125.041 504.766,123.708 505.5,122.5 Z"/></g><g><path style="opacity:1" fill="#e8e8e8" d="M 331.5,124.5 C 335.182,124.335 338.848,124.501 342.5,125C 346.5,128 346.5,131 342.5,134C 347.975,138.007 347.642,141.674 341.5,145C 338.183,145.498 334.85,145.665 331.5,145.5C 331.5,138.5 331.5,131.5 331.5,124.5 Z"/></g><g><path style="opacity:1" fill="#e5e5e5" d="M 394.5,124.5 C 395.5,124.5 396.5,124.5 397.5,124.5C 397.5,126.167 397.5,127.833 397.5,129.5C 404.167,130.167 404.167,130.833 397.5,131.5C 397.335,134.85 397.502,138.183 398,141.5C 399.307,142.772 400.807,143.772 402.5,144.5C 399.23,146.214 396.73,145.548 395,142.5C 395.003,138.258 394.17,134.258 392.5,130.5C 394.104,128.821 394.771,126.821 394.5,124.5 Z"/></g><g><path style="opacity:1" fill="#313131" d="M 334.5,126.5 C 339.542,125.505 341.875,127.505 341.5,132.5C 339.194,132.993 336.861,133.326 334.5,133.5C 334.5,131.167 334.5,128.833 334.5,126.5 Z"/></g><g><path style="opacity:1" fill="#e4e4e4" d="M 411.5,124.5 C 414.167,124.5 416.833,124.5 419.5,124.5C 419.529,127.773 418.196,128.44 415.5,126.5C 408.956,128.031 406.789,132.031 409,138.5C 411.4,142.689 414.9,144.023 419.5,142.5C 420.386,143.325 420.719,144.325 420.5,145.5C 410.16,146.977 404.993,142.644 405,132.5C 406.305,129.039 408.471,126.372 411.5,124.5 Z"/></g><g><path style="opacity:1" fill="#dfdfdf" d="M 307.5,129.5 C 308.833,129.5 310.167,129.5 311.5,129.5C 313.943,142.629 315.943,142.629 317.5,129.5C 318.978,129.238 320.311,129.571 321.5,130.5C 318.184,137.277 315.35,144.277 313,151.5C 311.506,152.747 310.006,152.747 308.5,151.5C 312.314,148.813 313.48,145.147 312,140.5C 309.934,137.039 308.434,133.373 307.5,129.5 Z"/></g><g><path style="opacity:1" fill="#e4e4e4" d="M 350.5,129.5 C 351.5,129.5 352.5,129.5 353.5,129.5C 353.335,133.182 353.501,136.848 354,140.5C 355.36,143.551 357.527,144.218 360.5,142.5C 361.492,138.217 361.826,133.884 361.5,129.5C 362.5,129.5 363.5,129.5 364.5,129.5C 364.5,134.833 364.5,140.167 364.5,145.5C 360.318,145.227 356.151,144.894 352,144.5C 350.612,139.628 350.112,134.628 350.5,129.5 Z"/></g><g><path style="opacity:1" fill="#e4e4e4" d="M 375.5,129.5 C 376.5,129.5 377.5,129.5 378.5,129.5C 378.335,133.182 378.501,136.848 379,140.5C 380.36,143.551 382.527,144.218 385.5,142.5C 386.492,138.217 386.826,133.884 386.5,129.5C 387.5,129.5 388.5,129.5 389.5,129.5C 389.5,134.833 389.5,140.167 389.5,145.5C 385.318,145.227 381.151,144.894 377,144.5C 375.612,139.628 375.112,134.628 375.5,129.5 Z"/></g><g><path style="opacity:1" fill="#e5e5e5" d="M 427.5,129.5 C 438.566,129.729 441.233,134.562 435.5,144C 426.942,147.429 422.776,144.596 423,135.5C 424.332,133.34 425.832,131.34 427.5,129.5 Z"/></g><g><path style="opacity:1" fill="#ebebeb" d="M 442.5,129.5 C 444.124,129.36 445.29,130.027 446,131.5C 447.789,129.771 449.956,129.104 452.5,129.5C 452.891,132.838 451.724,133.838 449,132.5C 447.739,132.759 446.739,133.426 446,134.5C 445.501,138.152 445.335,141.818 445.5,145.5C 444.5,145.5 443.5,145.5 442.5,145.5C 442.5,140.167 442.5,134.833 442.5,129.5 Z"/></g><g><path style="opacity:1" fill="#e4e4e4" d="M 472.5,129.5 C 475.85,129.335 479.183,129.502 482.5,130C 483,130.5 483.5,131 484,131.5C 484.499,136.155 484.666,140.821 484.5,145.5C 480.986,145.236 477.319,145.069 473.5,145C 470.9,142.541 470.9,140.041 473.5,137.5C 475.851,135.771 478.518,135.104 481.5,135.5C 481.64,133.876 480.973,132.71 479.5,132C 477.153,131.666 474.819,131.833 472.5,132.5C 472.5,131.5 472.5,130.5 472.5,129.5 Z"/></g><g><path style="opacity:1" fill="#ededed" d="M 504.5,129.5 C 505.5,129.5 506.5,129.5 507.5,129.5C 507.5,134.833 507.5,140.167 507.5,145.5C 506.5,145.5 505.5,145.5 504.5,145.5C 504.5,140.167 504.5,134.833 504.5,129.5 Z"/></g><g><path style="opacity:1" fill="#373737" d="M 294.5,131.5 C 301.225,132.07 303.058,135.403 300,141.5C 295.085,144.792 292.585,143.459 292.5,137.5C 292.676,135.215 293.343,133.215 294.5,131.5 Z"/></g><g><path style="opacity:1" fill="#363636" d="M 428.5,131.5 C 436.103,132.956 437.436,136.789 432.5,143C 430.299,143.825 428.466,143.325 427,141.5C 426.037,137.851 426.537,134.518 428.5,131.5 Z"/></g><g><path style="opacity:1" fill="#373737" d="M 459.5,131.5 C 466.225,132.07 468.058,135.403 465,141.5C 460.085,144.792 457.585,143.459 457.5,137.5C 457.676,135.215 458.343,133.215 459.5,131.5 Z"/></g><g><path style="opacity:1" fill="#e3e3e3" d="M 493.5,129.5 C 495.833,129.5 498.167,129.5 500.5,129.5C 500.578,132.487 499.411,133.153 497,131.5C 493.645,131.852 492.145,133.686 492.5,137C 492.654,142.573 495.32,144.406 500.5,142.5C 501.386,143.325 501.719,144.325 501.5,145.5C 494.581,146.899 490.248,144.232 488.5,137.5C 489.366,134.308 491.032,131.641 493.5,129.5 Z"/></g><g><path style="opacity:1" fill="#343434" d="M 334.5,135.5 C 337.271,135.421 339.937,135.921 342.5,137C 343.833,138.667 343.833,140.333 342.5,142C 339.937,143.079 337.271,143.579 334.5,143.5C 334.5,140.833 334.5,138.167 334.5,135.5 Z"/></g><g><path style="opacity:1" fill="#363636" d="M 478.5,137.5 C 479.5,137.5 480.5,137.5 481.5,137.5C 482.036,140.865 480.703,142.865 477.5,143.5C 475.734,143.566 474.734,142.732 474.5,141C 475.347,139.229 476.68,138.063 478.5,137.5 Z"/></g><g><path style="opacity:1" fill="#f7f7f7" d="M 799.5,165.5 C 799.5,168.167 799.5,170.833 799.5,173.5C 789.43,173.737 784.096,178.903 783.5,189C 783.597,192.788 784.597,196.288 786.5,199.5C 783.833,199.5 781.167,199.5 778.5,199.5C 777.049,196.195 776.382,192.695 776.5,189C 777.557,174.776 785.224,166.942 799.5,165.5 Z"/></g><g><path style="opacity:1" fill="#323232" d="M 799.5,173.5 C 799.5,182.167 799.5,190.833 799.5,199.5C 795.167,199.5 790.833,199.5 786.5,199.5C 784.597,196.288 783.597,192.788 783.5,189C 784.096,178.903 789.43,173.737 799.5,173.5 Z"/></g></svg>